<?xml version="1.0" encoding="utf-8"?>
<!-- Generator: Adobe Illustrator 26.2.1, SVG Export Plug-In . SVG Version: 6.00 Build 0)  -->
<svg version="1.1" id="Layer_1" xmlns="http://www.w3.org/2000/svg" xmlns:xlink="http://www.w3.org/1999/xlink" x="0px" y="0px"
	 viewBox="0 0 600 400" style="enable-background:new 0 0 600 400;" xml:space="preserve">
<g>
	<path style="fill:#E74241;" d="M228.51,283.32c4.26-17.63,0.02-36.92-12.77-51.32c0.41-3.33,0.61-6.7,0.6-10.06
		c-0.01-21.1-7.97-42.21-23.91-58.48c-3.6-3.68-7.46-6.95-11.52-9.81c-3.33,2.41-6.52,5.1-9.54,8.06
		c-16.17,15.86-24.53,36.67-25.04,57.67c-0.09,3.65,0.06,7.31,0.45,10.95c-14.47,14.31-19.69,34.46-15.59,53H73.3
		c-10.44,0-17.3-10.89-12.79-20.31L166.66,41.44c5.14-10.74,20.43-10.74,25.58,0l106.14,221.57c4.51,9.41-2.35,20.31-12.79,20.31
		H228.51z"/>
	<path style="fill:#E74241;" d="M189.12,215.87c-5.45,5.34-14.2,5.26-19.54-0.19c-5.34-5.45-5.25-14.2,0.19-19.54
		c5.45-5.34,14.2-5.26,19.54,0.19C194.65,201.78,194.56,210.53,189.12,215.87z"/>
	<path style="fill:#E74241;" d="M179.44,283.32h0.02c0,0-0.01,0.01-0.01,0.01L179.44,283.32z"/>
	<path style="fill:#E74241;" d="M179.64,283.32l-0.13,0.27c-0.09-0.09-0.17-0.18-0.26-0.27H179.64z"/>
	<path style="fill:#E74241;" d="M227.95,283.58L191.85,358c-5.2,10.71-20.47,10.64-25.57-0.12l-35.34-74.55
		c0.01,0,0.01-0.01,0.01-0.01c12.31-12.51,29.43-20.26,48.37-20.26s36.06,7.75,48.37,20.26
		C227.78,283.41,227.87,283.49,227.95,283.58z"/>
	<path style="fill:#E74241;" d="M328.41,324.39c-5.45,5.34-14.2,5.26-19.54-0.19c-5.34-5.45-5.25-14.2,0.19-19.54
		c5.45-5.34,14.2-5.26,19.54,0.19C333.94,310.3,333.85,319.05,328.41,324.39z"/>
	<path style="fill:#E74241;" d="M366.95,342.73c-5.45,5.34-14.2,5.26-19.54-0.19c-5.34-5.45-5.25-14.2,0.19-19.54
		c5.45-5.34,14.2-5.26,19.54,0.19C372.48,328.64,372.4,337.39,366.95,342.73z"/>
	<path style="fill:#E74241;" d="M405.5,362.04c-5.45,5.34-14.2,5.26-19.54-0.19c-5.34-5.45-5.25-14.2,0.19-19.54
		c5.45-5.34,14.2-5.26,19.54,0.19C411.03,347.94,410.94,356.7,405.5,362.04z"/>
	<path style="fill:#E74241;" d="M449.56,362.04c-5.45,5.34-14.2,5.26-19.54-0.19c-5.34-5.45-5.25-14.2,0.19-19.54
		c5.45-5.34,14.2-5.26,19.54,0.19C455.09,347.94,455,356.7,449.56,362.04z"/>
	<path style="fill:#E74241;" d="M493.62,362.04c-5.45,5.34-14.2,5.26-19.54-0.19c-5.34-5.45-5.25-14.2,0.19-19.54
		c5.45-5.34,14.2-5.26,19.54,0.19C499.15,347.94,499.07,356.7,493.62,362.04z"/>
	<path style="fill:#E74241;" d="M537.68,362.04c-5.45,5.34-14.2,5.26-19.54-0.19c-5.34-5.45-5.25-14.2,0.19-19.54
		c5.45-5.34,14.2-5.26,19.54,0.19C543.21,347.94,543.13,356.7,537.68,362.04z"/>
</g>
<g>
</g>
<g>
</g>
<g>
</g>
<g>
</g>
<g>
</g>
<g>
</g>
</svg>
