<?xml version="1.0" encoding="utf-8"?>
<!-- Generator: Adobe Illustrator 26.1.0, SVG Export Plug-In . SVG Version: 6.00 Build 0)  -->
<svg version="1.1" id="Layer_1" xmlns="http://www.w3.org/2000/svg" xmlns:xlink="http://www.w3.org/1999/xlink" x="0px" y="0px"
	 viewBox="0 0 1458 1080" style="enable-background:new 0 0 1458 1080;" xml:space="preserve">
<style type="text/css">
	.st0{fill:url(#SVGID_1_);}
	.st1{fill:#CF3434;}
	.st2{fill:#583636;}
	.st3{fill:url(#SVGID_00000078760385101155624550000003288943184405263250_);}
	.st4{fill:url(#SVGID_00000062154709772682781010000012526527207065242811_);stroke:url(#SVGID_00000028296822540548115350000000873463009102041227_);stroke-miterlimit:10;}
	.st5{fill:url(#SVGID_00000099664556194341078320000005178911359419328921_);stroke:url(#SVGID_00000036950428583758229720000017265280991789551786_);stroke-miterlimit:10;}
	.st6{fill:#C4796C;}
	.st7{fill:#DA3837;}
	.st8{fill:#522D2D;}
	.st9{fill:#4C2222;}
	.st10{fill:url(#SVGID_00000031886099324720037740000016320282898244269494_);}
	.st11{fill:url(#SVGID_00000015329699686823996940000002774328096752242313_);stroke:url(#SVGID_00000040536700456769513060000017278119869622583200_);stroke-miterlimit:10;}
	.st12{fill:#E23B3C;}
	.st13{fill:#C53332;}
	.st14{fill:url(#SVGID_00000066502596662503061950000013164304126587302043_);stroke:url(#SVGID_00000085225857773821552720000013335026938456207794_);stroke-miterlimit:10;}
	.st15{fill:url(#SVGID_00000038391899631549463420000014931241116236139404_);}
	.st16{fill:url(#SVGID_00000065064857044577219880000007079395028714672524_);stroke:url(#SVGID_00000144319920665218172070000002183383663799491725_);stroke-miterlimit:10;}

	.rocket {
	  animation: MoveUpDown 5s linear infinite;
	  position: absolute;
	  left: 0;
	  bottom: 0;
	}

	@keyframes MoveUpDown {
	  0%, 100% {
		transform: translateY(0);
	  }
	  50% {
		transform: translateY(-50px);
	  }
	}
</style>
<linearGradient id="SVGID_1_" gradientUnits="userSpaceOnUse" x1="156.0717" y1="-357.0126" x2="1774.9159" y2="818.8085" gradientTransform="matrix(1 0 0 1 0 472)">
	<stop offset="5.900000e-02" stop-color="#fff" stop-opacity=".7"/>
	<stop offset="0.336" style="stop-color:#E84C4A"  stop-opacity=".8"/>
	<stop offset="0.398" style="stop-color:#E32321"  stop-opacity=".9"/>
</linearGradient>
<path class="st0" d="M247.9,460.5c-3.2,48.4,46.2,64.6,129.1,158.6c151.7,172.2,111,256.4,196.1,301.5 c190.7,101,804.1-115.9,789.2-352.3c-11.9-188.9-422.2-349.5-738.6-308.8C455.6,281.1,254.2,365.1,247.9,460.5L247.9,460.5z"/>

<g class="rocket">
	<path class="st1" d="M540.7,180.6c0.9-0.1,0.6-0.9,0.7-1.4C541,179.6,540.8,180,540.7,180.6z M540,182c0.9-0.1,0.6-0.8,0.7-1.4
		C540.3,181,540.1,181.5,540,182z M543.2,175.3c0.2-0.1,0.3-0.4,0.3-0.7C543.3,174.8,543.2,175,543.2,175.3z"/>
	<path class="st2" d="M573.8,130.6c0.3-0.1,0.7,0,0.8-0.4C574.3,130.1,574,130.2,573.8,130.6z"/>

		<linearGradient id="SVGID_00000043419461676583218160000001484845110183488154_" gradientUnits="userSpaceOnUse" x1="3903.5515" y1="208.8903" x2="4137.3936" y2="647.8443" gradientTransform="matrix(-1 0 0 1 4600.458 472)">
		<stop  offset="1.500000e-02" style="stop-color:#801A13"/>
		<stop  offset="0.176" style="stop-color:#B33837"/>
		<stop  offset="0.309" style="stop-color:#E15257"/>
		<stop  offset="0.361" style="stop-color:#DC4E53"/>
		<stop  offset="0.774" style="stop-color:#BB3534"/>
		<stop  offset="1" style="stop-color:#AF2B28"/>
	</linearGradient>
	<path style="fill:url(#SVGID_00000043419461676583218160000001484845110183488154_);" d="M652.1,703c-0.5,1.8-1.4,3.3-2.2,5
		c-3.1,6.7-6.2,13.3-9.3,19.9l-12.9,27.5c-2,4.2-3.7,8.6-6.4,12.4c-1.4,1.9-2.8,3.7-4.7,5.2c-0.5,0.4-1.2,0.7-1,1.5
		c2.9-1.2,5.6-2.9,8.3-4.4c16.5-8.9,33.1-17.9,49.6-26.9c10-5.4,20-10.9,30.1-16.3c6.9-3.7,11.5-9.3,14.7-16.3l18-38.6
		c3.6-7.7,7.2-15.3,10.8-22.9c-0.7-0.5-1.6-0.6-2.5-0.7c-4.5-0.6-9-1.2-13.5-1.9l-15.9-2.3c-4.5-0.6-9-1.2-13.5-1.9l-16.4-2.4
		c-1.1-0.2-2.2-0.1-3.2-0.7h-0.3c-0.5,1.2-1,2.3-1.6,3.5l-9.3,19.8c-3.8,8.1-7.5,16.2-11.3,24.2c-1.5,3.3-3,6.6-4.6,9.8
		C654.2,698.7,653.4,701,652.1,703L652.1,703z"/>

		<linearGradient id="SVGID_00000060023649462501705750000012961574191518304666_" gradientUnits="userSpaceOnUse" x1="3977.6733" y1="-419.5699" x2="3700.2244" y2="267.9621" gradientTransform="matrix(-1 0 0 1 4600.458 472)">
		<stop  offset="0.141" style="stop-color:#C21A1B"/>
		<stop  offset="0.195" style="stop-color:#CC2F28"/>
		<stop  offset="0.32" style="stop-color:#E25A44"/>
		<stop  offset="0.384" style="stop-color:#EA6B4F"/>
		<stop  offset="0.683" style="stop-color:#AE1A19"/>
		<stop  offset="0.8" style="stop-color:#AF1C1B"/>
		<stop  offset="0.865" style="stop-color:#B42421"/>
		<stop  offset="0.916" style="stop-color:#BC322B"/>
		<stop  offset="0.961" style="stop-color:#C7453A"/>
		<stop  offset="1" style="stop-color:#D55E4D"/>
	</linearGradient>

		<linearGradient id="SVGID_00000062909103339405969800000000330670964921486740_" gradientUnits="userSpaceOnUse" x1="573.7469" y1="951.1867" x2="906.7499" y2="951.1867" gradientTransform="matrix(1 0 0 -1 0 1313.89)">
		<stop  offset="0.144" style="stop-color:#C21A1B"/>
		<stop  offset="0.194" style="stop-color:#BF1A1B"/>
		<stop  offset="0.489" style="stop-color:#AE1A19"/>
		<stop  offset="0.642" style="stop-color:#EA6B4F"/>
		<stop  offset="1" style="stop-color:#D55E4D"/>
	</linearGradient>

		<path style="fill:url(#SVGID_00000060023649462501705750000012961574191518304666_);stroke:url(#SVGID_00000062909103339405969800000000330670964921486740_);stroke-miterlimit:10;" d="
		M574.6,130.1c0.6,0.2,1.1-0.1,1.7-0.2c1.3-0.3,2.6-0.7,4-0.8c3.9-0.8,7.8-0.5,11.8,0.1c3.3,0.5,6.5,1.8,9.6,3
		c1.8,0.7,3.3,1.8,4.9,2.8l2.8,1.8c0.2,0.5,0.9,0.6,1.1,1.2c1.2,0.7,2.2,1.6,3.1,2.5l3.5,3.6l2.2,2.9c2.7,3.7,4.7,7.8,6.4,12.1
		l6.7,16.2l0.3,0.6l10.6,25.4c1.1,2.6,2.3,5.2,3.2,7.9c0.4,0.4,0.5,0.9,0.6,1.4l0.3,0.7l0.5,0.9l21.6,51.8
		c6.6,15.9,13.2,31.7,19.9,47.6l21.4,51.3l23.9,57.3c7.6,18.2,15.2,36.4,22.8,54.5c1.4,3.4,3,6.8,4.2,10.4c0.1,0.2,0.3,0.5,0.4,0.8
		c2.2,5.3,4.4,10.6,6.7,15.9l8.1,19.5c2.2,5.2,4.4,10.5,6.5,15.7l7.6,18.1c1.7,4.1,3.4,8.2,5,12.4l5.2,12.1l6.4,15.4
		c2.5,5.7,4.5,11.5,5.2,17.7h0.4h-0.4l0.1,2.8c0.4,2.6-0.1,5.2-0.3,7.8l-0.5,3.8c-0.8,1.5-1.1,3.3-1.7,4.9c-2.2,5.5-5.5,10.1-9.9,14
		c-0.4,0.3-1,0.5-1,1.1c1.7-0.6,3.2-1.6,4.8-2.5c20.6-11.2,41.2-22.3,61.9-33.5l21.8-11.8c9.1-4.9,14.6-12.6,17.1-22.5
		c0.6-1.8,0.8-3.8,1-5.7c0.2-2.9,0.2-5.8,0-8.8c-0.3-1.6-0.2-3.3-0.9-4.9c-0.3-2.6-1.1-5-2.1-7.4c-3.9-9.5-7.8-18.9-11.8-28.4
		L871.9,475c-9.6-23-19.2-46.1-28.9-69.1l-21.2-50.8l-27.1-64.9l-21.1-50.6c-9.3-22.4-18.7-44.7-28-67l-27-64.8
		c-1.3-3.2-2.7-6.3-4.8-9.1c-2.4-4.1-5.5-7.6-9.2-10.5c-2.9-2.7-6.2-4.8-9.8-6.2c-3-1.7-6.3-2.5-9.6-3.2c-1.2-0.3-2.5-0.1-3.7-0.7
		h-5.2c-0.9,0.5-1.9,0.4-2.9,0.5c-4.6,0.7-8.8,2.7-12.8,4.9l-84,45.5C575.8,129.3,575.1,129.5,574.6,130.1L574.6,130.1z"/>
	<path class="st2" d="M813.6,612.5c0.1,0,0.2-0.1,0.4-0.2C813.8,612.4,813.7,612.4,813.6,612.5z M799.3,646.9c-0.3,0-0.6,0-0.7,0.4
		C798.9,647.3,799.2,647.2,799.3,646.9z"/>
	<path class="st1" d="M798.6,647.3c-0.3,0-0.5,0-0.6,0.4C798.3,647.7,798.5,647.6,798.6,647.3z"/>

		<linearGradient id="SVGID_00000091714028491041127400000017569646705511019194_" gradientUnits="userSpaceOnUse" x1="602.7401" y1="-47.2611" x2="642.0551" y2="20.5321" gradientTransform="matrix(1 0 0 1 0 472)">
		<stop  offset="5.100000e-02" style="stop-color:#801A13"/>
		<stop  offset="0.138" style="stop-color:#B3271F"/>
		<stop  offset="0.216" style="stop-color:#E5332A"/>
		<stop  offset="0.384" style="stop-color:#AF2720"/>
		<stop  offset="0.568" style="stop-color:#7A1C16"/>
		<stop  offset="0.706" style="stop-color:#581510"/>
		<stop  offset="0.782" style="stop-color:#4C120E"/>
		<stop  offset="1" style="stop-color:#AF2B28"/>
	</linearGradient>

		<linearGradient id="SVGID_00000034767968266194336590000009302015163989497755_" gradientUnits="userSpaceOnUse" x1="580.758" y1="860.4506" x2="650.348" y2="860.4506" gradientTransform="matrix(1 0 0 -1 0 1313.89)">
		<stop  offset="0.144" style="stop-color:#C21A1B"/>
		<stop  offset="0.194" style="stop-color:#BF1A1B"/>
		<stop  offset="0.489" style="stop-color:#AE1A19"/>
		<stop  offset="0.642" style="stop-color:#EA6B4F"/>
		<stop  offset="1" style="stop-color:#D55E4D"/>
	</linearGradient>

		<path style="fill:url(#SVGID_00000091714028491041127400000017569646705511019194_);stroke:url(#SVGID_00000034767968266194336590000009302015163989497755_);stroke-miterlimit:10;" d="
		M582,439.1l15.5-8.4c5-2.7,10-5.4,15.1-8.1c0.8-0.4,3.2-1.8,3.6-2c4-2.1,8-4.3,11.9-6.5c0.3-0.2,0.7-0.4,1.1-0.4c1,1.6,2.4,3,2.8,5
		c0.4,0.1,0.4,0.5,0.6,0.8c1.2,2,1.9,4.2,2.8,6.3l2.3,4.7c1.2,2.9,2.3,5.7,3.4,8.6c2.1,5.5,3.8,11.2,5.5,16.9
		c0.4,1.3,2.1,8.4,2.2,8.8c0.3,1.8,0.6,3.2,1,5.1l-1.5,0.7l-32,17.4c-2.5,1.4-5,2.9-7.7,4c0.6-0.5,1.1-1,1.3-1.1
		c3-2.5,4.7-6.7,5.9-9.5c1.4-3.2,1.8-6.6,1.7-10.1c-0.1-8.1-3-15.4-8.2-21.6c-4.4-5.2-7.5-6.6-11-8.3c-1.1-0.5-5.2-2.1-9.4-2.1
		c-2.6,0-5.2,0.3-7.8,0.7C581.3,439.5,581.7,439.3,582,439.1L582,439.1z"/>
	<path class="st6" d="M653.5,502.7v11.9c0.3-0.3,0.2-0.8,0.2-1.2v-9.6C653.7,503.4,653.8,503,653.5,502.7z M651.6,481
		c-0.1,1,0,1.9,0.4,2.8C652,482.8,652.2,481.8,651.6,481z M652.3,486.5c0,0.9-0.1,1.7,0.3,2.5C652.7,488.2,652.9,487.3,652.3,486.5z
		 M653.1,495.3c-0.1,0.9-0.2,1.7,0.2,2.5C653.4,497,653.6,496.1,653.1,495.3z M652,483.8c0,0.8-0.1,1.5,0.3,2.2
		C652.3,485.2,652.5,484.4,652,483.8z M651.3,478.9c0,0.6-0.1,1.3,0.3,1.8C651.7,480,651.8,479.4,651.3,478.9z"/>
	<path class="st7" d="M692,509.6c0,0.1,0.1,0.3,0.1,0.3c0.2,0.1,0.3,0,0.3-0.2c0-0.1,0.3-0.3-0.1-0.3
		C692.3,509.4,692.2,509.5,692,509.6z"/>
	<path class="st6" d="M652.8,491.5c-0.1,0.5-0.2,1,0.2,1.5C653.1,492.4,653.2,491.9,652.8,491.5z"/>
	<path class="st8" d="M647.7,461.1c-0.4,0.5,0,0.6,0.3,0.7C648.1,461.4,648.1,461.1,647.7,461.1z M648.1,462.5
		c-0.4,0.5-0.1,0.6,0.3,0.7C648.5,462.8,648.5,462.5,648.1,462.5z"/>
	<path class="st6" d="M653.5,515.3c-0.2,0.5-0.2,0.9,0,1.4c0.1,0,0.2,0,0.3-0.1C653.7,516.2,653.8,515.7,653.5,515.3L653.5,515.3z
		 M653.4,500.6c-0.1,0.4-0.1,0.7,0,1.1C653.8,501.3,653.8,500.9,653.4,500.6z M652.7,490.1c-0.1,0.2-0.1,0.5,0,0.7
		C653,490.5,653,490.3,652.7,490.1z M653,494.2v0.4C653.3,494.5,653.2,494.4,653,494.2z"/>
	<path class="st8" d="M647.4,460l0.2,0.3C647.8,460.1,647.6,460,647.4,460z"/>
	<path class="st9" d="M530.2,592c-0.3,0-0.6,0-0.7,0.3C529.8,592.3,530.1,592.2,530.2,592z M529.5,592.3c-0.3,0-0.5,0.1-0.7,0.3
		C529.1,592.6,529.3,592.6,529.5,592.3z M531,591.6c-0.1,0.1-0.3,0.2-0.4,0.2C530.7,591.9,530.9,591.8,531,591.6z"/>

		<linearGradient id="SVGID_00000113327632406961935500000008064463108837537211_" gradientUnits="userSpaceOnUse" x1="4066.6672" y1="-36.5766" x2="3962.2202" y2="261.3224" gradientTransform="matrix(-1 0 0 1 4600.458 472)">
		<stop  offset="5.100000e-02" style="stop-color:#801A13"/>
		<stop  offset="0.138" style="stop-color:#B3271F"/>
		<stop  offset="0.216" style="stop-color:#E5332A"/>
		<stop  offset="0.314" style="stop-color:#AF2720"/>
		<stop  offset="0.421" style="stop-color:#7A1C16"/>
		<stop  offset="0.502" style="stop-color:#581510"/>
		<stop  offset="0.546" style="stop-color:#4C120E"/>
		<stop  offset="1" style="stop-color:#AF2B28"/>
	</linearGradient>
	<path style="fill:url(#SVGID_00000113327632406961935500000008064463108837537211_);" d="M494.9,574.7c0.6-6.4,1.5-12.8,3.2-19
		c0.8-3,1.7-6,2.6-9l0.9-2.2c1.4-3.7,2.8-7.4,4.9-10.8l0.5-1.3c2.8-5.3,6-10.3,9.7-14.9l5.1-6.2c-0.7-5.2-1-10.4-1.1-15.7
		c-0.2-7.6,0.2-15.1,0.9-22.7c0.7-7.1,1.8-14.2,3.4-21.2c2.8-12.3,6.9-24.2,12.5-35.5c1.1-2.2,2.2-4.4,3.3-6.5l0.6-0.7
		c0.2-0.5,0.4-1,0.7-1.4c2.7-4.6,5.7-9.1,8.9-13.4c5.7-7.6,12-14.5,19.1-20.8c1.7-1.5,3.7-2.9,5.3-4.6l2.3-1.6
		c3-2.3,6.2-4.4,9.3-6.5c0.7-0.5,1.2-0.6,1.9,0.1c0.9,0.9,1.9,1.8,2.8,2.6c4.9,4.7,9.5,9.8,13.9,15c1.7,2,3.3,3.9,4.7,6l0.7,0.7
		c2.3,3.1,4.6,6.2,6.8,9.4c0.6,0.8,1.3,1.6,1.5,2.7c-0.8,1.6-1,3.4-1.4,5.2c-1.4,6.2-2.1,12-2.7,18.4c-0.7,0.5-12.9,7.2-18,9.9
		l-15.7,8.5c-0.4,0.2-1.4,0.6-2.1,1c-2.2,1.1-3.7,2.5-5.7,4.2c-4.4,3.6-7.1,8.3-8.2,13.9c-1.9,9.1,0.3,17.3,5.3,25
		c0.2,0.4,0.6,0.7,0.7,1.2c0.9,1,1.8,2,2.7,2.9c3.6,3.9,8,6.7,13.1,8.3l0.6,0.3c1.9,0.3,3.8,0.6,5.8,1c-2.5,7-4,14.2-5.1,21.5
		c-1,7.3-1.3,14.6-1,21.9c0.2,5.8,0.8,11.6,1.9,17.3c0.1,0.5,0.1,1,0.2,1.6c-0.2,0.5-0.5,0.7-1,1c-3.5,1.8-7,3.7-10.5,5.6l-16.2,8.8
		c-2.1,1.2-4.3,2.4-6.4,3.5c-5,2.7-10,5.4-15.1,8.1l-8.3,4.5c-0.5,0.3-1.1,0.5-1.1,1.2c-0.1,0.1-0.2,0.1-0.3,0.1
		c-0.1,0.1-0.3,0.2-0.4,0.2c-0.1,0.1-0.2,0.1-0.3,0.1c-0.3,0-0.6,0-0.7,0.3c-0.3,0-0.5,0.1-0.7,0.3l-0.6,0.3
		c-9.9,4.6-19,10.3-27.1,17.6c-1.1,1-2,2.3-3.5,2.8c-0.1-0.1-0.2-0.2-0.3-0.4l-1.4-8.4c-1-6.4-1.5-12.8-1.5-19.3
		C494.4,581.9,494.5,578.3,494.9,574.7L494.9,574.7z"/>
	<path class="st1" d="M517.9,348.9c0.2,0,0.3-0.2,0.2-0.4c-0.1-0.2-0.2-0.4-0.5-0.4c-0.2,0-0.3,0.1-0.3,0.3
		C517.4,348.7,517.6,348.9,517.9,348.9z"/>

		<linearGradient id="SVGID_00000067196302545471515700000003021500863396889254_" gradientUnits="userSpaceOnUse" x1="3970.2261" y1="-4.1623" x2="4141.0088" y2="-4.1623" gradientTransform="matrix(-1 0 0 1 4600.458 472)">
		<stop  offset="0.141" style="stop-color:#C21A1B"/>
		<stop  offset="0.228" style="stop-color:#CC2F28"/>
		<stop  offset="0.429" style="stop-color:#E25A44"/>
		<stop  offset="0.531" style="stop-color:#EA6B4F"/>
		<stop  offset="0.683" style="stop-color:#AE1A19"/>
		<stop  offset="0.8" style="stop-color:#AF1C1B"/>
		<stop  offset="0.865" style="stop-color:#B42421"/>
		<stop  offset="0.916" style="stop-color:#BC322B"/>
		<stop  offset="0.961" style="stop-color:#C7453A"/>
		<stop  offset="1" style="stop-color:#D55E4D"/>
	</linearGradient>

		<linearGradient id="SVGID_00000056391040285789412040000007567158642903365288_" gradientUnits="userSpaceOnUse" x1="564.41" y1="846.0505" x2="617.863" y2="846.0505" gradientTransform="matrix(1 0 0 -1 0 1313.89)">
		<stop  offset="0.144" style="stop-color:#C21A1B"/>
		<stop  offset="0.194" style="stop-color:#BF1A1B"/>
		<stop  offset="0.489" style="stop-color:#AE1A19"/>
		<stop  offset="0.642" style="stop-color:#EA6B4F"/>
		<stop  offset="1" style="stop-color:#D55E4D"/>
	</linearGradient>

		<path style="fill:url(#SVGID_00000067196302545471515700000003021500863396889254_);stroke:url(#SVGID_00000056391040285789412040000007567158642903365288_);stroke-miterlimit:10;" d="
		M571.6,484.1c0.9,1,1.8,2,2.7,2.9c3.6,3.9,8,6.7,13.1,8.3l0.6,0.3c1.9,0.3,3.8,0.6,5.8,1c1.4-0.1,2.8-0.2,4.2-0.4
		c3.6-0.5,6.9-1.9,10-3.9c0.5-0.3,1.1-0.8,1.5-1.1c3-2.5,4.7-5.6,6.1-9.2l0.4-0.8c1.1-3.3,1.6-6.6,1.5-10.1
		c-0.1-8.1-3-15.2-8.2-21.4c-4.4-5.2-10-8.6-16.7-10.2c-1.1-0.2-2.3-0.3-3.5-0.4c-2.6-0.1-5.1,0.1-7.8,0.7c-0.5,0.2-0.7,0.2-1.1,0.4
		c-2.2,1.1-4.5,2.1-6.5,3.8c-4.4,3.6-7.1,8.3-8.2,13.9c-1.9,9.1,0.3,17.3,5.3,25C571.1,483.3,571.5,483.6,571.6,484.1L571.6,484.1z"
		/>
	<path class="st12" d="M692.3,509.4c0.3-0.1,0.3,0,0.3,0.1C692.5,509.5,692.4,509.5,692.3,509.4z M647,210.7c-0.2,0-0.5,0.1-0.5,0.3
		c0,0.5,0.5,0.3,0.8,0.4L647,210.7z"/>
	<path class="st13" d="M595.4,645.1l0.1,0.3c0,0,0.2-0.1,0.3-0.1l-0.1-0.3C595.6,645,595.5,645,595.4,645.1z"/>

		<linearGradient id="SVGID_00000085932000269972749680000014679228043685684140_" gradientUnits="userSpaceOnUse" x1="3938.2939" y1="110.41" x2="4310.5039" y2="503.299" gradientTransform="matrix(-1 0 0 1 4600.458 472)">
		<stop  offset="0" style="stop-color:#D55E4D"/>
		<stop  offset="0.131" style="stop-color:#C21A1B"/>
		<stop  offset="0.185" style="stop-color:#BF1A1B"/>
		<stop  offset="0.509" style="stop-color:#AE1A19"/>
	</linearGradient>

		<linearGradient id="SVGID_00000176006914103456266860000000061629183421597860_" gradientUnits="userSpaceOnUse" x1="496.7555" y1="631.666" x2="682.5062" y2="631.666" gradientTransform="matrix(1 0 0 -1 0 1313.89)">
		<stop  offset="0.144" style="stop-color:#C21A1B"/>
		<stop  offset="0.194" style="stop-color:#BF1A1B"/>
		<stop  offset="0.489" style="stop-color:#AE1A19"/>
		<stop  offset="0.642" style="stop-color:#EA6B4F"/>
		<stop  offset="1" style="stop-color:#D55E4D"/>
	</linearGradient>

		<path style="fill:url(#SVGID_00000085932000269972749680000014679228043685684140_);stroke:url(#SVGID_00000176006914103456266860000000061629183421597860_);stroke-miterlimit:10;" d="
		M501.1,610.6c8.1-7.3,17.2-13,27.1-17.6l0.6-0.3c0.3,0,0.5-0.1,0.7-0.3c0.3,0,0.6,0,0.7-0.3c0.1,0,0.2,0,0.3-0.1
		c0.2,0,0.3-0.1,0.4-0.2c0.1,0,0.2,0,0.3-0.1l8.5-3c2.5-0.8,5-1.6,7.6-2c2.7-0.9,5.5-1.3,8.3-1.7s5.7-0.8,8.5-1.1
		c1.3,0.2,2.5-0.2,3.8-0.2c5-0.1,10-0.1,15,0.4c4.4,0.4,8.8,0.8,13.1,1.8c6.5,1.5,13.1,3,19.4,5.4c4.1,1.5,8.1,3.1,12,5
		c2.6,1.3,5.2,2.5,7.8,3.9c5.8,3.1,11.3,6.6,16.6,10.5c8.3,6.1,15.9,13,23,20.6c2,2.2,3.9,4.5,5.8,6.7c0.4,0.5,0.8,1,1.3,1.4
		c-0.5,1.2-1,2.3-1.6,3.5l-9.3,19.8c-3.8,8.1-7.5,16.2-11.3,24.2c-1.5,3.3-3,6.6-4.6,9.8c-1,2.1-1.9,4.4-3.2,6.4
		c-0.5,1.8-1.4,3.3-2.2,5c-3.1,6.7-6.2,13.3-9.3,19.9l-12.9,27.5c-2,4.2-3.7,8.6-6.4,12.4c-1.4,1.9-2.8,3.7-4.7,5.2
		c-0.4,0.4-1.2,0.6-1,1.5c-0.3-0.1-0.6,0-0.7,0.3c-0.3,0-0.6,0.2-0.7,0.5c-1.6,1-3.3,1.9-5,2.7c-3.2,1.5-6.5,2.4-10,2.7h-7.4
		c-4.6-0.4-8.9-1.7-13-3.7c-9.9-4.9-17.1-12.5-21.6-22.5c-3.7-8.1-7-16.4-10.5-24.6c-14.8-35-29.6-70.1-44.4-105.2
		c-1.6-3.8-3.3-7.5-4.7-11.3C499.1,612.9,500,611.6,501.1,610.6L501.1,610.6z"/>

		<linearGradient id="SVGID_00000141420495061996569410000012796660547580169611_" gradientUnits="userSpaceOnUse" x1="513.1392" y1="6.6169" x2="835.3482" y2="338.1118" gradientTransform="matrix(1 0 0 1 0 472)">
		<stop  offset="5.100000e-02" style="stop-color:#801A13"/>
		<stop  offset="0.138" style="stop-color:#B3271F"/>
		<stop  offset="0.216" style="stop-color:#E5332A"/>
		<stop  offset="0.305" style="stop-color:#AF2720"/>
		<stop  offset="0.402" style="stop-color:#7A1C16"/>
		<stop  offset="0.476" style="stop-color:#581510"/>
		<stop  offset="0.516" style="stop-color:#4C120E"/>
		<stop  offset="1" style="stop-color:#AF2B28"/>
	</linearGradient>
	<path style="fill:url(#SVGID_00000141420495061996569410000012796660547580169611_);" d="M532.3,590.4l8.3-4.5
		c5-2.7,10-5.4,15.1-8.1l6.4-3.5c5.4-3,10.8-5.9,16.2-8.8l10.5-5.6c0.4-0.2,0.8-0.5,1-1c0.5,0.2,0.9-0.1,1.3-0.3
		c7.2-3.9,14.4-7.8,21.6-11.8c7.8-4.3,16-7.7,24.7-10c6.7-1.8,13.4-2.9,20.3-3.4c1.3,0.9,2.1,2.3,2.8,3.7l0.5,0.5
		c6.7,10,12.1,20.6,16.1,31.9c2.8,7.9,4.9,16,6.2,24.3c0.9,5.8,1.5,11.7,1.6,17.5c0.1,4.1,0,8.2-0.3,12.2
		c-0.4,5.3-1.1,10.5-2.2,15.7h-0.3c-0.6-0.3-0.9-0.9-1.3-1.4c-1.9-2.2-3.8-4.5-5.8-6.7c-7-7.5-14.6-14.5-23-20.6
		c-5.3-3.9-10.8-7.4-16.6-10.5c-2.5-1.4-5.2-2.6-7.8-3.9c-3.9-1.9-8-3.5-12-5c-6.3-2.4-12.9-3.8-19.4-5.4c-4.3-1-8.7-1.5-13.1-1.8
		c-5-0.4-10-0.5-15-0.4c-1.3,0-2.5,0.5-3.8,0.2l-8.5,1.1c0,0-5.6,0.8-8.3,1.7c-2.6,0.3-5.1,1.2-7.6,2c-2.9,0.9-5.7,2-8.5,3
		C531.3,590.8,531.8,590.6,532.3,590.4L532.3,590.4z"/>

		<linearGradient id="SVGID_00000011741995709514748560000004540415644093109411_" gradientUnits="userSpaceOnUse" x1="4218.106" y1="-81.2959" x2="2850.3071" y2="-81.2959" gradientTransform="matrix(-1 0 0 1 4600.458 472)">
		<stop  offset="0.144" style="stop-color:#C21A1B"/>
		<stop  offset="0.194" style="stop-color:#BF1A1B"/>
		<stop  offset="0.489" style="stop-color:#AE1A19"/>
		<stop  offset="0.642" style="stop-color:#EA6B4F"/>
		<stop  offset="1" style="stop-color:#D55E4D"/>
	</linearGradient>

		<linearGradient id="SVGID_00000181054055031380804810000001392131307554519174_" gradientUnits="userSpaceOnUse" x1="771.1141" y1="1095.4565" x2="539.324" y2="642.8602" gradientTransform="matrix(1 0 0 -1 0 1313.89)">
		<stop  offset="0.144" style="stop-color:#C21A1B"/>
		<stop  offset="0.194" style="stop-color:#BF1A1B"/>
		<stop  offset="0.489" style="stop-color:#AE1A19"/>
		<stop  offset="0.642" style="stop-color:#EA6B4F"/>
		<stop  offset="1" style="stop-color:#D55E4D"/>
	</linearGradient>

		<path style="fill:url(#SVGID_00000011741995709514748560000004540415644093109411_);stroke:url(#SVGID_00000181054055031380804810000001392131307554519174_);stroke-miterlimit:10;" d="
		M372.9,534.8c3.4-6.8,6.5-13.7,9.8-20.5l13.4-28.3c0,0,9-18.8,13.4-28.3l5.4-11.6l12-25.3l5.1-10.5c1.1-2.4,2.2-4.9,3.4-7.3
		l13.4-28.3l13.2-28l11.8-24.8l15.1-31.9l5.7-12c1.2-2.6,2.5-5.2,3.8-7.8l3-6.6l6.9-14.7c4.4-9.4,8.9-18.8,13.3-28.1
		c4.5-9.5,9-19.1,13.6-28.6c1.3-2.8,12.4-26,14.3-30c2-4.3,4.1-8.6,6-13c1.7-3.9,3.8-7.5,6.8-10.6c3.3-3.5,7.2-5.9,11.6-7.8
		c3.8-1.6,6.6-1.9,6.6-1.9c5.1-0.7,7.9-0.2,11.6,0.4c3.3,0.5,6.5,1.8,9.6,3c6,2.6,11,7.3,11.9,8.3l3.5,3.6l2.2,2.9
		c2.7,3.7,4.7,7.8,6.4,12.1l6.7,16.2l0.3,0.6l10.6,25.4c1.1,2.6,2.3,5.2,3.2,7.9c0.4,0.4,0.5,0.9,0.6,1.4c-0.2,0-0.5,0.1-0.5,0.3
		c0,0.5,0.5,0.3,0.8,0.4l0.5,0.9l21.6,51.8c6.6,15.9,13.2,31.7,19.9,47.6l21.4,51.3l23.9,57.3c7.6,18.2,46.5,111.5,48.7,116.7
		l7.6,18.1c1.7,4.1,3.4,8.2,5,12.4l5.2,12.1l6.4,15.4c2.5,5.7,4.6,11.8,5.1,15.1c0.2,1.2,0.5,4.7,0.5,6.5c0,2.7,0,6.6-1.2,10.4
		c-0.5,1.7-1.1,3.3-1.7,4.9c-2.2,5.5-5,10.1-9.6,13.8c-0.7,0.6-2,1.6-3.3,2.3c-2.4,1.4-13.9,5.7-21.7,4.7c-7.7-1-39.9-5.7-44.4-6.3
		l-15.9-2.3c-4.5-0.6-9-1.2-13.5-1.9l-16.4-2.4c-1.1-0.2-2.2-0.1-3.2-0.7c1.1-5.2,1.8-10.4,2.2-15.7c0.3-4.1,0.4-8.2,0.3-12.2
		c-0.1-5.9-0.7-11.7-1.6-17.5c-1.3-8.3-3.4-16.4-6.2-24.3c-4-11.3-9.4-21.9-16.1-31.9c-1-1.4-3.8-5.5-4.3-6.1
		c-1.2-1.5-2.4-3-3.6-4.6c0-1,0.7-19.8,0.7-23c-0.3-12.4-2.4-26.6-3-29.6c-0.2-0.8-0.8-3.8-1-4.7c-0.4-1.9-6.5-24.9-8.6-30.5
		c-1.1-2.9-2.2-5.8-3.4-8.6l-2.3-4.7c-1-2.1-7.4-14.9-8.1-16.2c-2.3-4-4.8-7.9-7.2-11.8c-0.2-0.4-0.5-0.7-0.9-0.8
		c-0.2-1.1-0.9-1.9-1.5-2.7c-2.2-3.1-4.5-6.3-6.8-9.4c-0.2-0.3-0.5-0.5-0.7-0.7c-1.4-2.2-3.1-4.1-4.7-6c-4.4-5.2-9-10.2-13.9-15
		c-0.9-0.9-1.8-1.7-2.8-2.6c-1.3-1.3-4.1,0.8-6.2,2.5c-1.8,1.3-10.8,8.6-12.5,10.1c-7.1,6.3-13.4,13.2-19.1,20.8
		c-3.2,4.3-12.4,19.9-13.5,22c-5.6,11.3-9.8,23.2-12.5,35.5c-1.6,7-2.7,14-3.4,21.2c-0.7,7.5-1.1,15.1-0.9,22.7
		c0.2,5.2,0.4,10.5,1.1,15.7l-5.1,6.2c-3.7,4.7-6.9,9.7-9.7,14.9l-0.9,1.8c-1.7,3.6-3,6.5-4.5,10.2c-0.3,0.8-0.6,1.5-0.9,2.2
		c-0.9,3-1.8,6-2.6,9c-1.7,6.2-2.6,12.6-3.2,19c-0.3,3.6-0.5,7.2-0.5,10.8c0,6.5,0.4,12.9,1.5,19.3c0.5,2.8,1.1,5.6,1.4,8.4
		c-0.3,0-46-6.4-49-6.8c-4.5-0.6-9.1-1.3-13.6-2c-3.6-0.5-7.2-1-10.9-1.5c-3.9-0.5-7.8-1.1-11.7-1.7c-3.2-0.5-6.5-0.8-9.6-1.6
		c-8.8-2.2-16-7-21.8-13.8c-7.4-8.7-11.7-18.7-12.1-30.2C368.2,548.1,369.6,541.3,372.9,534.8L372.9,534.8z"/>
</g>
</svg>
