<?xml version="1.0" encoding="utf-8"?>
<!-- Generator: Adobe Illustrator 26.2.1, SVG Export Plug-In . SVG Version: 6.00 Build 0)  -->
<svg version="1.1" id="Layer_1" xmlns="http://www.w3.org/2000/svg" xmlns:xlink="http://www.w3.org/1999/xlink" x="0px" y="0px"
	 viewBox="0 0 24 24" style="enable-background:new 0 0 24 24;" xml:space="preserve">
<style type="text/css">
	.st0{fill-rule:evenodd;clip-rule:evenodd;fill:#050505;}
	.st1{fill-rule:evenodd;clip-rule:evenodd;fill:#C5C6FF;}
	.st2{fill-rule:evenodd;clip-rule:evenodd;fill:#A1A2F4;}
	.st3{fill-rule:evenodd;clip-rule:evenodd;fill:#010101;}
	.st4{fill-rule:evenodd;clip-rule:evenodd;fill:#FFFFFF;}
</style>
<g id="pinterest">
</g>
<g id="youtube">
</g>
<g id="whatsapp">
</g>
<g id="instagram">
</g>
<g id="tiktok">
</g>
<g id="rss">
</g>
<g id="twitter">
</g>
<g id="facebook">
</g>
<g id="inbox">
</g>
<g id="discord">
	<g>
		<path class="st0" d="M6.2,17.8c0,0,0.1,0,0.1,0C6.6,18,7,18.1,7.3,18.3l0,0c0.7,0.2,1.4,0.4,2.2,0.6l0,0c0.7,0.1,1.5,0.2,2.2,0.2
			l0,0c0.6,0,1.1,0,1.7-0.1c0.4,0,0.8-0.1,1.2-0.2c0.5-0.1,1-0.2,1.5-0.4c0.3-0.1,0.6-0.2,0.9-0.3l0,0c0.3-0.1,0.5-0.2,0.7-0.4
			c0.1,0,0.1-0.1,0.2-0.1l0,0c-0.1,0-0.1,0.1-0.2,0.1c-0.4,0.2-0.8,0.4-1.1,0.6l0,0c-0.1,0.1-0.2,0.1-0.3,0.2l0,0
			c-0.1,0.1-0.1,0.2-0.2,0.3l0,0c0,0.1,0,0.2,0,0.3l0,0c0,0.3,0.2,0.5,0.3,0.8c0.2,0.3,0.3,0.5,0.6,0.7c0.2,0.2,0.5,0.3,0.8,0.2l0,0
			c0.3,0,0.6-0.1,0.9-0.2l0,0c1-0.3,2-0.7,2.9-1.2l0,0c0.6-0.3,1.1-0.6,1.6-1.1c0,0,0,0,0,0c0.2-0.2,0.4-0.4,0.5-0.7
			c0.1-0.2,0.1-0.5,0.1-0.7c0-0.4,0.1-0.7,0-1.1c0-0.2,0-0.4,0-0.6c0-0.3,0-0.6-0.1-0.9c0-0.3-0.1-0.6-0.1-0.9
			c-0.1-0.6-0.2-1.2-0.3-1.8c-0.1-0.7-0.3-1.3-0.5-2c-0.3-1.1-0.7-2.2-1.3-3.2c-0.2-0.4-0.4-0.8-0.7-1.2l0,0
			c-0.1-0.2-0.3-0.3-0.4-0.5c-0.4-0.5-0.8-0.8-1.4-1.1c-0.3-0.1-0.6-0.3-0.9-0.4c-0.7-0.2-1.3-0.4-2-0.5l0,0c-0.3,0-0.6,0-0.9,0l0,0
			c-0.2,0-0.3,0.1-0.5,0.3c0,0.1-0.1,0.1-0.1,0.2c-0.1,0.1-0.1,0.2-0.2,0.2l0,0c0,0-0.1,0-0.1,0l0,0c-0.4-0.1-0.7-0.1-1.1-0.2l0,0
			c-0.5,0-1-0.1-1.4-0.1c-0.5,0-1,0-1.5,0.1l0,0c-0.1,0-0.3,0-0.4,0.1c-0.1,0-0.1,0-0.1-0.1c0,0-0.1-0.1-0.1-0.1l0,0
			C9.8,3.3,9.8,3.2,9.7,3.1l0,0C9.5,3,9.3,2.8,9.1,2.7C8.8,2.7,8.6,2.7,8.3,2.7C8,2.7,7.7,2.8,7.4,2.8C6.8,3,6.1,3.2,5.4,3.5l0,0
			C5.3,3.6,5.1,3.6,5,3.7l0,0C4.8,3.8,4.6,3.9,4.4,4l0,0C4,4.3,3.5,4.6,3.2,5.1l0,0C3,5.4,2.8,5.7,2.6,6.1l0,0
			C2.2,6.9,1.8,7.8,1.5,8.7c-0.4,1-0.7,2.1-0.9,3.2c-0.1,0.4-0.2,0.7-0.2,1.1l0,0c0,0.3-0.1,0.6-0.1,0.9l0,0c0,0.3-0.1,0.5-0.1,0.8
			c0,0.3-0.1,0.7-0.1,1l0,0C0,16.2,0,16.8,0,17.3l0,0c0,0.1,0,0.2,0,0.2l0,0c0,0.1,0,0.1,0,0.2c0,0.2,0.1,0.4,0.3,0.6l0,0
			c0.1,0.1,0.2,0.2,0.3,0.3l0,0c0.1,0.1,0.2,0.1,0.3,0.2c0.5,0.3,0.9,0.7,1.5,1c0.3,0.2,0.7,0.4,1,0.6c0.6,0.3,1.2,0.6,1.8,0.8
			c0.1,0,0.3,0.1,0.4,0.2l0,0c0.2,0.1,0.4,0.1,0.5,0l0,0c0.2,0,0.3-0.1,0.4-0.3l0,0c0.3-0.3,0.5-0.6,0.7-0.9
			c0.1-0.2,0.2-0.3,0.3-0.5c0.1-0.2,0.2-0.4,0.2-0.6l0,0c0-0.3-0.1-0.5-0.3-0.6l0,0c-0.2-0.1-0.5-0.3-0.7-0.4l0,0
			C6.5,18,6.3,17.9,6.2,17.8L6.2,17.8z M15.9,3.5C15.9,3.5,15.9,3.5,15.9,3.5c0.2,0,0.3,0,0.4,0c0.6,0.1,1.2,0.2,1.7,0.4l0,0
			c0.3,0.1,0.7,0.2,1,0.4c0.4,0.2,0.8,0.5,1.1,0.9l0,0c0.2,0.3,0.4,0.5,0.6,0.8l0,0c0.2,0.2,0.3,0.5,0.4,0.7
			c0.4,0.8,0.8,1.7,1.1,2.5l0,0c0.3,0.8,0.5,1.7,0.7,2.6l0,0c0.1,0.6,0.2,1.2,0.3,1.9l0,0c0.1,0.5,0.1,1,0.1,1.5c0,0.3,0,0.6,0,1
			c0,0.4,0,0.9-0.1,1.3l0,0c0,0.1-0.1,0.3-0.2,0.4l0,0c0,0,0,0-0.1,0.1c-0.3,0.2-0.6,0.5-0.9,0.6c-0.5,0.3-1.1,0.7-1.7,0.9
			c-0.6,0.3-1.3,0.6-2,0.8c-0.2,0.1-0.4,0.1-0.7,0.2c-0.1,0-0.3,0-0.4-0.1c0,0,0,0,0,0c-0.1-0.1-0.2-0.2-0.3-0.3
			c-0.1-0.1-0.2-0.3-0.3-0.5l0,0c0-0.1,0-0.1-0.1-0.2c0-0.1,0-0.2-0.1-0.2l0,0c0,0,0-0.1,0-0.2l0,0c0.1,0,0.1-0.1,0.2-0.1l0,0
			c0.3-0.2,0.7-0.4,1.1-0.6l0,0c0.2-0.1,0.3-0.2,0.4-0.2l0,0c0.1-0.1,0.2-0.1,0.2-0.2c0-0.1,0-0.2,0-0.3c-0.1-0.2-0.1-0.3-0.3-0.5
			l0,0c-0.1-0.1-0.3-0.2-0.4-0.1l0,0c-0.1,0-0.2,0.1-0.3,0.1c-0.2,0.1-0.4,0.2-0.7,0.3c-0.3,0.1-0.6,0.2-0.9,0.3
			c-0.5,0.2-1,0.3-1.5,0.4l0,0c-0.5,0.1-1,0.2-1.5,0.2c-0.6,0-1.1,0-1.7,0c-0.6,0-1.3-0.1-1.9-0.3l0,0c-0.6-0.1-1.2-0.3-1.8-0.5
			c-0.4-0.1-0.7-0.3-1.1-0.4l0,0c-0.1,0-0.2-0.1-0.4-0.1l0,0c-0.2,0-0.4,0.1-0.5,0.2l0,0c-0.1,0.1-0.1,0.3-0.1,0.4l0,0
			c0,0.2,0.1,0.3,0.2,0.4l0,0c0.1,0,0.1,0.1,0.2,0.1l0,0c0.4,0.2,0.8,0.5,1.2,0.7v0c0,0.1,0,0.2-0.1,0.3c0,0,0,0.1,0,0.1
			c-0.2,0.4-0.5,0.8-0.8,1.2c-0.1,0.1-0.2,0.1-0.3,0.1l0,0c-0.3-0.1-0.6-0.2-1-0.4c-0.4-0.2-0.8-0.4-1.2-0.6l0,0
			c-0.4-0.2-0.7-0.4-1.1-0.6c-0.5-0.3-0.9-0.6-1.3-0.9C1.1,18.2,1,18.1,0.9,18c-0.1-0.1-0.2-0.1-0.2-0.2c-0.1-0.1-0.1-0.2-0.1-0.3
			l0,0c0-0.3,0-0.6,0-0.8l0,0c0-0.4,0-0.7,0.1-1.1l0,0c0-0.3,0.1-0.6,0.1-0.8c0-0.3,0.1-0.6,0.1-0.9l0,0c0-0.3,0.1-0.5,0.1-0.8l0,0
			c0.1-0.3,0.1-0.7,0.2-1C1.4,11,1.7,9.9,2.1,8.8c0.3-0.8,0.6-1.6,1-2.3c0.2-0.4,0.4-0.8,0.7-1.1C4,5.1,4.3,4.8,4.6,4.6
			c0.3-0.2,0.6-0.3,0.9-0.5l0,0c0.7-0.3,1.3-0.5,2-0.7c0.3-0.1,0.7-0.2,1.1-0.1c0.1,0,0.2,0,0.3,0l0,0c0.2,0,0.3,0.1,0.4,0.2l0,0
			c0.1,0.1,0.2,0.2,0.2,0.3c0.2,0.3,0.4,0.4,0.8,0.4c0.2,0,0.3-0.1,0.5-0.1l0,0C11.3,4,11.8,4,12.3,4l0,0c0.4,0,0.9,0,1.3,0.1l0,0
			c0.2,0,0.3,0,0.5,0.1c0.2,0,0.3,0.1,0.5,0.1l0,0c0.2,0,0.4-0.1,0.5-0.2l0,0c0.1-0.1,0.2-0.2,0.3-0.4c0,0,0-0.1,0.1-0.1l0,0
			c0,0,0.1-0.1,0.1-0.1C15.7,3.5,15.8,3.5,15.9,3.5L15.9,3.5L15.9,3.5L15.9,3.5z"/>
		<path class="st1" d="M17.3,20.8c-0.1-0.1-0.4-0.6-0.5-0.7c-0.1-0.2-0.2-0.3-0.3-0.5c0-0.1-0.1-0.1-0.1-0.2c0-0.1,0-0.2-0.1-0.2
			c0-0.1,0-0.2,0-0.3c0,0,0,0,0-0.1c0.1-0.1,0.1-0.1,0.2-0.1c0.3-0.2,0.7-0.3,1.1-0.5c0.1-0.1,0.6-0.3,0.6-0.4
			c-0.1-0.7-1.1-0.1-1.3,0c-0.3,0.1-0.6,0.2-0.9,0.3c-0.5,0.2-1.1,0.3-1.6,0.4c-0.5,0.1-1,0.2-1.6,0.2c-0.6,0-1.2,0-1.8,0
			c-0.7,0-1.3-0.1-1.9-0.3c-0.6-0.1-1.4-0.3-2-0.5c-0.2-0.1-1.4-0.5-1.5-0.2c0,0.2,1.3,1.1,1.5,1.2c0.1,0,0.1,0.1,0.1,0.1
			c0,0.1-0.1,0.2-0.1,0.4c0,0,0,0.1-0.1,0.1c-0.3,0.4-0.6,1-1,1.4C6.1,21,6,21.1,5.8,21c-0.3-0.1-0.9-0.3-1.2-0.5
			c-0.4-0.2-0.8-0.4-1.2-0.6c-0.4-0.2-0.7-0.4-1.1-0.6C1.9,19,1.4,18.7,1,18.4c-0.1-0.1-0.2-0.1-0.3-0.2c-0.1-0.1-0.2-0.1-0.3-0.2
			c-0.1-0.1-0.1-0.2-0.1-0.4c0-0.3,0-0.6,0-0.8c0-0.4,0.1-1.1,0.1-1.5c0-0.3,0.1-0.6,0.1-0.8c0-0.3,0.1-0.6,0.1-0.9
			c0-0.3,0.1-0.5,0.1-0.8c0.1-0.4,0.1-0.7,0.2-1c0.2-1.1,0.5-2,0.9-3c0.3-0.8,0.6-1.7,1-2.4c0.2-0.4,0.4-0.8,0.7-1.1
			c0.2-0.3,0.5-0.6,0.9-0.8C4.7,4.2,5,4,5.3,3.9C6,3.6,6.9,3.4,7.6,3.2C7.9,3.1,8.3,3,8.7,3c0.1,0,0.2,0,0.3,0
			c0.2,0,0.4,0.1,0.5,0.3c0.1,0.1,0.2,0.2,0.2,0.3c0.2,0.2,0.3,0.2,0.6,0.2c0.2,0,0.2,0,0.4-0.1c0.5-0.1,1-0.1,1.6-0.1
			c0.4,0,0.9,0,1.3,0.1c0.2,0,0.3,0,0.5,0.1c0.2,0,0.3,0.1,0.5,0.1c0.2,0,0.3-0.1,0.4-0.2c0,0,0.3-0.6,0.7-0.6
			c0.5-0.1,1.2,0.4,1.3,0.5c0.2,0.1,0.4,0.2,0.6,0.3c0.4,0.2,0.8,0.5,1.2,0.9c0.2,0.2,0.4,0.3,0.5,0.5c0.1,0.1,0.3,0.3,0.4,0.5
			c0.1,0.2,0.5,0.6,0.6,0.8c0.2,0.3,0.5,0.7,0.7,1.1c0.1,0.2,0.2,0.5,0.3,0.7c0.1,0.2,0.2,0.4,0.2,0.6c0.2,0.5,0.4,1.1,0.5,1.6
			c0,0.2,0.3,0.5,0.4,0.7c0.1,0.3-0.2,0.6-0.1,1c0,0.3,0.1,0.6,0.1,0.8c0,0.1,0,0.2,0,0.2c0,0.1,0,0.2,0,0.3c0,0.1,0,0.2,0,0.4
			c0,0.1,0,0.2,0,0.3c0,0.2,0,0.4,0,0.5c0,0.3,0,0.7,0,1c0,0.2,0,0.4,0,0.6c0,0.1,0,0.3-0.1,0.4c0,0.2-0.1,0.5-0.2,0.7
			c-0.1,0.2-0.2,0.4-0.3,0.6c-0.2,0.3-0.4,0.8-0.6,1c-0.2,0.2-0.3,0.3-0.5,0.4c-0.3,0.2-0.8,0.3-1.1,0.5c-0.3,0.2-0.6,0.3-1,0.4
			c-0.4,0.1-0.7,0.2-1.1,0.3C17.6,20.7,17.4,20.8,17.3,20.8"/>
		<path class="st2" d="M17.3,20.5c0.1,0,0.3-0.1,0.4-0.1c0.4-0.1,0.7-0.1,1.1-0.3c0.3-0.1,0.7-0.2,1-0.4c0.3-0.2,0.6-0.4,0.9-0.6
			c0.2-0.1,0.4-0.3,0.5-0.4c0.2-0.2,0.4-0.5,0.6-0.8c0.1-0.2,0.2-0.4,0.3-0.6c0.1-0.2,0.2-0.5,0.2-0.7c0-0.1,0-0.3,0.1-0.4
			c0-0.2,0-0.4,0-0.6c0-0.3,0-0.7,0-1c0-0.2,0-0.4,0-0.5c0-0.1,0-0.2,0-0.3c0-0.1,0-0.2,0-0.4c0-0.1,0-0.2,0-0.3c0-0.1,0-0.2,0-0.2
			c0-0.3-0.1-0.6-0.1-0.8c-0.1-0.3-0.1-0.7-0.2-1c0-0.2-0.1-0.4-0.1-0.6c-0.1-0.6-0.3-1.1-0.5-1.6c-0.1-0.2-0.2-0.4-0.2-0.6
			C21,8,20.9,7.8,20.7,7.6c-0.2-0.4-0.4-0.7-0.7-1.1C20,6.3,19.8,6.2,19.7,6c-0.1-0.2-0.3-0.3-0.4-0.5C19.1,5.3,19,5.2,18.8,5
			c-0.4-0.3-0.8-0.6-1.2-0.9c-0.2-0.1-0.4-0.2-0.6-0.3c-0.3-0.1-0.5-0.2-0.8-0.3c-0.1,0-0.2-0.1-0.3-0.1c0.2,0,0.3,0,0.5,0
			c0.6,0.1,1.2,0.3,1.8,0.5c0.3,0.1,0.7,0.2,1,0.4c0.4,0.2,0.8,0.5,1.2,0.9c0.2,0.3,0.4,0.5,0.6,0.8c0.2,0.2,0.3,0.5,0.4,0.8
			c0.4,0.8,0.8,1.7,1.1,2.6c0.3,0.9,0.5,1.7,0.7,2.6c0.1,0.6,0.2,1.3,0.3,1.9c0.1,0.5,0.1,1,0.1,1.6c0,0.3,0,0.7,0,1
			c0,0.4,0,0.9-0.1,1.3c0,0.2-0.1,0.3-0.2,0.4c0,0-0.1,0.1-0.1,0.1c-0.3,0.2-0.6,0.5-0.9,0.7c-0.5,0.3-1.1,0.7-1.7,0.9
			c-0.7,0.3-1.3,0.6-2,0.8c-0.2,0.1-0.5,0.1-0.7,0.2C17.6,20.7,17.5,20.7,17.3,20.5"/>
		<path class="st3" d="M10.3,12.7c0,0.4-0.1,0.7-0.2,1.1c-0.1,0.3-0.3,0.6-0.6,0.8C9.2,14.7,9,14.9,8.7,15c-0.3,0.1-0.7,0-1-0.1
			c-0.2-0.1-0.3-0.1-0.5-0.2c-0.3-0.1-0.5-0.3-0.8-0.5c-0.1-0.1-0.2-0.2-0.2-0.4c-0.1-0.3-0.2-0.6-0.3-1c0-0.3,0-0.6,0.1-0.9
			c0.2-0.4,0.5-0.7,0.8-1c0.1-0.1,0.1-0.1,0.2-0.2c0.3-0.3,0.6-0.4,1-0.4c0.2,0,0.4,0,0.5,0c0.2,0.1,0.5,0.2,0.7,0.3
			c0.1,0.1,0.2,0.1,0.2,0.2c0.1,0.1,0.2,0.2,0.3,0.3c0,0,0,0.1,0.1,0.1c0.1,0.2,0.2,0.4,0.3,0.6C10.3,12.2,10.3,12.5,10.3,12.7"/>
		<path class="st3" d="M17.8,12.4c0,0.4-0.1,0.8-0.3,1.1c-0.2,0.5-0.6,0.8-1.1,1.1c-0.2,0.1-0.4,0.1-0.7,0.1
			c-0.6,0.1-1.1-0.1-1.5-0.5c-0.1-0.1-0.1-0.1-0.2-0.2c-0.1-0.2-0.3-0.4-0.4-0.6c-0.1-0.2-0.2-0.5-0.2-0.8c0-0.6,0.1-1.1,0.4-1.5
			c0.1-0.2,0.2-0.3,0.4-0.4c0.5-0.3,0.9-0.4,1.5-0.4c0.6,0,1.1,0.2,1.5,0.7c0.2,0.3,0.4,0.6,0.5,1C17.8,12.2,17.8,12.3,17.8,12.4"/>
		<path class="st4" d="M4.5,5.4c0-0.1,0-0.1,0.1-0.2c0.2-0.3,0.4-0.5,0.6-0.6c0.1-0.1,0.3-0.1,0.4-0.2c0.2-0.1,0.3-0.1,0.5,0
			c0.2,0.1,0.2,0.2,0.1,0.3C6.1,4.8,5.9,4.9,5.8,5C5.5,5.1,5.3,5.2,5,5.4C5,5.4,4.9,5.5,4.8,5.5C4.6,5.6,4.5,5.5,4.5,5.4"/>
		<path class="st4" d="M6.7,4.4c-0.1,0-0.2-0.1-0.2-0.2C6.5,4.1,6.6,4,6.7,4c0.1,0,0.2,0.1,0.2,0.2C6.9,4.3,6.8,4.4,6.7,4.4"/>
		<path class="st0" d="M15.9,3.3c-0.1,0-0.2,0-0.3,0c-0.1,0-0.2,0.1-0.2,0.1c0,0-0.1,0.1-0.1,0.1C15.2,3.8,15.1,3.9,15,4
			c-0.1,0.1-0.3,0.2-0.4,0.2c-0.2,0-0.3,0-0.5-0.1C14,4,13.8,4,13.6,4c-0.4,0-0.9-0.1-1.3-0.1c-0.5,0-1.1,0-1.6,0.1
			C10.5,4,10.4,4,10.2,4c-0.3,0-0.5-0.1-0.6-0.3C9.5,3.6,9.4,3.5,9.3,3.4C9.2,3.3,9.1,3.2,8.9,3.2c-0.1,0-0.2,0-0.3,0
			c-0.4,0-0.7,0.1-1.1,0.2C6.8,3.5,6.1,3.7,5.4,4C5.1,4.1,4.8,4.3,4.5,4.5C4.2,4.7,3.9,5,3.6,5.3C3.4,5.6,3.1,6,3,6.4
			C2.6,7.2,2.3,8,2,8.8c-0.4,1.1-0.7,2.2-0.9,3.3c-0.1,0.3-0.2,0.7-0.2,1c0,0.3-0.1,0.5-0.1,0.8c0,0.3-0.1,0.6-0.1,0.9
			c0,0.3-0.1,0.6-0.1,0.8c0,0.4-0.1,0.7-0.1,1.1c0,0.3,0,0.6,0,0.8c0,0.1,0,0.3,0.1,0.4c0.1,0.1,0.2,0.1,0.3,0.2
			c0.1,0.1,0.2,0.1,0.3,0.2C1.6,18.7,2,19,2.5,19.2c0.4,0.2,0.7,0.4,1.1,0.6c0.4,0.2,0.8,0.4,1.2,0.6c0.3,0.1,0.6,0.2,1,0.4
			c0.2,0.1,0.3,0,0.5-0.1c0.3-0.4,0.6-0.8,0.8-1.2c0,0,0-0.1,0.1-0.1c0-0.1,0.1-0.2,0.1-0.4c0-0.1,0-0.1-0.1-0.1
			c-0.4-0.2-0.8-0.5-1.2-0.7c-0.1,0-0.1-0.1-0.2-0.1c-0.1-0.1-0.1-0.1-0.1-0.3c0-0.1,0-0.2,0.1-0.3c0.1-0.1,0.2-0.2,0.4-0.2
			c0.1,0,0.2,0,0.3,0.1c0.4,0.1,0.7,0.3,1.1,0.4c0.6,0.2,1.2,0.4,1.8,0.5c0.6,0.1,1.3,0.2,1.9,0.3c0.6,0,1.2,0,1.7,0
			c0.5,0,1-0.1,1.6-0.2c0.5-0.1,1-0.2,1.5-0.4c0.3-0.1,0.6-0.2,0.9-0.3c0.2-0.1,0.4-0.2,0.7-0.3c0.1-0.1,0.2-0.1,0.3-0.1
			c0.1,0,0.2,0,0.3,0.1c0.1,0.1,0.2,0.2,0.2,0.4c0,0.1,0,0.2-0.1,0.3c-0.1,0.1-0.3,0.2-0.4,0.2c-0.4,0.2-0.7,0.4-1.1,0.6
			c-0.1,0-0.1,0.1-0.2,0.1c0,0,0,0,0,0.1c0,0.1,0,0.2,0,0.3c0,0.1,0.1,0.1,0.1,0.2c0,0.1,0,0.1,0.1,0.2c0.1,0.2,0.2,0.3,0.3,0.5
			c0.1,0.1,0.2,0.2,0.3,0.3c0.1,0.1,0.3,0.2,0.5,0.1c0.2,0,0.5-0.1,0.7-0.2c0.7-0.2,1.4-0.5,2-0.8c0.6-0.3,1.1-0.6,1.7-0.9
			c0.3-0.2,0.6-0.4,0.9-0.7c0,0,0.1-0.1,0.1-0.1c0.1-0.1,0.1-0.3,0.2-0.4c0.1-0.4,0.1-0.9,0.1-1.3c0-0.3,0-0.7,0-1
			c0-0.5-0.1-1-0.1-1.6c-0.1-0.6-0.2-1.3-0.3-1.9c-0.2-0.9-0.4-1.8-0.7-2.6c-0.3-0.9-0.6-1.7-1.1-2.6c-0.1-0.3-0.3-0.5-0.4-0.8
			c-0.2-0.3-0.4-0.6-0.6-0.8c-0.3-0.4-0.7-0.7-1.2-0.9c-0.3-0.2-0.7-0.3-1-0.4c-0.6-0.2-1.2-0.4-1.8-0.5C16.2,3.3,16,3.3,15.9,3.3
			 M23.8,16.1c0,0.3,0,0.7,0,1c0,0.2-0.1,0.5-0.1,0.7c-0.1,0.3-0.2,0.5-0.4,0.6c0,0,0,0,0,0c-0.5,0.4-1,0.7-1.6,1.1
			c-0.9,0.5-1.9,0.9-2.9,1.2c-0.3,0.1-0.6,0.2-0.9,0.2c-0.3,0-0.5,0-0.7-0.2c-0.2-0.2-0.4-0.4-0.5-0.7c-0.1-0.2-0.2-0.5-0.3-0.7
			c0-0.1,0-0.2,0-0.3c0-0.1,0-0.2,0.1-0.2c0.1-0.1,0.2-0.2,0.3-0.2c0.4-0.2,0.7-0.4,1.1-0.6c0.1-0.1,0.2-0.1,0.3-0.2c0,0,0,0,0-0.1
			c0,0-0.1-0.1-0.1-0.1c0,0-0.1-0.1-0.1,0c-0.1,0-0.1,0.1-0.2,0.1c-0.2,0.1-0.5,0.2-0.7,0.3c-0.3,0.1-0.6,0.2-0.9,0.3
			c-0.5,0.1-1,0.3-1.5,0.4c-0.4,0.1-0.8,0.1-1.2,0.2c-0.6,0.1-1.1,0.1-1.7,0c-0.7,0-1.5-0.1-2.2-0.2c-0.7-0.1-1.5-0.3-2.2-0.6
			C7,18,6.7,17.9,6.3,17.7c-0.1,0-0.2-0.1-0.3-0.1c-0.1,0-0.2,0.1-0.1,0.2c0,0,0,0,0.1,0.1c0.2,0.1,0.4,0.2,0.6,0.3
			c0.2,0.1,0.5,0.3,0.7,0.4c0.2,0.1,0.3,0.3,0.3,0.5c0,0.2-0.1,0.4-0.2,0.5c-0.1,0.2-0.2,0.3-0.3,0.5c-0.2,0.3-0.4,0.6-0.7,0.9
			c-0.1,0.1-0.2,0.2-0.3,0.2c-0.2,0-0.3,0-0.4,0C5.5,21.1,5.4,21,5.3,21c-0.6-0.2-1.2-0.5-1.8-0.8c-0.3-0.2-0.7-0.4-1-0.6
			c-0.5-0.3-1-0.6-1.4-0.9c-0.1-0.1-0.2-0.1-0.3-0.2c-0.1-0.1-0.2-0.1-0.3-0.2c-0.1-0.1-0.2-0.3-0.3-0.5c0,0,0-0.1,0-0.1
			c0-0.1,0-0.2,0-0.3c0-0.5,0-1.1,0.1-1.6c0-0.3,0.1-0.7,0.1-1c0-0.3,0.1-0.5,0.1-0.8c0-0.3,0.1-0.6,0.1-0.9
			c0.1-0.4,0.1-0.7,0.2-1.1C1,10.8,1.3,9.8,1.7,8.7C2,7.8,2.3,7,2.7,6.2c0.2-0.3,0.4-0.7,0.6-1C3.6,4.7,4,4.4,4.5,4.1
			C4.7,4,4.9,3.9,5,3.8c0.2-0.1,0.3-0.1,0.5-0.2c0.6-0.3,1.3-0.5,2-0.6c0.3-0.1,0.6-0.1,0.9-0.1c0.2,0,0.4,0,0.7,0.1
			c0.2,0,0.4,0.2,0.5,0.3c0.1,0.1,0.1,0.2,0.2,0.2c0,0,0.1,0.1,0.1,0.1c0.1,0.1,0.2,0.1,0.3,0.1c0.1,0,0.3,0,0.4-0.1
			c0.5-0.1,1-0.1,1.5-0.1c0.5,0,1,0,1.4,0.1c0.4,0,0.7,0.1,1.1,0.2c0.1,0,0.2,0,0.2-0.1C14.9,3.7,15,3.6,15,3.5
			c0-0.1,0.1-0.1,0.1-0.2c0.1-0.1,0.2-0.2,0.4-0.2C15.8,3,16.1,3,16.3,3c0.7,0.1,1.3,0.3,2,0.5c0.3,0.1,0.6,0.2,0.9,0.4
			c0.5,0.3,1,0.6,1.3,1.1c0.1,0.2,0.3,0.3,0.4,0.5c0.3,0.4,0.5,0.8,0.7,1.2c0.5,1,0.9,2.1,1.2,3.2c0.2,0.7,0.3,1.3,0.5,2
			c0.1,0.6,0.2,1.2,0.3,1.8c0,0.3,0.1,0.6,0.1,0.9c0,0.3,0,0.6,0.1,0.9C23.8,15.6,23.8,15.8,23.8,16.1"/>
	</g>
</g>
</svg>
