<?xml version="1.0" encoding="UTF-8"?>
<svg enable-background="new 0 0 150 150" version="1.1" viewBox="0 0 150 150" xml:space="preserve" xmlns="http://www.w3.org/2000/svg">
	<circle cx="76" cy="76.3" r="55.5" fill="#3A0E0E" opacity=".5"/>
	<g fill="#E74241">
		<path d="m19.1 86.9-6.4 8.3 10.1 3-4.5 9.5 10.5 0.9-2.4 10.2 10.4-1.3-0.2 10.5 8.7-3 1.2-0.4 1.9 10.3 9-5.5 4 9.7 7.6-7.2 6 8.6 6-8.6 7.6 7.2 4-9.7 9 5.5 1.9-10.3 9.3 3.3h0.6l-0.2-6.6c-0.2 0-0.3-0.1-0.5-0.1 0.2-0.7 0.1-0.2 0.5-0.5l-0.1-3 10.4 1.3-2.4-10.2 8.1-0.7h0.1l2.2-0.2v-0.1l-4.4-9.4 10.1-3-6.4-8.3 9.2-5-8-6.8 8-6.8-9.2-5 6.4-8.3-1-0.3v0.2h-0.2c-0.2 0.2 0 0.1-0.3 0.2v-0.3h0.5l-9-2.7 4.5-9.5-10.5-0.9 1.8-7.7h-1v-0.2c-0.6 0-1.8 0.1-2.1-0.2h0.5l0.2-0.3h0.2v0.3h0.5v-0.3c0.5-0.1 1-0.1 1.5-0.2v-0.2h0.5l0.5-1.9-10.4 1.3 0.2-10.5-9.9 3.5-1.9-10.3-9 5.5-4-9.7-1.3 1.3c0.4 0.1 0.4 0.2 0.7 0.3l-0.2 0.5c0.6 0.1 0.9 0.3 1 0.8 0.5 0.1 0.6 0.2 0.7 0.8h0.3v0.3c-0.8 0.1-0.8 0.2-1.5 0h-0.8c-0.4-0.1-0.7-0.4-1.2-0.5-0.1-0.2-0.1-0.4-0.2-0.7h-0.3v-0.3l-5 4.7-1.9-2.7c-0.2 0.2-0.3 0.4-0.6 0.5v-1.3l-0.1-0.2v-0.1l-3-4.3v0.1h-0.2v0.2c-0.2-0.2-0.1 0-0.2-0.3h0.3l-0.3-0.5-5.2 7.5c0.2 0.1 0.3 0.1 0.5 0.2v0.5h0.3c0 0.4-0.1 0.6-0.2 0.8 0.1-0.1 0.2-0.1 0.3-0.2v0.3c0.2 0.1 0.3 0.1 0.5 0.2-0.1 0.1-0.1 0.2-0.2 0.3 0.1 0.1 0.2 0.1 0.3 0.2v0.5l0.3 0.3h-0.3v0.2l-1-0.2v-0.2c0.2-0.2 0.1 0 0.2-0.3-0.2 0.1-0.3 0.1-0.5 0.2v-0.2c-0.5-0.3-0.6-0.7-1.2-0.8v-0.3c-0.6-0.2-0.6-0.5-1-0.8v-0.2h-0.5c-0.1-0.3-0.1-0.5-0.2-0.8-0.4-0.1-0.3-0.1-0.5-0.3h0.3l-5.5-5.5-4 9.7-9-5.5-1.9 10.3-9.9-3.5 0.2 10.5-10.4-1.3 2.4 10.2-10.5 0.9 4.5 9.5-10.1 3 6.4 8.3-9.2 5 8 6.8-8 6.8 9.2 5.2zm39.6-61.5v-0.4h-0.2v-0.2h1.3c0 0.1 0.1 0.2 0.1 0.2 4.7-1.4 9.8-2.2 15-2.2 13 0 24.9 4.8 34 12.7h0.1v-0.2c2.4-0.3 4.7-0.7 7.1-1v0.3c-0.3 0-0.3 0.2-0.3 0.2h-0.8v0.2h-1.5v0.2h-0.5v0.2c-0.2-0.1-0.4-0.1-0.7-0.2-0.1 0.1-0.1 0.2-0.2 0.3l-1-0.2v0.2c-0.2 0.1-0.3 0.1-0.5 0.2 0 0-0.2-0.3-0.5-0.2v0.2h-0.5v0.2h-0.2c10.8 9.6 17.7 23.5 17.7 39.1 0 12.9-4.7 24.8-12.5 33.9h0.8v0.2h0.3c0.1 0.1 0.1 0.2 0.2 0.3 0.1 0 0.5 0.1 0.7 0.2v0.2l-0.8 0.2v0.2c-0.6 0.1-1.1 0.1-1.6 0.2v0.2h-0.3v0.2h-0.6c-9.5 10.2-23.1 16.6-38.2 16.6-28.8 0-52.2-23.4-52.2-52.2-0.1-23.3 15-42.9 35.8-49.8z"/>
		<path d="m72.3 118.9h0.5c0.4-0.4 1.1-0.1 1.6-0.3v-0.2c0.4-0.1 0.8-0.1 1.2-0.2v-0.1h-18.8v1h14.8 0.2 0.3c-0.2-0.1 0.2-0.2 0.2-0.2z"/>
		<path d="m66.5 123.5c0-0.1-0.1-0.1-0.1-0.1h-1.4l0.1 0.1c-0.1 0.2-0.1 0.3-0.2 0.5h21.7v-0.6h-19.7c0.1 0.1-0.4 0.1-0.4 0.1z"/>
		<path d="m50.3 114.2h4.4v-0.3h0.5v-0.3c0.5-0.1 0.7-0.4 1.1-0.6h-6.1v1.2z"/>
		<path d="m82.3 118.4v-0.2h-0.2v0.2h-0.7v-0.3c-0.2 0.1-0.2 0.2-0.6 0.3v0.5h-0.2v-0.3h-0.8v0.2h0.5v0.2c-0.5 0-1 0.1-1.4 0.2h14.3v-1h-10.7c0.1 0.2 0.2 0.1-0.2 0.2z"/>
		<path d="m61.9 113.2h-0.2v-0.3h-0.5v0.8h-0.2v0.2c-0.3-0.1-0.1 0-0.3-0.2h0.3v-0.7c-0.2 0.1-0.3 0.1-0.5 0.2 0 0.4-0.1 0.6-0.2 0.8-0.4-0.1-2.2-0.5-2.8-0.3v0.2h-0.3v0.2h-0.7v0.2h-0.2 34.3v-0.3h0.8l0.2-0.3c0.5-0.1 1-0.1 1.5-0.2v-0.2h0.5v-0.2h0.7v-0.1h0.8s0-0.1 0.1-0.1h-33.5c0.2 0.1 0.1 0 0.2 0.3z"/>
		<path d="m98 37.3v0.2l-0.8 0.2c0.1-0.4 0.2-0.5 0.5-0.5l-22.9-10.8-15.8 7.5h0.4c0.9-0.3 1.9-0.5 3.1-0.5 0.1 0.4 0.2 0.7 0.2 1.3-0.2 0.2-0.1 0.1-0.1 0.2l12.2-4.8 19.2 7.6 11.8 4.7h-30.6c0.1 0.2 0.2 0.4 0.2 0.8h-0.2c-0.1-0.2 0 0-0.2-0.2l-0.3-0.6h-31l18.4-7.3c-0.9 0.1-1.6 0.5-2.2 0.8h-0.7v0.1h-0.5v0.2h-0.3v0.2l-1.2 0.2v0.2h-0.5v0.2h-1v0.2h-0.3v0.2c-0.5 0.1-1.1 0.2-1.6 0.3v-0.2h-0.2l-0.1 0.5c-0.3-0.2-1-0.1-1.5 0v0.2c-0.2 0-0.2-0.5-0.3-0.3v0.3c-0.8 0.1-0.4 0.2-0.8 0.5v0.2h-0.9v0.1c-0.2 0.1-0.4 0.1-0.7 0.2-0.1-0.2-0.1-0.4-0.2-0.6l-10 4.8h71.6l-12.7-6.1z"/>
		<path d="m96.6 37.7c-0.6 0.1-1.1 0.2-2.1 0.2v-0.3c0.7-0.1 1.4-0.1 2.1-0.2v0.3z"/>
		<path d="m57.9 102.9h0.2v0.2h0.2l0.2 0.8h0.2v0.4h54.1v-2h-3.6c0.1 0 0.2 0.1 0.3 0.1v0.2h-0.2v0.2h-0.3v-0.5h-71.6v2h20.9c-0.2-0.4-0.4-0.8-0.4-1.4z"/>
		<path d="m92.4 107.7h0.2v0.2h-0.2c-0.1 0.1 0 0.3-0.3 0.2v-0.2c-0.2-0.2-0.1 0-0.2-0.3h-32v0.3c0.3 0.2 0.3 0.3 0.3 0.8h-0.2c-0.1-0.3-0.1-0.6-0.2-0.8h-0.2v-0.3h-15.8v1.7h16.5c-0.2-0.2-0.1 0-0.2-0.3 0.3 0.2 0.2 0.1 0.3 0.4h45.6v-1.7h-13.7c0-0.1 0 0 0.1 0z"/>
		<path d="m43.5 62.8c0.2 0.1 0.4 0.5 0.8 1.3 0.3 0.8 0.6 1.6 0.7 2.3 0.1 0.3 0.2 0.7 0.4 1s0.5 0.6 0.7 0.7c0.2 0.2 0.4 0.3 0.5 0.5s0.1 0.3 0 0.4-0.5 0.2-1 0.3-1.2 0.2-2.2 0.3c-0.4 0.1-0.6 0-0.7-0.3s-0.1-1.2-0.2-2.7c-0.1-2 0-3.2 0.3-3.5s0.5-0.4 0.7-0.3zm2.2-10.9c0.6-0.2 1-0.3 1.1-0.2s0.2 0.6 0.2 1.4c0 0.9 0.1 1.6 0.4 2.1s0.6 0.9 1 1 0.8 0.3 1.3 0.4c0.5 0.2 0.8 0.3 1 0.5s0.6 0.3 1.3 0.3c0.5 0 1.2 0.3 2.1 1s1.4 1.2 1.4 1.5c0 0.2 0.2 0.5 0.5 0.8s0.5 1.2 0.5 2.7c0 1.4-0.2 2.5-0.6 3.3-0.4 0.7-1.1 1.5-2.2 2.2-0.6 0.4-1.2 0.7-1.9 0.9-0.6 0.2-1.1 0.2-1.5 0.2s-0.6-0.3-0.6-0.7c0-0.2 0.2-0.5 0.5-0.8s0.6-0.5 0.9-0.7 0.5-0.5 0.7-1c0.2-0.4 0.1-0.9-0.2-1.5-0.2-0.4-0.6-0.8-1.1-1.2-0.5-0.3-1.5-0.8-2.7-1.4-2-0.9-3.4-2-4.2-3.4s-0.8-2.9-0.2-4.4c0.7-1.6 1.4-2.6 2.3-3zm1-1.2c0-0.3 0.2-0.5 0.7-0.6 0.4-0.1 0.7 0 0.7 0.4 0 0.1-0.2 0.2-0.4 0.3s-0.4 0.1-0.7 0.1c-0.2 0-0.3-0.1-0.3-0.2zm6.7 0.2c0.5 0 0.9-0.1 1.2-0.3s0.5-0.3 0.7-0.4c0.1-0.1 0.2-0.2 0.4-0.1s0.3 1.2 0.3 3.3c0 2-0.1 3.1-0.3 3.3-0.4 0.2-0.7 0.1-1-0.5s-0.6-1.4-0.8-2.3c-0.3-0.9-0.5-1.5-0.8-1.8-0.5-0.4-0.7-0.7-0.6-0.9-0.1-0.2 0.3-0.3 0.9-0.3z"/>
		<path d="m64.2 51.3c0.6-0.3 0.8-0.3 0.8 0 0 0.2-0.2 0.5-0.6 0.9-0.2 0.2-0.4 0.5-0.5 0.6-0.1 0.2-0.1 0.4-0.2 0.6s-0.1 0.6 0 1c0 0.5 0.1 1 0.1 1.6s0.1 1.5 0.2 2.8 0.1 2.6 0.2 4c0.1 2.9 0.3 4.6 0.7 5.2 0.7 1 0.6 1.6-0.2 1.8-1 0.2-2.2-0.3-3.5-1.3-0.3-0.2-0.6-0.4-0.8-0.7-0.8-0.8-1.3-1.5-1.7-2.3-0.3-0.7-0.6-1.8-0.8-3.2-0.3-2-0.2-4.1 0.4-6.2 0.3-1 1-2 2.2-3.2 1.2-1.1 2.1-1.6 2.8-1.5 0.1 0.2 0.5 0.1 0.9-0.1zm3-0.1c0.2 0 0.3 0 0.5 0.1s0.3 0.2 0.4 0.3l0.2 0.2h0.1v-0.5c0-0.4 0-0.6 0.1-0.6s0.2 0.1 0.5 0.3c0.2 0.1 0.3 0.2 0.4 0.3s0.3 0.2 0.5 0.3 0.5 0.2 0.7 0.4c0.6 0.2 1.2 0.8 2 1.7 0.7 0.9 1.2 1.7 1.4 2.4 0.4 1.5 0.5 3.4 0.3 5.7s-0.6 3.8-1.2 4.4c-0.2 0.2-0.4 0.5-0.4 0.7s-0.4 0.7-1.2 1.3-1.5 1.1-2.2 1.4c-0.6 0.3-1.2 0.4-1.6 0.4-0.5 0-0.7-0.2-0.8-0.5s0-0.7 0.3-1.2c0.4-0.6 0.7-2.9 0.9-6.9 0.2-4.1 0.4-6.5 0.7-7.3 0.1-0.4 0.2-0.8 0.2-1 0.1-0.2 0.1-0.4 0.1-0.5s0-0.2-0.1-0.3h-0.3c-0.2 0-0.3 0.2-0.3 0.5s-0.1 0.5-0.3 0.5-0.3-0.1-0.3-0.4c0-0.2-0.2-0.6-0.7-1.2-0.2-0.3-0.1-0.5 0.1-0.5z"/>
		<path d="m75.5 50.9c0.2-0.3 1.7-0.4 4.5-0.4s4.3 0.2 4.6 0.4c0.2 0.2 0 0.6-0.6 1.1l-0.9 0.7-0.1 5.9c-0.1 3.2-0.1 5.4-0.3 6.7-0.1 1.3-0.3 2.3-0.6 3-0.2 0.4-0.4 0.6-0.5 0.7-0.2 0.1-0.6 0.1-1.2 0-0.9-0.2-1.7-0.3-2.3-0.6-0.4-0.2-0.7-0.3-0.7-0.5-0.2-0.4-0.4-3.1-0.6-8.1 0-1.4-0.1-2.3-0.1-2.7-0.1-2-0.1-3.2-0.2-3.8s-0.3-1-0.6-1.4c-0.6-0.4-0.7-0.8-0.4-1zm2 18.7c-0.4 0-0.7-0.1-0.7-0.3s0.2-0.3 0.7-0.3 0.7 0.1 0.7 0.3-0.2 0.3-0.7 0.3zm6.5-1.4c0.3-0.3 0.6-0.3 0.8 0 0.2 0.2 0.1 0.5-0.3 0.6-0.2 0.1-0.5 0.1-0.6-0.1s-0.1-0.4 0.1-0.5zm3.4-2.1c0-0.4 0.1-0.9 0.4-1.4 0.2-0.5 0.4-0.9 0.4-1 0.2-0.7 0.6-0.7 1.1-0.2 0.3 0.3 0.4 1.3 0.4 2.9 0 1.7-0.2 2.6-0.5 2.9-0.3 0.2-0.9 0.3-1.9 0.3-0.6 0-1-0.1-1.2-0.2s-0.2-0.3-0.2-0.6 0.3-0.7 0.7-1.3c0.5-0.6 0.8-1.1 0.8-1.4z"/>
		<path d="m94.7 50.4 3.4 0.1 0.1 2.6c0.1 1.5 0 3.4-0.3 5.9-0.2 2.5-0.4 4.3-0.5 5.5-0.1 2.8-0.7 4.3-1.7 4.5-0.5 0.1-0.7 0.2-0.7 0.4 0 0.1-0.3 0.2-1 0.2h-2c-0.7 0-1.1-0.1-1.1-0.3-0.1-0.2 0-0.4 0.3-0.6 0.2-0.2 0.4-0.8 0.4-1.8 0.1-1 0.1-3.1 0.1-6.4 0-3.8 0-6-0.1-6.8s-0.3-1.3-0.6-1.7c-0.3-0.3-0.5-0.5-0.5-0.7s0-0.3 0.2-0.6c0.2-0.2 0.5-0.4 1-0.4 0.6 0 1.6 0 3 0.1zm2.9 17.5c0.1-0.4 0.3-0.6 0.5-0.6s0.3 0.2 0.3 0.7-0.1 0.7-0.3 0.8c-0.1 0.1-0.2 0.1-0.3 0s-0.2-0.2-0.2-0.3c-0.1-0.2-0.1-0.4 0-0.6zm4.1-16.1c0.3-0.2 0.7-0.2 1-0.2s0.5 0.1 0.5 0.3c0 0.1 0.2 0.3 0.5 0.5s0.8 0.6 1.3 1.1c0.6 0.5 1 1.1 1.4 1.8 0.4 0.8 0.7 1.4 0.8 1.9s0.2 1.4 0.2 2.8c0 1.3-0.1 2.2-0.2 2.8s-0.3 1.3-0.7 2.1c-0.5 1.1-1.3 2.2-2.4 3.2s-2.1 1.5-3 1.7c-1.1 0.2-1.7 0.1-1.9-0.2s0-0.8 0.8-1.5c0.3-0.3 0.6-0.7 0.7-1 0.1-0.4 0.2-0.8 0.2-1.3s0-1.5 0.1-3 0.2-3.3 0.4-5.1c0.1-0.8 0.1-1.6 0.2-2.3v-1.7c0-0.4-0.1-0.7-0.1-1s0-0.5 0-0.6c0.1-0.2 0.1-0.3 0.2-0.3z"/>
		<path d="m55.6 79.3c0.6-0.3 0.8-0.3 0.8 0 0 0.2-0.2 0.5-0.6 0.9-0.2 0.2-0.4 0.5-0.5 0.6-0.1 0.2-0.1 0.4-0.2 0.6s-0.1 0.6 0 1c0 0.5 0.1 1 0.1 1.6s0.1 1.5 0.2 2.8 0.1 2.6 0.2 4c0.1 2.9 0.3 4.6 0.7 5.2 0.7 1 0.6 1.6-0.2 1.8-1 0.2-2.2-0.3-3.5-1.3-0.3-0.2-0.6-0.4-0.8-0.7-0.8-0.8-1.3-1.5-1.7-2.3-0.3-0.7-0.6-1.8-0.8-3.2-0.3-2-0.2-4.1 0.4-6.2 0.3-1 1-2 2.2-3.2 1.2-1.1 2.1-1.6 2.8-1.5 0.1 0.2 0.5 0.1 0.9-0.1zm3.1-0.1c0.2 0 0.3 0 0.5 0.1s0.3 0.2 0.4 0.3l0.2 0.2h0.1v-0.5c0-0.4 0-0.6 0.1-0.6s0.2 0.1 0.5 0.3c0.2 0.1 0.3 0.2 0.4 0.3s0.3 0.2 0.5 0.3 0.4 0.2 0.7 0.4c0.6 0.2 1.2 0.8 2 1.7 0.7 0.9 1.2 1.7 1.4 2.4 0.4 1.5 0.5 3.4 0.3 5.7s-0.6 3.8-1.2 4.4c-0.2 0.2-0.4 0.5-0.4 0.7s-0.4 0.7-1.2 1.3-1.5 1.1-2.2 1.4c-0.6 0.3-1.2 0.4-1.6 0.4-0.5 0-0.7-0.2-0.8-0.5s0-0.7 0.3-1.2c0.4-0.6 0.7-2.9 0.9-6.9 0.2-4.1 0.4-6.5 0.7-7.3 0.1-0.4 0.2-0.8 0.2-1 0.1-0.2 0.1-0.4 0.1-0.5s0-0.2-0.1-0.3h-0.3c-0.2 0-0.3 0.2-0.3 0.5s-0.1 0.5-0.3 0.5-0.3-0.1-0.3-0.4c0-0.2-0.2-0.6-0.7-1.2-0.2-0.3-0.2-0.5 0.1-0.5z"/>
		<path d="m66.8 78.8c0.1-0.3 1.5-0.5 4-0.6 3.2-0.1 4.9 0.2 4.9 0.9 0 0.2-0.2 0.5-0.6 0.7-0.3 0.3-0.6 0.7-0.7 1.1-0.1 0.5-0.2 1.7-0.2 3.7 0 1.6-0.1 3.1-0.2 4.3s-0.2 2-0.3 2.5c-0.1 0.4-0.1 0.8-0.1 1.1s0.1 0.7 0.3 1c0.2 0.5 0.2 0.8-0.1 1s-0.2 0.6 0.2 1.1c0.3 0.5 0.4 0.9 0.3 1.1s-0.5 0.4-1.3 0.6c-0.4 0.1-0.8 0-1.1-0.1s-0.9-0.5-1.5-1c-0.3-0.2-0.5-0.4-0.7-0.5s-0.3-0.3-0.5-0.6-0.3-0.4-0.4-0.5-0.1-0.3-0.3-0.7c-0.1-0.4-0.2-0.7-0.2-0.9v-1.3-1.7-2.3-0.9-6.1l-0.8-0.7c-0.6-0.5-0.8-0.8-0.7-1.2zm8.1 17.8c0-0.1 0.1-0.2 0.2-0.3h0.5s0.3 0.1 0.4 0.3c0.2 0.3 0.2 0.5 0 0.7s-0.4 0.1-0.7-0.1c-0.2-0.2-0.4-0.4-0.4-0.6zm3.9-17.8c0.3-0.3 1.2-0.5 2.8-0.5 1.5 0 2.3 0.1 2.6 0.4s0 0.8-0.8 1.7l-1 1.1-0.1 5.4c-0.1 3.6-0.3 5.8-0.7 6.6-0.1 0.3-0.3 0.6-0.5 0.8s-0.3 0.3-0.4 0.3c-0.2-0.1-0.2-0.4 0.2-1 0.2-0.3 0.3-0.6 0.3-0.8s0-0.5-0.1-0.9c-0.1-0.3-0.2-1.1-0.3-2.2s-0.2-2.5-0.2-4.1v-4.3l-1.2-1c-0.5-0.4-0.8-0.7-0.9-0.9 0.1-0.2 0.1-0.4 0.3-0.6z"/>
		<path d="m85.4 79.3c0.2-0.3 0.7-0.4 1.3-0.3 0.7 0.1 1.1 0.3 1.3 0.5 0.1 0.1 0.1 0.5 0 1s-0.4 1.2-0.6 2c-0.3 0.7-0.4 1.3-0.4 1.7-0.1 0.6-0.3 0.8-0.7 0.8-0.3 0-0.5-0.1-0.6-0.4s-0.1-1-0.2-2.2c-0.3-1.7-0.2-2.8-0.1-3.1zm4.9-0.8c0.2-0.2 1.1-0.3 2.9-0.2 1.7 0 2.6 0.1 2.7 0.3 0.2 0.2 0.2 1.6 0.2 4.1s-0.1 4.3-0.3 5.5c-0.1 0.7-0.1 1.2-0.1 1.6s0.1 0.6 0.2 0.7 0.1 0.2 0.1 0.3 0 0.2-0.2 0.3c-0.2 0.2-0.3 0.6-0.4 1.1s-0.2 1-0.2 1.4 0.1 0.6 0.2 0.7c0.2 0 0.3-0.1 0.3-0.3s0.1-0.3 0.4-0.3c0.2 0 0.3 0.5 0.3 1.4-0.1 0.7-0.1 1 0 1.2 0.1 0.1 0.3 0.2 0.6 0.1 0.3 0 0.5 0 0.6 0.1s0.1 0.3 0.1 0.7 0 0.6-0.1 0.7-0.2 0.1-0.4-0.1c-0.4-0.2-1.2-0.2-2.4-0.2s-2.5 0.1-3.8 0.3c-0.9 0.1-1.5 0.2-1.8 0.1-0.2 0-0.4-0.2-0.5-0.5-0.2-0.4 0.1-0.8 0.7-1.2l0.9-0.7v-8.4c-0.1-5.7-0.1-8.6 0-8.7zm7.6 0c0.1-0.1 0.6-0.2 1.3-0.2s1.2 0 1.6 0.2c0.3 0.2 0.4 0.8 0.3 1.7s-0.3 1.4-0.5 1.6-0.3 0.5-0.3 0.8c0 0.5-0.1 0.8-0.3 0.8s-0.4-0.2-0.6-0.7c-0.2-0.6-0.5-1.1-1-1.7-0.3-0.4-0.5-0.9-0.6-1.4s-0.1-0.9 0.1-1.1z"/>
	</g>
</svg>
