<?xml version="1.0" encoding="UTF-8"?>
<svg enable-background="new 0 0 150 150" version="1.1" viewBox="0 0 150 150" xml:space="preserve" xmlns="http://www.w3.org/2000/svg">
	<path d="M147.7,56.6h-11.2c-7.9-26.5-32.5-45.9-61.5-45.9S21.4,30.1,13.5,56.6H3.2v35.9h10   c7.6,27,32.4,46.7,61.8,46.7s54.2-19.8,61.8-46.7h10.9V56.6z" fill="#5A2706" opacity=".5"/>
	<path d="m34.1 27.7c-0.1-0.1 0-0.1 0.1-0.2h0.1c0 0.1-0.1 0.2-0.2 0.2zm40.3 78.7c-0.1 0.2-0.1 0.5-0.2 0.9l1.8 1.8 5.1-5.2h0.1c0-0.2 0.1-0.5 0.1-0.8l-0.4-0.2-4 4c-0.2 0.5-0.3 0.5-0.4 0.4l-0.5 0.5-0.6-0.6c-0.3 0.6-0.3 0.1-0.4-0.3l-0.6-0.5zm12.8 24.2c-0.1 0 0.1-0.2 0.1-0.1 0.2 0 0 0.1 0.2 0.1 0.3 0 0.5-0.1 0.7 0-0.1 0.1 0.1 0.1 0.1 0.2 0.2 0 0.1-0.2 0.3-0.2-0.1 0-0.1 0-0.2-0.1 0.1 0 0.1-0.1 0.3-0.1-0.1 0.1 0 0.1 0 0.2 0.3 0.1 0.4 0 0.8 0 0.1-0.2-0.2 0.1-0.2-0.1 0.3 0 0.2-0.1 0.1-0.1 0.1 0 0.1-0.1 0.2 0 0 0.1-0.1 0.1-0.1 0.2h0.2c0-0.2-0.1-0.2-0.2-0.3 0.3 0 0.4-0.1 0.5-0.2 0 0 0.1 0 0.1-0.1-0.3-0.1-0.2 0.1-0.5 0.1v-0.2c-0.2-0.1-0.4-0.1-0.5 0 0.4-0.2 0.2 0.3 0.2 0.5-0.5 0.1-0.9 0-1.4 0 0-0.1 0.3-0.1 0-0.1-0.1 0.1-0.3 0.4-0.5 0.2 0.1 0 0.1-0.1 0.1-0.1h-1c0.2 0.1 0.3 0.2 0.7 0.2zm20.8-38.1c-0.1 0.2-0.1-0.1 0-0.6h-0.8c-0.1 0.3-0.1 0.6-0.1 0.9h6.7c0.1-0.3 0.1-0.6 0.2-0.9h-5.9c0 0.3 0 0.5-0.1 0.6zm-10.8 14.3c0.1 0.2 0.1 0.3 0.1 0.4 0.1 0.1 0.5 0.6 0.4 0-0.1 0-0.3 0.2-0.4-0.3 0.1 0 0-0.3 0.2-0.1-0.2-0.5-0.4-0.8-0.2-1l-0.4-0.4c0.1 0.5 0.2 0 0.2 0.4 0 0.2 0 0.4 0.2 0.7-0.1-0.1-0.2-0.2-0.3-0.1l-0.1-0.4c-0.2 0.3-0.1 0.3-0.4 0.1 0.1 0.5 0.2 0.6 0.3 0.5 0.1 0 0-0.3 0-0.3 0.2 0.2 0.4 0.9 0.4 0.5zm-11.3 23.4c0 0.1 0 0.1-0.1 0.1-0.4-0.2-0.9-0.1-1.3 0 0 0.2 1.1 0.2 0.9 0 0.2 0.1 0.5 0.1 0.6 0.3 0 0-0.1 0 0 0 0-0.2 0.4-0.2 0.4-0.2h-0.2 0.2c-0.1-0.2-0.2-0.2-0.5-0.2zm61.8-65.4c-0.4 0.1-0.7 0-1.1 0v2.6h0.4c0 0.3-0.2 0.3-0.4 0.3v0.9c0.3 0.1 0.8 0.2 1.1 0.2v-4.2c-0.2 0-0.5 0.1 0 0.2zm-43 28.1c0-0.1 0.1-0.3 0.1-0.4-0.1-0.3-0.2 0-0.3 0.4h-0.4c0-0.8-0.3-0.7-0.6 0h-0.1c0.1-0.3 0.1-0.6 0.1-0.7-0.1 0.2-0.1 0.4-0.2 0.7h-0.1c0.1-0.4 0.2-0.6 0.2-0.8-0.1 0.3-0.2 0.6-0.2 0.8h-0.2v-0.2c0 0.1 0 0.1-0.1 0.2h-0.4v-0.3c0 0.1-0.1 0.2-0.1 0.3h-0.4c0-0.3-0.1-0.2-0.2 0h-1.7v1.2c-0.3 0.6-0.5 0.6-0.8 1.4v-1.8l-29.9 0.1v-0.3c0 0.1 0 0.2-0.1 0.3h-4.1c0-0.2-0.1-0.3-0.1-0.5-0.1 0.3-0.3 0.4-0.5 0.5h-1.7c0-0.1-0.1-0.2-0.1-0.4-0.1 0.6-0.2 0.3-0.6 0.2 0 0 0 0.1 0.1 0.1h-0.9c-0.2-0.2-0.3-0.2-0.2 0h-9v4.4h7.1l2.4 6.6 5.3-1.9c0 0.3 0.1 0.6 0.1 0.8l-1.9 0.7c-0.2 0-0.4 0.1-0.6 0.2l-3.4 1.2-2.4-6.7h-7.3v-6h-5.1c0-0.1-0.1-0.1-0.4-0.2 0 0-0.1 0.1-0.1 0.2l-13.2 0.1c1.5 3.6 3.5 6.9 5.8 9.9-0.1 0.1 0 0.1 0.1 0.1v0.1c-0.5 0-0.2 0.3-0.1 0.4 0-0.1 0.2 0 0.4 0 1.7 2.2 3.7 4.3 5.8 6.1 0-0.1-0.1-0.1-0.2-0.1 0 0.2 0.2 0.2 0.4 0.2 0.1 0.1 0.2 0.2 0.3 0.2h0.1c2.4 2 4.9 3.9 7.7 5.4-0.1-0.3-0.5-1.1-0.2-1 0 0.4 0.1 0.4 0.3 0.8-0.1 0 0 0.1-0.1 0.2l2.4 1.2c0-0.4-0.1-0.9 0-1.3-0.1-0.4-0.2 0.3-0.4-0.3 0-0.3 0.2 0.1 0.3-0.1 0.2 1 0.7 0.7 0.8 0.5 0.1 0.3 0 0.2 0.1 0.6-0.1 0.1-0.4-0.3-0.3 0.1 0.5 0.9 0.6 0.2 1 0.2-0.1 0.1-0.1 0.4-0.1 0.8 5.9 2.7 12.5 4.1 19.4 4.1 0.9 0 1.8 0 2.7-0.1 0.2 0.5 0 0.4 0.1 0.8-0.1-0.2-0.3-0.4-0.4-0.5 0.4 0.9-0.1 0.7-0.2 1 0.3 0.7 0.3 0.5 0.4 1.1 0.4 0.5 0.9 0.3 1.2 0.6 0-0.8 0.7-0.1 1.3 0.3-1.7 0.2-3.4 0.3-5.1 0.3h-2.1c0 0.1-0.1 0.5-0.1 0.8-0.1-0.2-0.5-0.7-0.4-0.3-0.3-0.7 0.2 0 0.4-0.2-0.1-0.3-0.2-0.2-0.3-0.4-0.3 0-0.7 0-1-0.1 0.1 0.2 0.1 0.3 0.2 0.4 0 0.2 0 0.2 0.1 0.5-0.2-0.2-0.3-0.5-0.3-0.9-5.4-0.4-10.6-1.6-15.4-3.5v0.3c0-0.2-0.1-0.3-0.2-0.4-0.2-0.1-0.3-0.1-0.5-0.2-0.1 0-0.2-0.1-0.3-0.1-0.2-0.1-0.3-0.1-0.5-0.2-0.7-0.1-0.1-0.5-0.9-0.6-0.1 0.1-0.1 0.1-0.1 0.2-3.1-1.4-6-3.2-8.7-5.2 0.2-0.3 0.6-0.6 0.1-0.8 0 0.1-0.2 0.4-0.3 0.6-1.5-1.1-2.9-2.3-4.3-3.6 0.3-0.1 0.1-0.3-0.2-0.2-0.1-0.1-0.2-0.2-0.3-0.2 0.2 0 0.1 0.2 0.5 0.1 0.2-0.1-0.1-0.2-0.5-0.2 0-0.1 0-0.1 0.1-0.1 0.5 0.1 1.4-0.2 0.1-0.1 0-0.1-0.3-0.3-0.3-0.1 0.1 0.2-0.1 0.1-0.2 0.1l-1.5-1.5c0-0.1 0-0.1-0.1-0.1 0.2 0 0.4 0 0.5-0.2 0.7 0.4 1-0.2 2 0.1 0-0.3-0.4-0.2-0.5-0.5-0.5 0.5-1.5 0.3-2.2 0.3-0.7-0.8-1.4-1.6-2-2.4 0.1-0.1 0.2-0.2-0.2-0.3-2.5-3.2-4.7-6.6-6.4-10.4-0.1-0.3-0.3-0.6-0.4-0.9 0.1-0.1 0.2-0.2 0.5-0.4-0.3-0.1-0.4 0.2-0.6 0 0.5-0.1-0.1-0.2-0.2-0.3 0 0 0-0.1 0.2-0.1 0 0.1 0 0.2 0.3 0.2-0.1-0.2-0.1-0.4-0.5-0.4h-0.1s0-0.1-0.1-0.1c0 0 0.2-0.1 0.3-0.1 0-0.1-0.2-0.3-0.5-0.2v-0.1h-1.5c0.1-0.2 0.2-0.4-0.4-0.5 0.3-0.1 0.3-0.2 0.3-0.4l23-0.1c0 0.1 0 0.2-0.1 0.3h0.4c-0.1-0.1-0.1-0.2-0.1-0.3h4.2c0 0.1 0 0.4 0.2 0.7 0.1-0.2 0.1-0.4 0.1-0.7h8.5v0.1-0.1h0.1c0.1 0.1 0.2 0.2 0.2 0l36.4-0.1v0.1l0.1-0.1h1c0 0.1 0 0.2-0.1 0.4 0-0.1 0.1-0.2 0.1-0.4h4l-0.2 0.9-0.8 0.2zm-31 32c0.1 0.1 0.2 0.2 0.2 0h-0.2zm-15.9-3.8c0-0.1 0-0.1 0.3-0.2 0 0.1 0.3 0.2 0.5 0.1-0.4 0 0.3-0.1 0.1-0.2-0.5 0.1-0.5-0.1-0.8-0.2-0.3 0.2-0.3 0.4-0.1 0.5zm-0.9-0.8c0 0.1 0.1 0.1 0.1 0.2 0.1-0.1 0.4-0.1 0.5-0.3-0.3 0-0.5 0-0.6 0.1zm-0.4-0.3c0 0.1 0 0.2 0.3 0.2 0 0 0.1 0 0.1-0.1v-0.1s-0.2-0.1-0.4 0zm-0.2 0.5-0.1 0.1v0.1c0.2 0 0.1 0 0 0.1l0.1 0.1c0.3-0.1 0.1-0.2 0.4-0.2v-0.1c-0.2-0.1-0.3-0.1-0.4-0.1zm-0.3-0.3c0 0.1 0 0.2 0.1 0.3h0.2c0-0.2-0.1-0.3-0.3-0.3zm-1.3-0.4c-0.1-0.2-0.2-0.3-0.3-0.4-0.3 0.1-0.1 0.4 0.3 0.4zm0.8-2.9s0.1 0 0.1 0.1v-0.4c-0.1-0.1-0.1 0.1-0.1 0.3zm-0.4 0.6c0.2 0 0.4 0 0.4-0.1-0.3-0.1-0.3-0.2-0.2-0.3-0.6 0.2-0.2 0.3-0.2 0.4zm-0.8 0.2h0.4c0.1-0.1 0.2-0.2-0.2-0.2-0.1 0.1-0.2 0.1-0.2 0.2zm-0.6 0c-0.1-0.1-0.2-0.1-0.3-0.1-0.2 0.1-0.1 0.2 0.1 0.3 0-0.1 0.1-0.2 0.2-0.2zm-0.3-0.4c-0.2-0.1 0.7-0.3 0.1-0.3-0.1 0.1-0.4 0.4-0.1 0.3zm-1.9-1.6-0.6 0.1c0.1 0.1 0 0.2 0.2 0.3h0.4c0.1-0.2 0.2-0.3-0.2-0.3 0.5-0.1 0.5-0.4 0.1-0.4 0 0.1-0.4 0.1-0.4 0.1 0.3 0.1 0.4 0.2 0.5 0.2zm-7.8-5.2c0.6 0.1 0.6 0.2 1.2 0.3 0.2-0.2 0-0.4-0.1-0.6 0.2 0.8-1.1-0.1-1.1 0.3zm-0.6 0.2c0.3 0.1 0.4-0.1 0.5-0.3-0.3 0-0.6 0-0.5 0.3zm-0.9-0.1c0.3 0 0.6 0 0.7-0.2-0.3 0.1-0.7 0-0.7 0.2zm-0.5-2.3c0.4 0.1 0 0.2-0.1 0.4 0.3 0 0.7 0 0.9-0.3-0.3 0.1-0.9-0.3-0.8-0.1zm-2.4-1.1c0.6-0.1 0.9 0 1.1-0.2-0.4 0.1-1 0-1.1 0.2zm-0.3-2.6c-0.1 0.2 0.1 0.2 0.2 0.3 0.3 0 0.5-0.1 0.6-0.1-0.5 0-0.4-0.2-0.8-0.2zm-0.7-0.4h0.1c0-0.1 1 0 0.9-0.2-0.4 0.1-0.6 0.1-0.9 0 0 0.1-0.2 0.1-0.1 0.2zm-0.5 2.6c0 0.1-0.3 0.1 0 0.1 0.2-0.1 0.1-0.2 0.4-0.3-0.3 0-0.3-0.1-0.7 0-0.1 0.2 0.3 0.1 0.3 0.2zm-2-5.7c0-0.1 0.4-0.3-0.2-0.3-0.2 0.1 0.1 0.4 0.2 0.3zm-3.7-3.6c-0.4 0 0.2-0.1 0-0.2-0.8 0-0.4 0.4 0 0.2zm-0.1 0.4c-0.9 0.1-0.1 0.6 0 0.6-0.1-0.3 0.6-0.2 1-0.2 0.7-0.4-1.3-0.1-1-0.4zm0.6-2.2c0.1 0.1-0.4 0.3 0 0.3 0.1-0.1 0.5-0.3 0-0.3zm-0.3-2.3c-1 0.3 0.6 1.1-0.5 1.3 0.5 0.2-0.1 0.6 0.9 0.6-0.4-0.5-0.4-1.1-0.4-1.9zm2.3-1.1c-0.1 0.1-0.8 0.4-0.4 0.5 0.2-0.2 1.1-0.3 0.4-0.5zm11.7 0.5c-0.1-0.1 0.2-0.4-0.3-0.4 0.1 0.2-0.1 0.3 0.3 0.4zm2.7 0.2c0.1-0.2-0.6-0.3-0.7-0.2 0.5 0 0 0.4 0.7 0.2zm2-0.2c-0.4 0-0.9 0.3-0.3 0.2-0.1-0.1 0.5-0.1 0.3-0.2zm4.8 0.8c-0.4-0.2-0.5-0.3-0.6-0.4-0.7 0-0.4 0.2-0.6 0.3 0.8-0.1 0.8 0 1.2 0.1zm6.3-0.2c-0.3-0.7-0.8-0.1-0.8-0.1 0.4 0.3 0.6 0.1 0.8 0.1zm9.1 0.4c-0.3-0.6-0.5-0.3-0.8-0.7 0 0.2-0.1 0.6 0.1 0.6 0-0.3 0.5 0.1 0.7 0.1zm27 5.1h1.3c0.4-2.4 0.4-3.9-0.1-3.1v2.3h-1c0 0.2-0.1 0.5-0.2 0.8zm48.4-39.3c0.4 0 0.8 0 1.1-0.1v5c-0.4 0.1-0.7 0.2-1.1 0v-3.9-0.1-0.9zm0.5 3.3h0.3c-0.1 0-0.2-0.1-0.3 0 0.1 0 0.1 0 0 0zm-57.3 50.1c-0.1-0.6-0.2-0.3-0.3-0.3l-0.4-0.7-2.3-0.3 0.8-0.8c1.3-0.2 2.5-0.3 3.9-0.5-0.2-0.1-0.4-0.1-0.6-0.2 0.1 0 0.2 0 0.2-0.1-0.1 0-0.2 0-0.2-0.1 0.3 0 0.8-0.2 0.6-0.4-0.1 0.3-0.5 0.2-0.8 0.1-0.2 0.2 0.2 0.5-0.1 0.6-0.6-0.3-1.5 0.5-1.8 0 0.3-0.3 1.3 0.1 1.5-0.6-0.5 0.1-1.1 0.4-1.5 0l-0.2 0.3h-0.1v-0.2l-0.4-2 1.2 0.6c-0.4 1.6-0.1 1.6 0.2 0.6-0.1 0.2-0.1-0.1 0-0.5l0.6 0.3 1.6-0.8c0 0.1 0 0.1 0.1 0.1v-0.2l0.3-0.1s0 0.1 0.1 0.1l-0.4 2.1 1.6 1.6-2.3 0.3-1 2.1-0.5-1h0.2zm0.5 0.2c0.1-0.1 0.1-0.3 0.1-0.7-0.2 0.1-0.4 0-0.1 0.7zm39.2-70.2c0-0.1 0-0.2-0.1-0.2 0 0.1 0 0.1 0.1 0.2zm-39.9 84.6c-0.1 0-0.1 0-0.2-0.1v0.1c0.1 0.1 0.1 0 0.2 0zm52-34.2c-0.1-0.1-0.3-0.2-0.4-0.4h-0.1 0.1c-0.1-0.1-0.2-0.2-0.3-0.2v-0.2h-0.7v0.1h-0.1v-0.1h-0.6 0.1v0.1c-0.1 0-0.1 0-0.1 0.1 0-0.1-0.1 0 0-0.1h0.1v-0.1h-0.3 0.1s0 0.1-0.1 0.1c0 0 0-0.1-0.1-0.1h-0.4c0 0.1 0.1 0.1-0.1 0.1l0.1-0.1h-0.2-3.1c0 0.1 0 0.1-0.1 0.2h0.2 0.1v0.1h-0.1v-0.1h-0.2c0 0.1 0 0.1-0.1 0.2 0 0.1-0.1 0.1-0.1 0.2-0.6 2-1.3 3.9-2.1 5.7-0.1 0.1-0.2 0.3-0.3 0.6-0.6-1.2-0.4 1.1-0.9-0.1 0.2 0.6 0.1 0.4 0.3 1 0.1-0.4 0.3-0.5 0.5-0.4-2.3 5.1-5.3 9.9-8.8 14.2v0.1c-0.3 0.4-0.6 0.7-0.9 1.1 0.2-1.1 0.2-1.6-0.1-1.4-0.2 1-0.2 1.4-0.2 1.7-0.6 0.6-1.1 1.3-1.7 1.9 0.1 0.1-0.1 0.2-0.2 0.3v-0.1l-1.3 1.3c0.1 0 0.2-0.1 0.3-0.3 0.1 0.2-0.3 0.4-0.3 0.3-1.6 1.5-3.2 3-4.9 4.4l0.1 0.1h-0.3c-0.3 0.2-0.5 0.4-0.8 0.6h-0.1c-2 1.5-4 2.8-6.1 4.1 0 0.1 0 0.1-0.1 0.2v-0.1c-1 0.6-1.9 1.1-2.9 1.6h0.1v0.2c-0.4 0.1-0.2 0.2-0.4 0.4 0 0.1 0.2 0 0.2 0 0-0.2 0.4-0.2 0.2-0.3 0.3-0.2 0.3 0.1 0.6 0 0.1 0.1-0.3 0.1-0.1 0.3-0.2 0-0.3-0.1-0.4-0.1-0.1 0.1-0.1 0.1-0.1 0.2 0 0.2 0.3 0.1 0.4 0.1 0 0.1-0.1 0.1-0.1 0.2-0.3 0-0.6 0-0.7-0.2-0.1 0.1-0.3 0.1-0.3 0.1 0-0.1-0.1 0-0.2-0.1h0.2c-0.1 0-0.3-0.1-0.4-0.1-0.4 0.2-0.9 0.4-1.3 0.6 0 0.1 0.2 0.3 0.3 0.1 0.2 0-0.2 0.3 0.2 0.2 0.1 0.3-0.4 0.3-0.6 0.3-0.3 0.1-0.4 0.2-0.7 0.3 0.1-0.1 0.1-0.2-0.2-0.1-0.2 0.1 0.2 0.1-0.1 0.1 0 0.2 0.2 0 0.2 0.1 0 0-0.5 0.2-0.6 0.4 0.2 0.1 0.2 0.1-0.1 0.2 0.2 0.1 0.7-0.4 1.1-0.1 0.1-0.1 0.2-0.1 0.1-0.2 0.2-0.1 0.2 0 0.4-0.1 0.2 0.1 0.1 0.3 0.3 0.3-0.2 0.1-0.2 0-0.5 0.2h0.5c0.1 0.1-0.2 0.1-0.1 0.2-0.1 0-0.1-0.1-0.2-0.1s0 0.1 0 0.2c0.5 0.2 1.1-0.4 1.5-0.1-0.3 0.1-0.4 0.1-0.6 0.3-0.2-0.1-0.6 0.1-0.8 0-0.1 0.2-0.2 0.2-0.5 0.3 0.2 0 0.1 0.1 0.1 0.2-0.3 0-0.8 0.2-0.8 0.4-0.4-0.1-0.6 0.2-1 0.4 0.2 0 1-0.4 0.4-0.1-0.1 0 0 0.1-0.1 0.1 0 0.1 0.2 0 0.3-0.1 0 0.2-0.1 0.2 0.1 0.2v-0.1h-0.1c0-0.1 0.1-0.1 0.1-0.2 0.3 0.1 0.5 0 0.8-0.2 0 0.1-0.1 0.2 0.2 0.1 0 0.3-0.6 0.2-0.6 0.5-0.2-0.1-0.4 0.1-0.6 0.2 0-0.1 0.1-0.2 0.1-0.2-0.1-0.2-0.4 0.1-0.2-0.1 0-0.1-0.1 0.1-0.3 0-0.1-0.1 0-0.1 0-0.2h-0.1c-0.2 0.2-0.4 0.1-0.8 0.2 0 0.2 0.3 0 0.2 0.2-0.1 0-0.3 0.1-0.3-0.1l-0.1 0.1c0.1 0.1 0.4-0.1 0.2 0.1 0.3 0 0.3-0.2 0.5-0.3 0.1 0.2 0.1-0.1 0.3 0l-0.1 0.2c-0.2 0-0.3 0-0.5 0.1 0.2 0.2-0.3 0.2-0.4 0.4-0.1 0-0.1 0-0.1-0.1-0.2 0.1-0.2 0.2-0.4 0.3 0.1 0.1 0.3 0.1 0.5 0.1 0-0.1-0.2-0.1-0.2-0.1 0-0.1 0.4-0.1 0.5-0.2 0 0.1-0.1 0.1-0.1 0.2 0.1 0 0.1-0.1 0.2-0.1 0.1 0.1 0 0.1 0.1 0.2-0.2-0.1-0.4 0-0.6 0.2-0.2-0.1-0.4 0-0.7 0.1-0.1-0.1 0-0.1 0-0.2 0.2 0 0.3 0 0.5-0.1 0-0.1-0.3 0.1-0.2-0.1-0.1 0.1-0.3 0.1-0.3 0.2-0.1-0.1-0.3 0-0.4-0.1-0.1 0 0 0.1 0 0.2-0.2 0.1-0.2 0-0.4 0v-0.2l0.3-0.1c-0.5-0.1-0.4 0.2-0.8 0.2 0 0.1 0.2 0.1 0.2 0.1-0.1 0.2-0.5-0.1-0.3 0.2-0.2 0-0.3 0-0.3-0.2-0.1 0.2-0.4 0.2-0.4-0.1 0.3-0.1 0.3-0.1 0.5-0.1 0.1 0 0-0.2-0.2-0.1 0.1-0.2 0.6-0.2 0.8-0.3 0-0.1-0.2-0.1-0.2-0.1-0.3 0.1-0.5 0.2-0.8 0.2-0.1-0.1 0.5-0.3 0.5-0.1 0.1 0 0-0.1 0.2-0.1h-0.6s0-0.1 0.1-0.1v-0.1c0.2 0 0.2 0 0.4 0.1 0.1 0 0.1-0.1 0.3-0.2-0.2-0.1-0.3 0.1-0.6 0 0.1-0.1-0.1-0.2 0.2-0.2 0-0.1-0.2-0.1-0.4 0 0.2 0.2-0.1 0.1 0 0.3-0.2 0.1-0.3-0.1-0.1-0.2-0.1-0.1-0.1 0.1-0.3 0.1 0-0.1-0.1-0.1-0.2-0.1 0.1-0.2 0.2 0.1 0.5-0.1 0-0.1-0.1-0.1-0.2-0.2-0.1 0-0.2 0.1-0.2 0.1-0.2 0 0.2-0.2-0.1-0.3-0.3 0.1-0.1 0.4-0.1 0.5 0.1 0.1 0.4-0.1 0.3 0.1-0.2 0.1-0.3 0-0.6 0.1l0.1-0.1c-0.2 0.1-0.8 0-0.8 0.3-0.3-0.1 0-0.1 0-0.2-0.1 0-0.3 0-0.6 0.1-0.1-0.2 0.2-0.1 0-0.3-0.1 0-0.1 0.1-0.3 0.1 0.1-0.1 0.1-0.3 0-0.3 0.1-0.1 0.1-0.1 0.1-0.2 0.1 0.1 0.3 0.1 0.3 0.2 0-0.2 0.4-0.2 0.6-0.2 0 0.1-0.3 0.1-0.4 0.1 0.2 0.4 0.7-0.1 1.1-0.1-0.2 0-0.3 0.1-0.6 0.1 0.1-0.1 0-0.3-0.2-0.2 0.2-0.1 0.8-0.1 1 0 0-0.2 0.6-0.1 0.8-0.3v-0.2s0.5 0.1 0.3-0.1l0.5-0.1c0 0.1-0.1 0.1 0.1 0.2 0.2 0 0-0.2 0.2-0.2-0.2 0.2 0.2 0 0.3 0-0.2 0.3 0.5 0.4 0.9 0.3-0.2 0-0.5-0.1-0.7-0.2 0-0.1 0.2-0.1 0.3-0.1-0.4 0.1-0.5-0.1-0.8-0.1 0.1-0.2 0.3-0.1 0.5-0.2 0 0.1-0.1 0.1-0.2 0.1 0.1 0.1 0.3-0.1 0.3 0.1 0.1 0 0-0.2 0.2-0.2-0.2 0.2 0.4-0.1 0.2 0.1l0.3-0.1c0-0.1 0-0.1-0.1-0.1 0.1-0.1 0.4 0 0.5 0 0-0.1-0.2-0.2 0.2-0.3-0.3 0-0.6 0.3-0.8 0l0.2-0.1c0-0.2-0.2 0-0.2-0.1-0.3 0.1 0.1 0.3 0 0.4-0.3 0-0.1-0.3-0.4-0.3-0.1-0.1 0.1-0.1 0.2-0.1-0.1-0.1-0.2-0.2-0.4-0.2-0.1 0.1-0.1 0.2-0.1 0.3-0.8-0.1-1.2 0.5-2 0.4-0.2 0.2-0.4 0.1-0.9 0.2-0.1-0.1-0.1-0.2-0.2-0.2l-0.5 0.1c0.1 0.1 0.3 0 0.4 0.2h-0.6c0.1-0.2 0.1-0.1-0.2-0.1-0.5 0.2-1.1 0.3-1.6 0.5h0.3c-0.3 0.2 0.8 0.1 1 0v0.2c-0.9 0-1.6 0.2-2.3 0.2h-0.1c0 0.1-0.1 0.2-0.2 0.2s-0.1-0.1-0.2-0.1-0.2 0-0.3 0.1h-0.2c-0.3 0.1-0.6 0.1-0.9 0.2l-0.1 0.1h-0.3c-0.1 0-0.3 0.1-0.4 0.1 0.1 0.2 0.4 0.3 0.6 0.2 0.1 0 0-0.1 0.1-0.1 0-0.1-0.2 0-0.3 0 0.2-0.1 0.4-0.1 0.7-0.2 0 0.2-0.4 0.1-0.3 0.3 0.1 0 0.1-0.1 0.1-0.1 0.2 0.1 0.3 0 0.5 0.1 0.1 0.2-0.2 0.2 0 0.3-0.1 0-0.1-0.1-0.3 0-0.1-0.1 0.1-0.1 0.1-0.2h-0.1c-0.1 0-0.1 0.1-0.1 0.2-0.3-0.1-0.7 0.1-0.5 0.2 0.1 0 0.3-0.1 0.4 0 0.1 0 0.1-0.1 0-0.1h0.9c-0.1-0.1-0.3-0.1-0.4-0.1 0.1-0.1 0.2-0.1-0.1-0.1 0-0.1 0.1-0.1 0.2-0.1 0-0.1-0.1-0.2 0.1-0.3 0.1 0 0 0.1 0.1 0.1 0.4-0.4 0.8 0 1.5 0.1 0.1-0.1-0.1-0.1-0.3-0.1 0.1-0.1 0.2-0.2-0.1-0.1 0.2-0.1 0.5 0 0.6 0s-0.2 0-0.1 0.2c0.1 0.1 0.4 0.1 0 0.1 0.1 0.1 0.2 0.1 0.3 0.3 0.1 0 0.1-0.1 0.2-0.1v0.3h-0.3c0 0.1 0.2 0 0.3 0-0.6 0.3 0.2 0.2 0.5 0.2 0.1 0 0.1-0.1 0.2-0.1 0-0.1-0.3-0.1-0.1-0.2-0.1 0-0.3 0-0.3 0.2-0.4-0.1 0.1-0.4 0.4-0.3 0.1-0.2-0.2-0.1-0.2-0.2 0.1 0 0.2 0 0.2-0.1 0.2 0 0 0.2 0.5 0.1-0.1 0.1-0.3 0.1-0.2 0.3-0.2 0.1-0.2-0.1-0.3-0.1 0 0.2 0.5 0.4 0 0.5 0.3 0 0.6 0.3 1 0.1-0.1-0.1-0.1-0.1-0.3-0.2l0.3-0.3c0.2 0 0.2 0.1 0.5 0l-0.2 0.4h0.2c0.2 0 0-0.2 0.1-0.3 0.3 0 0.4-0.1 0.6-0.1 0.1 0.2-0.2 0.4-0.4 0.5 0.1 0.1 0.5-0.1 0.4 0.2 0.4 0 0.5-0.2 0.7-0.1 0-0.2-0.2 0-0.3 0 0-0.2 0.4-0.2 0.4 0 0.7-0.3 0.8-0.1 1.3-0.3 0.1 0.3-0.7 0.3-0.7 0.6-0.3 0-0.4 0.1-0.7 0.2 0.1 0.1 0.3 0 0.5 0l-0.1 0.2h-0.5c0.1-0.1 0-0.3-0.3-0.2 0 0.1 0.2 0.1 0.2 0.2-0.2 0-0.3 0.2-0.5 0.1 0-0.1 0.2-0.1 0.2-0.1-0.6-0.1-1.3 0.6-2.5 0.5l0.1-0.1c-0.2 0.1-0.3 0.2-0.7 0.2 0-0.1 0-0.1-0.2-0.1l-0.2 0.2s0-0.1-0.1-0.1c-0.3 0.2-0.7 0.1-1 0.1-0.3-0.1-0.5 0.1-0.9 0.1s-0.9 0-1.2-0.2c0.3 0 0.5 0.1 0.8 0 0-0.1-0.1-0.1-0.3-0.1 0.1 0.2 0 0-0.2 0 0.3-0.2-1.3 0.1-1.3-0.3-0.1 0 0.1 0.1-0.1 0.1-0.5 0-0.6-0.1-0.9-0.1 0 0.1 0.1 0 0.2 0-1 0.2-2.3 0.2-3.5 0-0.1 0.1-0.1 0.2-0.3 0.1 0 0 0.1-0.1 0.2-0.1 0-0.1-0.1-0.1-0.2-0.1s0.1 0.1-0.1 0.1l-0.2-0.2c-0.2 0.1 0.1 0.1 0.1 0.2-0.2 0-0.3 0.1-0.4 0.1-0.2-0.1 0.1-0.2-0.1-0.2-0.3 0.1-0.4 0-0.7 0 0-0.1-0.1-0.1-0.1-0.2-0.2 0.1-0.4 0-0.5 0-0.2 0 0.1 0.3-0.2 0.2 0 0.1 0.2 0 0.2 0.2-0.2-0.2-0.5 0.1-0.7-0.1-0.2 0.1-0.5 0-0.7 0.1-0.2-0.1-0.6-0.3-0.9-0.3-0.1 0 0 0.2-0.2 0.1-0.2-0.2-0.6 0-0.8-0.3 0.1-0.1 0.2 0 0.3 0-0.1-0.2-0.4-0.1-0.6-0.1-0.1-0.2 0.7-0.1 0.8-0.1 0 0.1-0.2 0.1-0.1 0.2 0.1 0 0.2-0.1 0.2-0.2 0.9 0.1 1.2 0.1 2.2 0.1 0-0.1-0.1 0.1-0.2 0 0.9 0.1 2.5-0.1 3.2 0 0.1 0 0.1 0.1 0.1 0.1 0.2 0 0.2-0.1 0.3-0.2 0.3 0.2 0.9-0.1 1.1 0.1 0.1 0 0.1-0.1 0.1-0.2 0.2 0.2 0.3 0.1 0.6 0.1 0 0-0.1 0-0.1 0.1 0.2 0 0.2-0.1 0.3 0 0.1 0 0-0.1 0.1-0.1-0.3-0.1-1 0-1.3-0.2-0.2 0 0.1 0.3-0.2 0.2 0.1-0.1 0.1-0.2-0.1-0.3-0.3 0.2-0.4 0-0.7 0.2 0.3-0.2-0.4-0.2-0.3-0.1-0.1 0.2-0.3-0.2 0-0.1 0.1-0.4-0.5-0.2-0.6-0.5h-0.1c0 0.1 0.1 0.2 0.2 0.2 0 0.1-0.3 0-0.2-0.1-0.1 0 0 0.1-0.1 0.1-0.2 0-0.3-0.1-0.5-0.1 0 0 0-0.1-0.1-0.1-1.9 0.2-3.9 0.4-5.9 0.4-0.2 0.2-0.7-0.1-0.9 0.2-0.7 0-1.1-0.1-1.7-0.2h-0.3s-0.3 0.1-0.4 0h-0.7-0.1-0.5c-0.1 0.1-0.2 0-0.3 0h-0.8c-0.2 0.1-0.7 0-0.9 0-0.3 0-0.5 0-0.8-0.1-0.3 0.2-1 0-1.3-0.1 0-0.1 0.1-0.1 0.1-0.1h-0.2c-0.1 0.1-0.2 0.1 0 0.1-0.1 0.1-0.1-0.1-0.3-0.1 0.3 0.2-0.2 0.1-0.4 0.1 0.3-0.2-0.1 0-0.2-0.2-0.2 0-0.1 0.2-0.2 0.2 0.1 0 0.4 0.2 0.4 0 0.5 0.3 1.5 0 1.9 0.2 0.1 0 0.1 0.1 0.1 0.1-0.1 0 0 0 0 0 0.4-0.1 0.8 0.2 1.3 0.2 0.1 0 0-0.1 0-0.1 2.3 0.2 4.2 0.2 6.4 0.3 0.1 0.1-0.2 0.1-0.2 0.1 0.1 0.1 0.3 0.1 0.6 0.1 0.1 0.1 0 0.3 0 0-0.2 0.1-0.5 0-0.9 0.1l-0.1-0.1-0.7 0.1c-0.1-0.1-0.1-0.2-0.1-0.2-0.1 0.1-0.2 0-0.4 0 0 0.2 0.4 0.1 0.4 0.2-0.3-0.1-0.6 0.1-0.8 0 0-0.1 0.1-0.1 0.2-0.1 0 0-0.1 0-0.1-0.1-0.1 0.1-0.3 0.1-0.4 0-0.2 0 0.1 0.1 0.1 0.2-0.3-0.2-0.5-0.2-0.9-0.2v-0.2c-0.2 0-0.3 0-0.3 0.1-0.1-0.1-0.2-0.1-0.3-0.2-0.1 0-0.1 0.1-0.1 0.1-0.2 0-0.7-0.2-0.6-0.1-1.4-0.1-3.7-0.2-4.8-0.5-0.2 0-0.1 0.1-0.1 0.2-0.2-0.4-1-0.2-1.3-0.5-0.1 0-0.1 0.1 0 0.1-0.2 0-0.6-0.2-0.8-0.2 0-0.1 0.3-0.1 0-0.1 0.8 0 1.1 0.3 1.6 0.2 0.2 0 0-0.2 0.3-0.3v-0.1h-0.1c-0.1 0-0.2 0.1-0.2 0 0 0.1 0 0.1 0.1 0.1h-0.1-0.1c0-0.1 0.1-0.1 0.1-0.2-0.1 0.1-0.3 0.1-0.5-0.1-0.2 0-0.1 0.1-0.3 0.1-0.1-0.2-0.3-0.1-0.4-0.2h-0.2s-0.2 0-0.2 0.1c-0.1 0 0-0.2-0.2-0.1-0.2 0-0.4-0.1-0.6-0.1 0 0.1 0.2 0.1 0.3 0.1 0 0.1 0.1 0.1 0 0.2-0.2-0.1-0.2-0.1-0.5-0.1 0-0.1-0.2-0.1-0.2-0.2h0.2c-0.5-0.1-0.9-0.2-1.4-0.3-0.1 0-0.1 0-0.1 0.1l-0.1-0.1h-0.2c0 0.1 0 0.1-0.1 0.2-0.2 0-0.3-0.1-0.3-0.2-0.4 0.1-0.8-0.3-1.1-0.1 0-0.1-0.3-0.2-0.4-0.3-0.1 0-0.2 0-0.2-0.1 0 0.1 0.1 0.1 0.3 0.1-0.3 0.2-0.7-0.3-0.8 0-0.3-0.1-0.9-0.5-0.9-0.2-0.2-0.1-0.2-0.3-0.1-0.3 0.4 0.1 0.9 0.4 1.1 0.3h-0.1-0.1c-3.3-0.8-6.4-1.9-9.5-3.3 0.1 0.1 0 0.1 0 0.2l-0.2-0.1c0-0.2 0.1-0.1 0.2-0.1-0.7-0.3-1.4-0.6-2.1-1 0.1 0.1 0.1 0.2 0.3 0.3-0.1-0.2 0.2 0.1 0.6 0.2-0.2 0.1-0.7-0.3-0.9-0.2-0.2-0.1 0-0.2-0.2-0.3h0.1c-7.2-3.5-13.6-8.4-19-14.3-0.1 0-0.2-0.1-0.3-0.2h0.2c-0.5-0.6-1-1.1-1.5-1.7l0.1-0.1c-0.2-0.1-0.3-0.3-0.5-0.5 0 0-0.1 0-0.1 0.1-0.4-0.5-0.8-1-1.2-1.6h0.1-0.1c-0.1-0.1-0.1-0.2-0.2-0.2 0.4-0.1-0.1 0.2 0.3 0.1 0.2-0.1-0.3-0.2 0.4-0.3 0.1 0.2 0.5 0.4 0 0.6 0.6 0 0.6 0.4 1 0.3-0.1 0 0-0.3-0.5-0.3 0.4-0.2-0.3-0.4 0.2-0.7-0.4 0-0.4 0.1-0.6 0 0.8-0.3 0.5-0.9-0.1-1.1 0.9-0.3-0.4-0.9 0.1-1.4-0.5 0.1-0.5 0.2-0.9 0.1-0.1 0.2 0.4 0.2 0.6 0.2-0.5 0.1-0.8 0.2-1 0 0.1 0.1-0.3 0.1-0.3 0.2 0.4 0 0.9 0.1 1.3 0 0.1 0 0.1 0.1 0.1 0.1h-0.1c0.2 0.3-0.6 0.4 0 0.5h0.1c-0.5 0-0.4 0.1-0.6 0.2h0.6c-0.6 0.3 0.6 0.6-0.2 0.9 0.3 0 0.7-0.1 0.6 0.1-0.8-0.1-0.3 0.1-0.6 0.3-0.5 0-0.1-0.6-0.6-0.3-0.2-0.1 0.3-0.2 0-0.2-0.2 0.2-0.3 0.1-0.4 0s-0.1-0.2-0.2-0.3c0.1 0 0.4 0.1 0.6 0-0.1-0.1-0.4-0.2-0.7-0.3 0-0.1-0.1-0.1-0.1-0.2 0-0.2 0.8 0 0.9-0.2-0.5 0-0.3-0.1-0.5-0.2 0 0.1-0.3 0.1-0.4 0.1v0.2c-0.3-0.4-0.5-0.7-0.8-1.1h0.1v-0.2h-0.2c-3.3-4.9-5.9-10.2-7.7-15.9 1-0.1-0.4-0.4 0.2-0.5 0.2 0.2 0.7 0 0.3 0.2 0.7 0 0.6-0.1 0.7-0.3-0.4-0.1-0.6-0.4-0.2-0.5-0.5-0.1-0.3 0-1 0.1 0.2 0.1 0.2 0.5-0.6 0.3 1.1-0.2 0-0.4 0.4-0.6h0.2 0.9l9.6-0.1c-0.2 0.2-0.3 0.4 0.1 0.5 0 0.1-0.1 0.3-0.2 0.4h-4.5c0-0.2-0.1-0.3-0.3-0.3v0.3h-1.3c0.5 1.4 1 2.8 1.6 4.2h-0.2c0.1 0.1 0.3 0.2 0 0.3h0.3v0.1c-0.1 0.1-0.2 0.2 0.1 0.2 0.1 0.2 0.2 0.4 0.2 0.5-0.4 0.1-0.8 0.2-1.1 0.2 0.5 0-0.3 0.2 0.3 0.2 0-0.1 0.2-0.1 0.4-0.1 0-0.1 0.2-0.1 0.4-0.2 0.3 0.6 0.5 1.1 0.8 1.7-0.1 0-0.1 0-0.2 0.1 0.4 0 0.2 0.1 0.2 0.2h0.2c0 0.1 0.1 0.2 0.1 0.2h-0.3c0.1 0.1 0.3 0.2 0.4 0.3s0.1 0.2 0.2 0.4c-0.1 0-0.2 0.1-0.4 0.1 0-0.1 0-0.1-0.2-0.1-0.1 0.1-0.1 0.2 0.2 0.3 0-0.2 0.2 0 0.4 0-0.1-0.1 0-0.1 0.1-0.1 0.1 0.1 0.1 0.2 0.2 0.3 0 0.1 0 0.2 0.1 0.2v0.1c-0.2 0.1-0.1 0.2 0.1 0.2 0 0 0 0.1 0.1 0.1-0.1 0.1-0.2 0.2-0.2 0.4h0.4l0.3 0.6h-0.5c-0.4 0.3 1 0.1 0.5 0.4h0.3c0.1 0.2 0.3 0.4 0.4 0.6 0 0-0.1 0.1-0.2 0.1-0.2-0.1 0.1-0.2-0.3-0.3 0.1 0.1-0.2 0.4 0.2 0.4 0.1-0.1 0.2-0.1 0.4-0.1 0.1 0.2 0.2 0.3 0.3 0.5-0.2 0-0.6 0-0.5 0.1 0.3 0 0.5-0.2 0.6 0 0 0.1-0.2 0.1-0.3 0.1h0.3c0 0.1 0.1 0.1 0.1 0.2-0.1 0-0.2 0-0.1 0.1h0.2c0.4 0.7 0.8 1.3 1.3 1.9h-0.4c0.4 0.2-0.6 0.9 0 1.2-0.1-0.2 0.5-0.5 0.7-0.8 7.7 11 19.1 19.3 32.4 22.9v-0.2c0.2 0 0.1 0.1 0.2 0.2 1 0.3 2.1 0.5 3.1 0.8 0.1-0.2 0.4 0 0.1-0.7 0.1 0 0.1 0.1 0.2 0.2v-0.3h0.2c0.1 0.1 0.2 0.2 0.3 0.5 0-0.1 0.1-0.3 0-0.5 0.5 0 1-0.2 1.4-0.4 0.1 0 0.2 0.1 0.2 0.1 0 0.1-0.1 0-0.2 0 0 0.1 0.1 0.1 0.1 0.2 0.7 0 1.1 0.3 1.6 0.4 0.3 0 0.8-0.2 1 0.1-0.2 0.1-0.3-0.1-0.6-0.1 0.2 0.1 0.3 0.1 0.5 0.1-0.1 0.2-0.4-0.1-0.6 0-0.1 0.1 0.1 0.1 0.1 0.2 0.2 0 0.2-0.2 0.4-0.1-0.1 0.1-0.2 0.1-0.2 0.2 0.1 0 0.3 0.1 0.4 0.2 0.1 0 0-0.2 0.2-0.2s0.1 0.2 0.2 0.1c0 0.1 0.1 0.2 0.4 0.1-0.1 0.1 0 0.1 0 0.2-0.2 0-0.3-0.1-0.4-0.2-0.1 0 0.1 0.2 0 0.3h-0.2c0-0.1 0.1-0.1 0.1-0.1-0.6-0.1-1-0.1-1.5 0.1 0-0.1 0.1-0.1 0.1-0.1 0-0.1-0.3-0.1-0.2 0.1 0 0.1 0.2 0 0.2 0.1h0.1 0.3 0.2c0-0.1-0.1-0.1 0-0.1h-0.2c-0.1-0.1 0.3-0.1 0.4-0.2h-0.1c0.2 0.1 0.1 0.1 0 0.2 0.6-0.1 0.6 0.1 1.3-0.1 0 0.1-0.1 0.2 0 0.2 0.3 0 0.6 0.1 1 0.1v-0.1c0.1 0 0.1 0.1 0.2 0.1 0.7 0.1 1.3 0.1 2 0.1v-0.1c-0.3 0-0.8 0-1-0.2 0.2-0.2 0.6 0 0.9 0 0-0.1-0.1-0.1-0.1-0.1-0.2-0.1-0.4-0.1-0.6-0.2h0.4 0.1c0.1 0 0.1-0.1 0.1-0.2-0.1 0-0.1 0.1-0.2 0.2 0-0.1-0.1-0.1-0.2-0.2-0.1 0.2-0.8 0-1 0 0.4-0.2 0.4 0 0.8 0 0-0.3 0.5 0 0.9 0-0.1 0.1-0.1 0.1 0.1 0.1 0 0.1-0.3 0-0.4 0.2 0.3 0 0.9 0.2 0.9-0.3 0.2 0.1 0 0.5-0.2 0.5 0.1-0.1-0.4 0-0.4 0h-0.2s0 0.1 0.1 0.1h0.4c0 0.1 0 0.1-0.1 0.1h-0.3v0.1h1.3c-0.1 0-0.2 0-0.2-0.1 0.1-0.2 0.2 0.1 0.4 0 0 0.1-0.1 0-0.1 0.1h0.1 0.1 0.4 0.1 1.1 0.5c0.1-0.1 0-0.1 0-0.3-0.2 0-0.4 0.1-0.5 0.1 0.1-0.2-0.4 0-0.3-0.2 0.1 0 0.3 0.1 0.5 0.1 0-0.1 0-0.1-0.1-0.1h0.1c-0.1-0.1-0.4-0.1-0.4-0.2-0.1 0-0.2 0.1-0.4 0 0.1-0.1 0.1-0.1 0.1-0.2-0.1 0-0.1 0.1-0.3 0 0-0.2 0.4-0.2 0.7-0.2 0.1 0.1 0 0.1 0.1 0.2 0.1 0 0.1-0.1 0.2 0 0-0.1-0.2-0.1-0.2-0.3-0.4 0.1-0.4-0.2-0.7-0.1-0.2 0 0.1 0.1 0.1 0.2-0.3 0-0.4-0.1-0.6 0 0 0 0.2 0.2 0.2 0.1 0.2 0-0.2 0.2 0.1 0.2-0.1 0.1-0.4-0.2-0.2 0.1-0.1 0-0.1-0.1-0.2-0.1 0.4-0.5-0.5-0.5-0.8-0.3-0.2-0.1-0.6-0.1-1-0.2-0.1 0.2-0.4 0-0.8 0 0.1-0.3 0.3-0.2 0.6-0.3 0 0-0.1 0-0.1 0.1 0.3 0 0.3-0.1 0.6-0.1l-0.1 0.1c0.2 0.1 0.1-0.1 0.1-0.2 0.1 0 0.1 0.1 0.3 0.1s-0.2-0.1 0-0.2c0.1 0 0.2 0 0.2 0.1 0.2 0 0.1-0.2 0.2-0.1 0 0-0.1 0.1-0.1 0.2h0.2c0.1 0.1-0.2 0.1-0.4 0.1 0.2 0.1 0.7 0 0.7-0.2 0.1 0 0 0.1 0.1 0.2 0.3-0.1 0.3-0.2 0.4-0.4 0.3 0 0.6 0 0.8-0.1 0.2 0.1 0.3 0.3 0.1 0.1h0.1c0.1 0 0.2 0 0.2 0.1-0.1 0-0.3 0-0.3 0.1 0.2 0 0.3-0.1 0.5-0.2-0.1-0.1-0.3-0.1-0.4-0.1 0.2-0.1 0.5-0.2 0.7-0.3h0.1c0.1 0.1 0.1 0.3 0.4 0.2 0.1 0 0-0.1 0.1-0.1 0-0.1-0.2-0.1-0.3-0.1 0.2-0.1 0.4-0.1 0.7 0 0 0.1-0.2 0.1-0.3 0l0.1 0.1h0.4c0.1 0.2-0.3 0.1-0.2 0.3-0.2-0.2-1.1 0.3-1 0-0.1-0.1-0.3 0.1-0.4 0.1 0 0.1 0.3 0 0.4 0.1-0.2 0.1-0.4 0.1-0.5-0.1-0.1 0 0 0.2-0.2 0.1 0.2 0.1 0.3 0.1 0.4 0.2 0 0-0.1 0.1-0.2 0.1 0 0 0.1 0 0.1 0.1 0.2 0 0.2-0.2 0.4 0v-0.3c0.2-0.1 0 0.2 0.2 0.1l-0.1 0.2c0.2 0.1 0.3 0.1 0.5 0 0-0.2-0.2-0.3-0.4-0.4 0.1-0.1 0.2-0.1 0.1-0.2 0.1-0.1 0.4 0 0.4 0.2 0.1 0 0.2-0.1 0.4 0h-0.1c0.1 0.1 0.2 0 0.4 0-0.1-0.1 0-0.2-0.2-0.1 0.3-0.3 1 0 1.3 0 0.3-0.3 0.8-0.1 1.2 0-0.2 0.1-0.3-0.1-0.5 0 0 0.1 0.2 0.1 0.1 0.2-0.2 0-0.2 0.2-0.4 0 0 0.1 0.1 0.2 0.1 0.1 0.1 0 0 0 0 0v0.1c-0.1 0-0.2-0.2-0.4-0.3 0.1-0.2 0.5-0.1 0.5-0.2-0.4-0.2-0.8 0.4-1.1 0-0.3 0-0.4 0.3-0.8 0.3 0.1 0.1 0.2 0.1 0.2 0.2 0.1-0.1 0.3-0.1 0.2-0.3 0.2 0.1 0.3 0 0.5 0 0 0.2-0.2 0.2-0.4 0.2 0.2 0.1 0.5 0.1 0.5 0.3h0.4c0.1-0.1-0.2-0.1-0.1-0.2 0.2 0.1 0.2 0.1 0.6 0.1 0 0.1-0.1 0.1-0.2 0.1 0.1 0.1 0.3 0.1 0.5 0.1 0.1 0-0.1-0.2 0.1-0.3h0.2s-0.1 0.1-0.2 0.1c0.1 0.1 0.3 0.1 0.5 0.1-0.5 0.4-1.1 0-1.6 0.2-0.1 0-0.1-0.1-0.1-0.1h-0.4c0 0.1 0.2 0 0.2 0.2-0.2 0-0.4 0-0.5-0.1 0.3 0.3 1.3 0.1 1.7 0.1 0.3 0 0 0.2 0.3 0.2v0.1c2.6-0.2 5.2-0.6 7.7-1.1 0.2-0.2 0.2-0.1 0.6-0.3 0.1 0.1 0 0.1 0 0.1 0.6-0.1 1.2-0.3 1.8-0.4v-0.1c0.1 0 0.2 0 0.2-0.1 0.3 0.1 0.6 0 0.8-0.2 0-0.1-0.2-0.1-0.1-0.2 0.4 0 0.2-0.1 0.3-0.2 0.1 0.1 0.1 0.2 0.4 0.2 0 0.1 0 0.2-0.1 0.2h0.1c0.3-0.1 0.5-0.2 0.8-0.2 0.1-0.1 0.2-0.2 0.3-0.1h0.1c-0.1 0-0.1-0.1-0.2-0.1 0-0.1 0.3 0 0.3-0.1 0.1 0 0.1 0.1 0.1 0.2-0.1 0-0.2 0-0.2 0.1 0.2-0.1 0.4-0.1 0.6-0.2 0-0.1 0.1-0.1 0.2-0.1 1-0.3 2.1-0.7 3.1-1.1 0 0-0.1-0.1-0.2 0 0.3-0.2 0.3-0.2 0.6-0.3-0.1-0.1 0-0.2-0.1-0.5 0.3-0.1 0.3 0.1 0.3 0.2 0.3-0.1 0-0.2 0.1-0.4-0.2 0.1-0.3 0-0.4 0l1.4-0.4-0.1-0.2c0.2-0.1 0.5-0.2 0.6 0-0.2 0.1-0.2 0.2-0.2 0.3-0.1-0.1-0.2 0.1-0.3 0.2 0 0.1 0.4-0.2 0.4 0 0.1 0 0.2-0.1 0.2-0.2s-0.1 0-0.2 0c0.2-0.2 0.3-0.3 0.7-0.3-0.1 0.2 0 0.2-0.1 0.4 1.3-0.6 2.6-1.2 3.9-1.9 0-0.1 0.2-0.2 0.4-0.2 0.3-0.2 0.7-0.4 1-0.6 0-0.1 0.1-0.1 0.2-0.1 2.7-1.6 5.2-3.4 7.6-5.3h0.1v-0.2c2.3-1.9 4.4-3.9 6.4-6.2-0.1 0-0.2 0-0.4 0.1 0-0.5-0.2-0.2-0.3-0.3v-0.1c0.2 0.6 0 0.5-0.2 0.1 0 0.1 0 0.2 0.1 0.3v-0.1 0.1 0.2l-0.1-0.1c-0.1 0.1-0.1 0.1 0 0.2-0.2 0.2-0.1-0.1-0.2-0.1l0.1-0.1c-0.1 0-0.3 0.2-0.3-0.2 0 0-0.1 0-0.1-0.1-0.1 0.2 0.3 0.6 0 0.6 0-0.5-0.2-0.4-0.3-0.5-0.1 0.2-0.3 0.4-0.3 0.4 0-0.1 0.1-0.3 0.3-0.5 0-0.9 0.7-0.4 0.9-0.9 0.1 0.1 0.2 0.3 0.3 0.5 0-0.1-0.1-0.3-0.1-0.4 0.1 0 0.2 0 0.3 0.1 0.1-0.1 0.1-0.1 0-0.3 0.1 0 0.2-0.2 0.3 0h-0.1c0.1 0 0.1 0 0.2-0.1 0.1 0.4 0.1 0.4 0.2 0.7 0.5-0.6 1-1.1 1.5-1.7-0.2 0.1-0.2 0-0.5 0.4-0.1-0.3 0.3-0.5 0.5-0.9-0.1 0-0.2 0-0.2 0.2 0-0.2 0.2-0.3 0.4-0.4 0 0.2-0.1 0.5-0.1 0.7 0.2-0.3 0.4-0.5 0.6-0.8 0-0.1 0-0.2 0.1-0.3v0.2c0.3-0.4 0.6-0.7 0.8-1.1 0 0 0-0.1-0.1-0.1 0.1-0.1 0.2-0.1 0.2-0.1 0.1-0.1 0.1-0.1 0.1-0.2-0.1 0-0.1 0-0.2 0.1 0-0.2-0.1-0.1-0.1-0.3 0.1-0.1 0.1 0 0 0 0.2 0 0.2 0 0.3 0.1 1.6-2.2 3-4.5 4.3-6.9v0.1-0.1c1.4-2.7 2.6-5.5 3.6-8.4h-0.1c-0.1-0.1-0.1 0-0.2 0v-0.1h0.1c0-0.1-0.1 0-0.1-0.1 0 0-0.1 0-0.1 0.1 0 0-0.1 0-0.1-0.1v0.1h-0.1v-0.1h0.1c-0.1-0.1-0.1 0-0.2 0 0 0.1 0 0 0.1 0.1 0 0.1-0.1-0.1-0.1 0 0 0-0.1 0-0.1-0.1 0 0.1-0.1 0-0.1-0.1h0.1v-0.1c0-0.1 0.2-0.1 0.2 0 0-0.1 0 0-0.1-0.1-0.1 0-0.1 0.1-0.2 0 0-0.1 0.2-0.1 0.1 0h0.1-0.2s0.1 0 0.1 0.1c0 0 0-0.1 0.1 0 0-0.1-0.1 0-0.2-0.1h-0.1-0.1-0.1-0.2v0.1-0.1h-0.7-0.1-0.2-0.1-0.1-1.1c0.1 0 0.2 0.1 0.3 0 0 0.1-0.2 0-0.3 0.1 0 0.1 0.1 0 0.1 0l-0.1 0.1s0.1 0 0.1 0.1c-0.1 0-0.1 0-0.1 0.1h-0.2-0.1c-0.1 0-0.1-0.1-0.2-0.1 0-0.1 0.1-0.1 0.2-0.1-0.1 0.1 0.1 0.1 0.1 0.1v-0.1h-0.2c-0.1 0 0 0.1 0 0.1s-0.1 0-0.1-0.1h-0.1c-0.1 0-0.1 0.1-0.2 0v0.1c-0.1-0.1-0.1-0.1-0.2-0.1v-0.1h-1.7s0.1 0 0.1 0.1h-0.2-1v-0.4c-0.1 0-0.2 0.2-0.2 0.4h-0.2l-0.1 0.1c0-0.1-0.1 0-0.1-0.1l-0.1 0.1s0-0.1-0.1-0.1c0 0 0.1 0 0.1 0.1h-0.1c-0.1 0.1-0.1 0.3-0.2 0.4h0.6v0.1c-0.2-0.1-0.4 0-0.6 0-0.7 1.8-1.6 3.5-2.5 5.2l-0.3-0.3c0 0.7-0.5 1.5-1.1 0.8 0 0.8-0.3 0.7-0.7 1.1 0.2 0.9 0.3-0.1 0.5 0.5 0.1 0.6-0.1 1.3-0.5 0.6-0.2-0.4 0.3 0 0-0.6-0.2 0.4-0.1 0.8 0.2 1.2-0.7 1.1-1.5 2.2-2.3 3.3h-0.1c0.1-0.2 0.2-0.3 0.2-0.4-0.2-0.2-0.2-1.7-0.7 0.5v0.2c-0.4 0.3-0.7 0.8-0.9 1.6-2 2.4-4.2 4.6-6.6 6.6 0.3 0.3 0.5-0.3 0.7 0-0.2-0.1-0.2 0.1-0.1 0.5-0.3-0.1-0.4-0.2-0.6 0.2 0.1 0.2 0.2 0.5 0.3 0.5 0 0.2-0.1 0.1-0.2 0.2-0.2-0.5-0.3-0.8-0.5-1.1-0.1 0-0.1 0.1-0.2 0.1 0 0.3 0 0.6-0.2 0.2 0 0.2 0.1 0.7 0.2 1-0.2-0.1 0 0.6-0.2 0.2 0.1 0.3 0.2 0.5 0.2 0.4 0.1 0.4-0.3 0-0.2 0.4-0.2-0.1-0.1-0.5 0-0.5-0.1-0.2-0.2-0.5-0.3-0.5 0 0.1 0.1 0.4 0.1 0.6-0.2-0.1-0.4-0.4-0.2 0.4-0.4-0.6-0.5-0.1-0.8-0.2 0 0.2 0.1 0.4 0.2 0.4 0 0.5-0.3 0.1-0.2 0.2-0.1 0-0.1-0.3-0.2-0.4-0.1 0.1-0.3-0.3-0.2 0.2-0.2-0.5-0.4-0.4-0.5-0.7-1.9 1.3-3.8 2.5-5.9 3.6-0.1-0.1-0.2 0-0.4 0.2-5.1 2.6-10.7 4.3-16.6 5.1 0.1-0.5-0.2-1.8-0.8-3.3 0.5-0.1 1-0.1 1.6-0.2 0 0-0.1 0-0.1-0.1-0.1-0.5 0.2-0.2 0.3-0.3v0.3c0.6-0.1 1.1-0.2 1.6-0.3-0.1-0.1-0.1-0.3-0.1-0.4 0.2 0.1 0.1-0.3 0.2-0.1 0.1 0.3-0.2 0.1-0.1 0.4l0.1 0.1c0.3-0.1 0.5-0.1 0.8-0.2-0.1-0.1-0.2-0.5-0.3-0.7 0.1-0.1 0.4 0.4 0.3 0.7 2-0.4 3.9-1 5.8-1.6 0.3-0.6 0.9-0.8 1.4-0.7-0.3-0.5 0.2-0.8 0.2-0.2 0.2-0.9 0.6-0.7 1-1.3 0 0.2 0.1 0.4 0.2 0.4 0-0.6 0.2-0.7 0.4-0.5 0.1 0.1 0-0.3 0.1-0.3-0.3-0.1-1.1-0.9-0.8-1.5 0.2 0.5-0.1 0.1 0 0.5 0.3 0.6 0.4 0.1 0.4-0.4-0.1-0.4-0.2 0.3-0.4-0.4 0.3-0.3 0.5-0.2 0.5-0.8 0.4 0.5 0.8-0.1 0.8-0.6 0.2 0.3 0.3 0.5 0.4 0 0 0.1 0.1 0.4 0 0.5 0.3 0.4 0.4 0.4 0.6 0.1 0 0.4 0.1 0.7 0.3 0.9-0.1-0.3 0-0.7 0.2-0.2 0-0.5 0-0.9 0.3-0.7 0.1 0.5-0.1 0.6-0.2 0.4l0.2 0.6c0.2-0.3 0.2-0.3 0.5-0.3-0.1-0.5-0.2-0.2-0.3-0.2-0.2-0.5 0.2-0.1 0-0.6 0.2 0.2 0.3 0.9 0.5 0.8-0.2-0.7 0-0.1 0.2-0.2l-0.2-0.2c0.2 0.1 0.5 0.2 0.8 0.2-0.1-0.7 0.2 0.1 0 0.2 0 0.1 0.1 0.1 0.1 0.3 0.2 0.2 0.2-0.1 0.5 0.3 0.1-0.2-0.2-0.8-0.3-0.5-0.1-0.5 0.4 0.3 0.2-0.5 0.1 0.1 0.4 0.7 0.4 0.2 0.2 0.1 0 0.3 0.2 0.6 0.1-0.1-0.1-0.7 0.1-0.7 0 0.3 0 0.5 0.1 0.9 0.2 0 0-0.5 0.2-0.5 0.1 0.3 0.2 0.2 0.3 0.6-0.3-0.4-0.2 0-0.3 0.3 0 0 0 0.1 0.1 0.1 0.2-0.1 0.3-0.2 0.5-0.3v-0.2c0 0.1 0.1 0.1 0.2 0.1 6.3-3.9 11.6-9.3 15.5-15.6v0.5c0.1-0.2 0.2-0.6 0.3-1.1 0.1-0.1 0.1-0.3 0.2-0.4-0.1 0.8 0.2 0.1 0.5-0.9 0-0.1 0.1-0.1 0.1-0.2 0 0.8 0.7-1.3-0.1 2.2 0.3-0.8-0.1 1.6 0.2 0.1 0-0.7 0.4-1 0.5-1.8 0-0.4 0.4-1.9 0.5-2.7 0.1-0.2 0.2-0.3 0.2-0.5 0.1 0 0.2 0 0.1-0.3 0.2-0.3 0.3-0.7 0.4-1h-0.3-0.4v-0.1 0.1h-0.8v-0.1c0.1-0.1 0.1-0.2 0.2-0.3-0.1 0-0.2-0.1-0.3 0 0-0.1-0.2-0.1-0.1-0.2h-0.1s0 0.1 0.1 0.1c-0.1 0.1-0.1 0-0.2 0-0.1 0.6 0.1 0.3 0.1 0.4h-0.3v-0.1h-0.1v0.1h-1.3c0.1-0.4 0.2-0.7 0.2-0.9h0.1c0 0.5 0 0.6 0.1 0.7v-0.1l0.1 0.1c0.1 0 0.2-0.2 0.3-0.3h0.1c0.1-0.1 0.2-0.2 0.2-0.3h-0.1 0.2c0.1 0 0.1-0.1 0.1 0v0.1h0.2v-0.2c-0.1-0.1-0.1 0-0.2 0.1 0.1 0 0.2-0.2 0.1-0.2 0.1-0.1 0.1 0.1 0.2 0 0 0.1-0.1 0-0.2 0 0 0.1 0 0 0.1 0v0.1 0.2c0.1 0 0.1 0.1 0.2 0.1h-0.1c0.1 0.1 0.3 0.1 0.4 0 0 0 0 0.1 0.1 0.1v-0.1h-0.1 0.1c0.1-0.1 0.2-0.2 0.2-0.3h0.2v0.3 0.1 0.3c0.1-0.3 0.1-0.5 0.2-0.7 0 0-0.1 0.1-0.1 0 0.1 0 0.1 0 0.1-0.1h0.1 0.1s0-0.1 0.1-0.1c0 0 0 0.1-0.1 0.1h1.4c0.2 0.1 0.1-0.1 0.2 0 0 0-0.1 0.1 0 0.1 0 0.1 0.1 0.1 0.2 0.2 0-0.1 0.1 0 0.1-0.1 0.1 0 0.1 0.1 0.3 0.1 0 0 0.1 0 0.1-0.1v0.1 0.1 0.1h0.1v-0.1c-0.1 0-0.1-0.1-0.1-0.2h0.1v-0.2s-0.1 0 0-0.1h0.1 0.4 0.3-0.1c0.1-0.1 0.3 0.1 0.4 0-0.1 0-0.1 0.1-0.1 0.1 0.1 0 0.1 0 0.2-0.1h1.1c0 0.1 0 0.1 0.1 0.3 0.1 0 0.2-0.1 0.3 0h0.2s0-0.1-0.1-0.1h-0.1c-0.1 0 0.1 0 0-0.1v-0.1h0.3 2.8-0.1 0.1 0.2c0 0.1-0.1 0.1-0.1 0.1h0.9c-0.1 0-0.2 0-0.2-0.1 0.1 0 0.1 0.1 0.2 0.1h0.1s-0.1 0 0-0.1 0.1 0 0.2 0c-0.1 0-0.1 0.1-0.1 0.1h3v-0.1c0.1 0 0.2 0 0.1-0.1 0 0.1-0.2 0-0.2 0.1-0.1 0-0.1 0-0.1-0.1 0 0.1 0.1-0.1 0.1 0v-0.1c-0.2 0-0.3-0.1-0.5-0.1 0.1 0-0.2-0.1 0-0.1 0 0-0.1-0.1-0.1 0-0.1-0.1 0.1-0.1 0.1 0 0.1 0 0.2 0 0.1-0.1 0.1 0 0 0 0.1 0.1 0 0 0.1 0 0-0.1 0.1 0.1 0.2-0.1 0.3 0v-0.1c-0.1 0-0.1 0.1-0.1 0 0.1 0 0.2-0.1 0.3-0.1h-0.1c0-0.1-0.1-0.1-0.2-0.2v0.1-0.1s0.1-0.1 0.1 0v-0.1h-0.1v-0.1c0.1-0.1 0.2 0 0.4-0.1 0-0.1-0.1-0.1 0-0.1h0.1s0-0.2 0.1-0.2v0.1c0.3-0.1 0.1 0.2 0.2 0.3h-0.1s0 0.1-0.1 0c0.2 0.1-0.1 0.1 0.1 0.1h-0.1c0 0.1 0.1 0 0.2 0-0.1 0.1 0 0.1 0.1 0.2h-0.1c0 0.1 0.2 0.1 0.3 0.2 0 0.1-0.1 0-0.1 0 0 0.1 0.2 0 0.2 0.1h-0.1-0.1 0.1-0.1c0 0.1-0.2 0.2-0.3 0.2 0 0 0.1 0 0 0.1 0-0.1-0.1 0-0.1 0s0.1 0 0 0h0.1c0 0.1-0.1 0-0.1 0.1 0-0.1 0.3 0.1 0.2-0.1 0.1 0 0.2 0.2 0.3 0.1h-0.2c0.1 0 0.1-0.1 0.2-0.1 0 0.1 0 0.2 0.1 0.1 0.1 0-0.1 0.1 0 0.1 0 0.1 0 0.1-0.1 0.1h0.1c0.1 0 0.1-0.2 0.2-0.3 0 0.1 0 0.2-0.1 0.3h0.2c0-0.1 0.1-0.1 0.1-0.2h0.1c0.1 0 0 0.1 0.1 0.1v0.1l14.1-0.1-0.1-19.4c0.1 0 0.3 0.2 0.3 0.4 0.2-0.3 0.7 0.1 0.6-0.6l-0.2-0.2c0-0.2 0.2-0.1 0.1-0.4-0.2 0.2-0.5 0.3-0.8 0.4v-3.2h0.1c0 0.1 0 0.3-0.1 0.4 0.1 0 0.2 0.1 0.3-0.1 0.3 0 0.4 0.2 0.6 0.3 0-0.1 0.1-0.2 0.2-0.2v7.5 0.2 0.1 0.2c-0.1 0 0-0.2-0.1-0.3 0 0-0.1 0-0.2-0.1l0.2 0.4 0.1 15.5h-6.6l0.2 0.2c0 0.1 0 0.6 0.1 0.4 1.5 1 1.4 1.3 1.4 1.4zm5.5-20.1c0.1 0 0.1-0.1 0-0.3 0-0.1-0.2-0.2-0.1 0.1l0.1 0.2zm0.1 0.3s-0.1-0.1-0.1-0.2c-0.1 0-0.2 0-0.1 0.4 0.1-0.2 0.2-0.1 0.2-0.2zm-51.7 40.8c0.1-0.1 0.3 0 0.3-0.4-0.2-0.1-0.4-0.2-0.3 0.4zm-0.3-0.1c0.1 0 0.2-0.1 0-0.5-0.1 0-0.1 0.1 0 0.5zm-0.3 0.8c-0.2-0.1-0.1-0.5-0.3-0.9-0.3 0-0.4 0.2-0.4 0.8 0.4 0 0.5 0.1 0.7 0.1zm0.3 0.6c-0.2-0.2-0.4-0.4-0.3 0.2 0.2-0.1 0.4 0 0.3-0.2zm0.2-0.7c-0.2 0.1-0.3 0-0.6-0.4 0.1 0.5 0.8 1.4 0.6 0.4zm0.3-0.1c-0.1-0.2-0.3-0.2-0.1 0.4 0 0 0.1-0.1 0.1-0.4zm0.6 0c-0.2-0.2-0.3 0-0.5 0 0.2 0.6 0.5 0.4 0.5 0zm1.9-0.8c-0.3-0.2 0 0.9-0.2 0.6 0-0.1 0.1-0.4-0.1-0.4 0.1 0.4-0.2 0-0.2 0.1l0.2 0.6c0.3 0.4 0.3-0.4 0.3-0.9zm0.6 0.9-0.1-0.4c-0.1 0-0.2 0-0.1 0.2 0 0 0.1 0.4 0.2 0.2zm6.2 0.6c-0.1 0-0.1 0.1-0.2 0.1 0.1 0.1 0.2 0.2 0.2-0.1zm0.2-0.1c-0.1 0-0.1 0.1-0.2 0.1 0 0.1 0 0.1 0.1 0.2l0.1-0.3zm0.4 0.5c0.1-0.1-0.1-0.2-0.2-0.6 0.2 0.4 0.1 0 0.1-0.3-0.1 0.1-0.2 0.2-0.3 0.2l0.4 0.7zm4.9-7.6c-0.3 0.3-0.7-0.1-0.8 0.4 0.3-0.2 0.8 0 0.8-0.4zm0.2 2.3c0-0.4-0.5 0-0.5-0.2v0.3l0.5-0.1zm3.1-5.8c0.2-1.4-0.1-1.1-0.5-0.1-0.2 1.1-0.1 2.3 0.5 0.1zm1.7-4.8c-0.4 2.4-1 3.3-1.4 6.2 0.1 0.1 0.3-0.3 0.6-1.2 0.1-0.8-0.1-0.8 0.1-1.9 0.2-0.1 0.6-1.5 0.9-2.4-0.5 1.8-0.1 1.1 0 1.3 0.7-3 0-1.6-0.2-2zm-39.9 31c-0.2 0.1-0.6 0-0.8 0.2 0.5 0.1 0.6 0.1 0.8-0.2zm-51-27.2c0-0.1 0.2-0.1 0.4-0.1 0-0.1-0.1-0.1-0.2-0.1h-0.3c0.3 0.1-0.3 0.2 0.1 0.2zm-0.2-0.8c0-0.1 0.4 0 0.4-0.1-0.5 0 0.4-0.2-0.1-0.1-0.1 0-0.6 0.4-0.3 0.2zm-1.4-3.2c-0.6 0.1 0.2-0.3-0.3-0.2 0.1 0.2-0.5 0.4-0.1 0.5v0.1h0.2c0.1-0.2 0-0.2 0.2-0.4zm-0.5-0.8c-0.4 0 0.2-0.1 0-0.2-0.8 0-0.3 0.3 0 0.2zm-0.6 0.1c0.2 0.2-0.1 0.4 0.3 0.3 0 0.1-0.2 0.1-0.3 0.1 0.2 0.1 0.3-0.1 0.4 0s-0.3 0.1-0.4 0.1c0 0.1 0.3 0.1 0.2 0.3 0.7 0 0-0.4 0.7-0.6-0.6 0 0-0.1 0.1-0.1-0.3-0.1-0.5 0-0.7 0.1 0-0.1 0-0.2-0.3-0.2zm0-2c-0.2-0.1 0.2-0.4-0.4-0.3-0.4 0 0 0.2 0.4 0.3zm-1.1-2.2c-0.6-0.1-0.6 0.2-0.3 0.2-0.1-0.1 0.4-0.1 0.3-0.2zm0.4 2.4c-0.1-0.1 0.2-0.2 0.4-0.1-0.6-0.2-0.2-0.5-0.6-0.7 0 0.1-0.3 0.8 0.2 0.8zm0.3 1.8c0.1-0.1 0.1-0.5-0.2-0.5 0 0.1-0.4 0.5 0.2 0.5zm0 0.5c0.1-0.2 0.1-0.2-0.3-0.3 0.1 0.1-0.3 0.3 0.3 0.3zm0.9 4.1v0c0.4-0.1 0.9-0.1 1.1-0.2 0.1 0 0.1-0.1 0.1-0.1-0.3 0-0.6 0-0.7-0.1h0.2c-0.2-0.2-0.4-0.3-0.4-0.5 0.1 0 0.1 0.1 0.2 0.1 0.5 0-0.4-0.1 0.1-0.2 0.6 0-0.1 0.3 0.5 0.4 0 0 0-0.1 0.1-0.1-0.1-0.1-0.1-0.3-0.1-0.4-0.1-0.1-0.1-0.2 0-0.2 0 0 0-0.1-0.1-0.1 0 0 0.1 0 0.1 0.1 0.1 0 0.2-0.1 0.5-0.1-0.5 0-0.9 0-1-0.2l0.3-0.3v-0.7c0.1 0 0.1 0.3 0.2 0.5 0.1-0.3-0.1-0.7-0.3-1v-0.1h-0.2v-0.2l-0.1-0.1v0.1c-0.1 0-0.3 0-0.6-0.1 0-0.2-0.3-0.3-0.8-0.4-0.1 0.2 0.9 0.3 0 0.4 0 0.1 0.3 0.1 0.2 0.3 0.3 0 0.4-0.1 0.5-0.2 0.1 0.2 0 0.4 0.6 0.4v0.1c-0.4 0.1-0.4 0.2-0.8 0.2-0.1 0-0.2-0.1-0.3-0.1-0.1 0.3-0.1 0.5 0.3 0.6-0.1 0-0.3-0.1-0.6-0.1 0.5 0 0.5 0.5 1.1 0.3-0.1-0.1-0.2-0.1-0.4-0.2h0.2c-0.4-0.1 0-0.4-0.3-0.6h0.9c0 0.1 0.1 0.1 0.2 0.1-0.3 0-0.5 0.1-0.4 0.2 0.5 0.3-0.1 0.7 0 1.1-0.8 0-1 0.1-1.4 0.2 0.9 0.1 0.7 0.5 1 0.7l0.1 0.1h0.1c-0.2 0.3-0.1 0.3-0.1 0.4zm-0.8-2.7c0.1-0.1 0.2-0.2-0.2-0.3-0.2 0.1-0.2 0.3 0.2 0.3zm1.6 2.6c0.1 0.1 0.1 0.3 0.4 0.3-0.1 0-0.1-0.1-0.1-0.2s-0.1-0.1-0.3-0.1zm0 0.7c0.7 0 0.3-0.3 0.1-0.3-0.1 0.1 0.1 0.1-0.1 0.3zm0.4 0.8c-0.2 0-0.4 0-0.4 0.1 0.4 0 0.3 0.1 0.3 0.3 0.4 0 0.7-0.3 0.6-0.4 0 0-0.1 0.1-0.3 0.1 0.1-0.3-0.1-0.6-0.3-0.8-0.3 0.2-0.5 0.4 0.1 0.7zm0.2 1c-0.7 0 0.2 0.1-0.4 0.1 0.1 0 0.2 0.3 0.3 0.2-0.2-0.1 0.1-0.1 0.1-0.3zm0.7 0.7c0-0.1 0.1-0.1 0.1-0.1-0.5 0-0.5 0.2-1.1 0.2-0.1-0.1 0-0.2 0.1-0.2-0.3 0-0.3 0-0.4 0.1v0.1h-0.1s-0.1 0.1-0.2 0.1c0 0 0-0.1-0.1-0.1-0.2 0.2 0.8 0 0.6 0.2 0.7-0.1 0.5-0.4 1.1-0.3zm-0.1 1.1c-0.1-0.2-0.1-0.4-0.5-0.4 0.1 0.2 0 0.4 0.5 0.4zm0 1.8-0.1-0.1c0 0.1-0.1 0.2 0.1 0.1zm0.1-0.4h-0.3 0.3v0zm-0.2-0.9c-0.3 0.1-0.1 0.3 0.2 0.3-0.3 0-0.7 0.3-0.3 0.3 0.5-0.2 0.7-0.5 0.1-0.6zm0.5 1c0.1-0.1 0.5-0.4-0.2-0.4 0.1 0.1-0.1 0.4 0.2 0.4zm0.2 0.4c0.3-0.2 0-0.3-0.3-0.4-0.1 0.1-0.2 0.5 0.3 0.4zm0.2 0.3c-0.4 0-0.6 0.2-0.3 0.3 0-0.2 0.4-0.2 0.3-0.3zm-0.1-0.2c0.1 0.1 1.1 0.3 0.7 0.1 0 0 0 0.1-0.1 0.1-0.1-0.1-0.3-0.3-0.6-0.2zm1.9-0.5c0 0.1 0 0.2 0.5 0.2 0.1 0 0.1-0.3-0.5-0.2zm2.4 1.6c0 0.1-1 0-0.8 0.3 0.3 0 0.3-0.1 0.4-0.1 0.1 0.1 0.1 0.2 0.5 0.3h-0.4c0.1 0.1 0 0.2 0.2 0.4 0.3 0 0.9 0 0.9-0.1 0.1-0.3-0.5-0.5-0.2-0.7-0.4 0-0.6 0.2-0.6-0.1 0.1 0.1 0.2 0 0 0zm0-0.6c-0.2 0-0.7 0.2-0.3 0.3 0.1-0.1 0.7-0.2 0.3-0.3zm-0.8-1c0.4 0.4-0.2 0.6 0.4 0.9-0.1-0.2 0.6-0.1 0.6-0.2-1-0.1 0.2-0.6-1-0.7zm-1 4.2c0.4-0.3 0.7-0.3 1.3-0.3-0.1-0.1-0.7-0.1-1 0.1 0.2-0.2-0.5-0.3 0-0.4 0.2 0 0.1 0.1 0.3 0.1-0.1-0.1 0.2-0.4-0.2-0.4 0 0.3-0.5 0.1-1 0.2v0.3c0.7-0.1 0.1 0.3 0.6 0.4zm0.4 0.6c0.1-0.1 0.2-0.2 0.4-0.3h-0.7l0.3 0.3zm0.7 0.1c0.1 0 0.2 0 0.1-0.1-0.3 0-0.3 0.1-0.6 0.1-0.3-0.1 0.6-0.2 0.1-0.2s-0.1 0.3-0.4 0.4c0.3 0 0.8 0 0.8-0.2-0.2 0.1-0.2 0 0 0zm0.5-1.9c0.3 0.1 0.4-0.1 0.9-0.1 0-0.1 0-0.2-0.2-0.2-0.1 0.2-0.9 0.2-0.7 0.3zm0.6 1.3c0.4-0.1 0.1-0.3 0.6-0.3-0.1-0.3 0.1-0.6-0.8-0.7-0.2 0.3 0.9 0.5 0.2 0.8-0.2 0-0.1-0.1-0.4-0.1 0.2 0.2 0.4 0.3 0.2 0.5 0.3-0.1 0.7-0.1 0.7-0.2-0.3-0.1-0.5 0-0.5 0zm33.4 20c0.1-0.2-0.6 0-0.6 0.1h0.1c0.2-0.1 0.4-0.1 0.5-0.1zm2.7 1.3h-0.2s-0.1 0-0.1 0.1v0.1h-0.1c-0.1 0-0.1 0.1-0.2 0.1 0 0 0.3-0.2 0.6-0.3zm0.8-3c0-0.1-0.1-0.1 0 0 0.1-0.2 0.4-0.1 0.6-0.1 0-0.1-0.1-0.2-0.2-0.2s-0.2 0-0.2 0.1c-0.3-0.2-0.2-0.3-0.5-0.4 0.5-0.3 0.9 0.4 1.3 0.2 0 0-0.1-0.1 0-0.2-0.1 0-0.2 0.1-0.4 0 0.1-0.1 0.3-0.1 0.5 0-0.1-0.1-0.2-0.1 0-0.3-0.4 0-1.2 0-1.1-0.3h-0.4c0 0.1-0.1 0.1-0.3 0.1v0.1c0.1 0 0.2-0.1 0.3-0.1s0 0.1 0 0.1c0.4 0 0.6 0.1 1.1 0.1-0.3 0.2-1 0-1.4 0 0 0.1 0 0.1 0.1 0.2s0.2 0.1 0.3 0.2c-0.1 0.1 0 0.3-0.2 0.3 0.3 0.1 0.4 0.2 0.5 0.2zm-0.1 3.1c-0.1 0.1-0.3 0.1-0.4 0.2v0.1h-0.1c-0.1 0-0.2 0.1-0.2 0.1 0.2-0.1 0.2 0 0.4-0.1v-0.1c0.1-0.1 0.2-0.1 0.3-0.2 0 0.1 0.1 0 0 0zm10.3-2.6c-0.2-0.1-0.2 0.1-0.3 0.1h0.2c0.1 0 0.1 0 0.1-0.1zm0-0.3c0.2 0 0.4-0.2 0.1-0.3 0.1 0 0.4 0 0.4 0.1s-0.3 0.1-0.1 0.2c0.1 0 0.3 0 0.6-0.1-0.3 0.1-0.2-0.2-0.4-0.4 0 0.2-0.3 0.1-0.5 0.2-0.1 0.1 0.2 0.2 0 0.2-0.1-0.1-0.5 0.1-0.3-0.2-0.2-0.1-0.3 0.1-0.3 0-0.1 0-0.2 0.1-0.2 0.1 0.2 0.1 0.4-0.1 0.4 0.1-0.1 0-0.2 0-0.2 0.1 0.3 0 0.2 0.2 0.4 0.3 0-0.2 0.1 0 0.3 0 0-0.2-0.1-0.2-0.2-0.3zm1.7 0.4c-0.1-0.2-0.5-0.1-0.8-0.1 0 0 0.1-0.1 0.1-0.2-0.2 0-0.1 0.2-0.2 0.2-0.1-0.1-0.2-0.1-0.4-0.1 0.2 0.1 0 0.1-0.2 0.1 0 0.1 0.1 0 0.2 0.1-0.1 0-0.1 0.1-0.1 0.2h0.2c0.1-0.1 0.2-0.1 0.4-0.2l-0.1 0.1h0.5c-0.1 0-0.1-0.1 0-0.2 0 0 0.2 0.2 0.4 0.1zm4.2 5.1v-0.1c-0.2 0-0.4 0-0.4 0.1h0.4zm5.2-2c0 0.1 0 0.1 0.1 0.2h0.4c-0.1 0-0.2-0.2-0.2-0.1-0.1-0.1 0.3 0 0.3-0.2-0.2 0-0.4 0.1-0.6 0.1zm-1.7 0.5c0.3 0.1 0.4 0.1 0.7 0 0.1 0.1 0.1 0.1 0.3 0-0.1 0.1 0.1 0.1 0.2 0.2 0.1-0.1-0.1-0.1 0-0.2v-0.1c-0.1 0-0.2 0-0.3 0.1-0.1-0.1-0.2-0.1-0.2-0.2 0.1 0 0.4 0.1 0.3-0.1h-0.1c-0.2 0-0.5 0.1-0.7 0.1v0.1c-0.2 0-0.2 0-0.2 0.1zm-0.8 0 0.1 0.1c0.3-0.1 0.3 0 0.5 0.1 0.1 0 0-0.3 0.1-0.4h-0.2v0.1h-0.3c-0.1 0-0.1 0-0.2 0.1zm0.6 0.6c0-0.1-0.1-0.1-0.1-0.1-0.2 0-0.3 0.1-0.5 0-0.1-0.2-0.4-0.3-0.8-0.3 0-0.1 0.2-0.1 0.2-0.1-0.3 0.1-0.6 0.1-1 0.1h0.7c-0.2 0.1 0.1 0.1 0.1 0.3 0.2-0.3 0.3 0.1 0.5 0.2 0.3-0.2 0.6 0 0.9-0.1zm0.4 0.1c-0.2 0-0.2 0.1-0.3 0.1 0.3 0.2 0.3 0 0.3-0.1zm0.4-0.2c0.2 0 0.2-0.1 0.2-0.2-0.4-0.2-0.5 0.2-0.8 0.1-0.2 0.3 0.4 0.2 0.6 0.1-0.2-0.1-0.3-0.1-0.3-0.1 0.1-0.1 0.5 0 0.3 0.1zm0.4 0.4c0.1-0.1-0.1-0.3-0.1-0.1 0 0 0.1 0 0.1 0.1-0.3-0.1-0.3-0.1-0.4-0.1 0 0.1 0 0.2 0.1 0.2 0-0.1 0.1-0.1 0.3-0.1zm0.5 0.2c-0.2-0.1-0.5-0.2-0.7-0.1 0.1 0.1 0.4 0 0.6 0 0 0 0 0.1-0.1 0.1 0.1 0.1 0.2 0.1 0.2 0zm2.9 0.4c-0.2 0-0.2 0.1-0.3 0.1 0 0.1 0.1 0.2 0.3 0.1v-0.2zm1-0.6c-0.3 0-0.5 0.1-0.8 0 0.1 0.2 0.8 0.1 0.8 0zm0.5-0.1c-0.1 0-0.3 0-0.4 0.1 0.2 0 0.2 0.1 0.3 0.1s0.1-0.1 0.1-0.2zm1-0.3v0.1c0.1-0.1 0.5 0 0.5-0.2-0.3 0.1-0.3 0.1-0.5 0.1zm-0.1 0c-0.2 0-0.5 0.1-0.6 0.1 0.1 0 0 0.1 0 0.1 0.4 0.1 0.4-0.1 0.6-0.2zm-1 0c0.2-0.1 0.8 0.1 1-0.2-0.3 0.1-0.9 0-1 0.2zm0.3-0.6c0-0.1-0.1-0.2-0.3-0.2 0.1 0.2 0.2 0.2 0.3 0.2zm-0.8-0.3h0.1c0.2 0 0.3-0.2 0.4 0 0-0.2 0.4 0 0.3-0.2-0.2 0-0.2 0.1-0.4 0.1-0.1-0.1 0-0.1 0-0.2-0.1 0.2-0.4 0.1-0.4 0.3zm-0.3 0.1h0.1c-0.2 0-0.2-0.1-0.4 0 0.1 0.3 0.5 0 0.8 0.1 0-0.1-0.4-0.1-0.5-0.1zm0-0.1c-0.2-0.1 0.1-0.1 0.2-0.1v-0.2c-0.2 0.1-0.1-0.2-0.4-0.1 0.1 0.2-0.3 0-0.3 0.2 0.3 0.1 0.3 0 0.1 0.2 0.1 0.1 0.4 0.1 0.4 0zm-1.7 0.5c-0.1 0.2 0.5 0.1 0.5 0h-0.5zm-1.1 0.9c0.1-0.1 0-0.1 0.1-0.2-0.5 0.1-0.7 0-1.1-0.1v0.1s-0.1 0 0 0c0-0.1 0.1 0 0.1 0.1 0.2-0.1 0.4 0.1 0.5 0l-0.1 0.2c0.3 0 0.2-0.3 0.5-0.3 0 0.1-0.2 0.1-0.2 0.3 0.6-0.1 1.7 0 2.6-0.1-1.1-0.1-2 0-2.4 0zm-0.7-1.2c0 0.1-0.1 0.1-0.2 0.1v0.2h0.4c0 0.1 0.2 0.2 0.1 0.2-0.1-0.1-0.6 0-0.4-0.2 0 0-0.1 0.1-0.2 0.1v0.1c-0.1 0-0.2 0.1-0.3 0.2 0.3 0 0.4 0.2 0.7 0.2-0.1-0.1 0.2-0.2 0.2-0.1 0 0-0.1 0-0.1 0.1h0.4c0-0.2 0.1-0.1 0.4-0.2 0-0.2-0.3-0.1-0.3-0.1 0-0.1 0.2 0 0.1-0.1-0.1 0-0.3 0.1-0.4 0 0.1-0.2 0.7 0 0.7-0.2-0.5 0.1-0.8-0.2-1.1-0.3zm7.9-0.9c-0.4 0.1-0.7 0.2-0.9 0.3 0.3-0.1 0.1 0.1 0.4 0.2 0.1-0.1 0-0.2 0.3-0.2 0.1-0.2-0.2 0-0.2-0.2 0.2-0.1 0.1 0.1 0.3 0-0.1 0 0.1 0 0.1-0.1zm2.2-0.5c-0.2 0-0.2 0.1-0.1 0.2 0.1 0 0.2 0 0.1-0.2zm-0.9-0.1c0 0.2 0 0.3 0.1 0.3 0-0.1 0.1-0.2 0.2-0.2-0.2 0-0.1-0.2-0.3-0.1zm0.9-0.1c-0.2 0-0.5 0.1-0.6 0.2 0.1 0 0.1 0.1 0.1 0.1-0.3 0.1-0.6 0.2-0.6 0.4 0.7-0.2 0.7-0.5 1.1-0.7zm-0.1 0.9c0.2 0 0.2-0.1 0.4-0.2-0.1 0.1 0.3 0.1 0.2 0-0.4-0.1-0.8 0.2-1.2 0.4 0.1 0.1 0.2-0.1 0.4-0.1 0 0.1-0.1 0.1-0.1 0.2 0.4-0.1 0.2-0.3 0.3-0.3zm1.3 0.1c0.1-0.1-0.1-0.3-0.3-0.2 0.1 0 0.2 0 0.1 0.1-0.2 0-0.1-0.2 0-0.3-0.4 0.3 0-0.3-0.4-0.1 0.1 0.1 0 0.2 0.2 0.3-0.5 0.1-0.3 0.4-0.9 0.4 0.1 0.2 0.9-0.1 0.6 0.2 0.2-0.1 0.5-0.1 0.6-0.2-0.4 0.1-0.2-0.3 0.1-0.2zm1.8-0.5c0.1 0 0.6-0.2 0.4-0.2-0.2 0.1-0.2-0.1-0.4 0 0.1 0.1 0 0.1 0 0.2zm-3-6.6c0.2-0.1 0.4-0.2 0.6-0.2-0.3-0.1-0.7 0-0.6 0.2zm-1 0.4c0.2-0.1 0.3-0.1 0.5-0.2h-0.2c0 0.1-0.3 0.1-0.3 0.2zm2 4.8c0-0.2-0.2-0.1-0.2-0.2-0.1 0-0.2 0-0.2 0.1 0.3-0.2 0.2 0.1 0.4 0.1zm0.5-0.9c0.1-0.1-0.1-0.1 0-0.2 0.3-0.1 0.5-0.2 0.4-0.3h-0.1c-0.1 0.2-0.5 0.1-0.5 0.3h-0.2c-1.4 0.5-2.7 1-4.2 1.5h0.2c0 0.2 0.3 0.1 0.1 0.2 0.1 0 0.6-0.3 0.5-0.1 0.1-0.1 0.2-0.2 0.2-0.3 1.3-0.3 2.7-0.5 3.6-1.1zm0.2 0.5c-0.1-0.1-0.2 0-0.3-0.1 0.1 0 0.2-0.1 0.3-0.2-0.1 0.1-0.2 0.1-0.3 0 0.2 0.2-0.4 0.2-0.2 0.3 0.1 0 0.2-0.1 0.3 0-0.1 0-0.2 0.1-0.2 0.1 0.1 0 0.1 0.1 0 0.1 0.1-0.1 0.3-0.1 0.4-0.2zm0.2-0.2s0.1 0 0.1-0.1c-0.3 0-0.1 0.2-0.2 0.3 0.1 0 0.1 0 0.2 0.1 0.3-0.2-0.1-0.2-0.1-0.3zm0.9 0.7c0-0.1-0.1-0.1-0.1-0.2-0.2 0-0.1 0.1-0.1 0.2 0 0 0.1 0.1 0.2 0zm0.4 0.2c-0.3 0-0.4 0.2-0.5 0.4 0.1-0.2 0.4-0.2 0.5-0.4zm0.3-0.7c0.1-0.1 0.4-0.1 0.4-0.2-0.5 0.1-0.4 0.1-1 0.2 0.1 0.2 0.3 0 0.5 0.1-0.1 0-0.2 0.1-0.1 0.2-0.1 0.1-0.3 0-0.3 0.1 0.1-0.1 0.3-0.1 0.3 0.1 0.2-0.2 0.3-0.2 0.5-0.3h-0.2c0.2-0.1 0.5 0 0.5-0.2-0.3 0-0.5 0.1-0.6 0zm0.3-0.3c-0.3 0.1-0.4 0-0.6 0-0.1 0.2 0.6 0.2 0.6 0zm-1 0.3s0.2 0.1 0.2 0h-0.1 0.2c0.1-0.3-0.3-0.1-0.3 0zm-0.5 0.2h0.3c0 0.1-0.2 0.2-0.3 0.1 0 0.2 0.2 0 0.4 0-0.2-0.2 0.2-0.1 0.1-0.3-0.1-0.1-0.1 0.1-0.3 0.1 0-0.2-0.2 0-0.2 0.1zm1.3-1.7c0.1-0.1 0.1-0.2 0.1-0.3h-0.1c0 0.1-0.1 0.1-0.2 0.1-0.2 0.1-0.4 0.2-0.7 0.3 0 0.1-0.2 0.1-0.1 0.3 0-0.2 0.9 0 0.6-0.3 0.2 0 0.6 0.2 0.7-0.1 0.1 0 0.1-0.1-0.3 0zm2.3-1c-0.1-0.1 0.1-0.2 0-0.3-0.2 0.1-0.2 0.4 0 0.3zm15.5-17.9c-0.1-0.3-0.2 0-0.3-0.2 0 0.1-0.1 0.1-0.1 0.2 0.2 0.1 0.4 0.3 0.4 0zm1.1 0.1c0-0.5-0.3 0.3-0.5 1.4l0.1-0.1s0 0.2-0.1 0.3c-0.1 0.3-0.1 0.6-0.2 0.9 0.1 0.2 0.4-1.3 0.7-2.5zm1.5 3c0.2-1.1 0.8-3.3 0.5-3.1-0.7 3 0-1.4-0.6 1.1-0.1 0.9-0.2 2 0 2h0.1c-0.1 0-0.1 0 0 0zm6.4-9.6c0-0.8-0.3-0.2-0.8 1.8 0.2-0.3 0.5-1.1 0.8-1.8zm-34 19.8c-0.1 0-0.2 0.1-0.1 0.2h0.1-0.1c0-0.1 0.1-0.1 0.1-0.2zm-62.3-95.9c0.3-0.3 0.6-0.5 0.8-0.8v0.1c0.1-0.1 0.2-0.2 0.3-0.2h0.1 0.3c-0.1-0.1-0.1-0.2-0.2-0.2 0.1-0.2 0.1-0.2 0.3-0.3 0.1 0.1 0 0.2-0.1 0.3 0.1 0.1 0.2-0.2 0.2-0.2 0.1 0.2-0.2 0.2-0.1 0.5 0.2 0 0.3 0.1 0.5-0.1v-0.1c-0.1-0.1-0.1-0.1-0.1-0.2-0.1-0.2-0.2-0.3-0.3-0.4 0.2-0.2 0.4-0.3 0.5-0.5h0.3c0.1-0.1-0.1-0.2-0.1-0.3 0.1 0 0.2 0.1 0.3 0.1-0.1 0.1-0.1 0.1-0.1 0.2 0.2 0 0.4 0.1 0.6 0.1 0.1 0 0.1-0.1 0.2-0.3v-0.1c0-0.1-0.1-0.1-0.1-0.2 0.1-0.1 0.2 0 0.3 0.1l0.2-0.2c-0.3-0.1-0.6-0.1-0.9-0.2 0.2-0.1 0.3-0.3 0.5-0.4 0 0 0.1 0 0.1-0.1 0.1-0.1 0.2-0.2 0.4-0.3l-0.1 0.1c0-0.1 0.1-0.1 0.1-0.2l0.1 0.1 0.1-0.1c0-0.1 0.2-0.1 0.2-0.2 1-0.8 2-1.6 3-2.3-0.2 0.1-0.4 0.1-0.7 0.2-0.1-0.1 0-0.2 0-0.3 0.2 0.1 0.3-0.3 0.4 0 0.2-0.2 0.2-0.2 0.5-0.3 0 0.1-0.1 0.1-0.1 0.1h0.1c0.1-0.1 0.2-0.1 0.3-0.2 0-0.1-0.2 0-0.2 0.1-0.1 0 0-0.1-0.1-0.1 0.4-0.2 0.6-0.4 1-0.6-0.1 0.1-0.1 0.2-0.1 0.3 0.9-0.6 1.8-1.2 2.8-1.8-0.1-0.1-0.3 0.1-0.4 0.2 0.1-0.3-0.2 0.2-0.3-0.1 0.4-0.1 0.8-0.7 1.2-0.8-0.2 0.1-0.2 0.2-0.1 0.4-0.1 0.1-0.2 0-0.2 0.1v0.1c0.2-0.1 0.3-0.2 0.5-0.3-0.1 0-0.2 0.1-0.3-0.1h0.4c0.6-0.4 1.2-0.7 1.8-1h-0.1c0.1-0.2 0.3-0.3 0.5-0.3 3.1-1.7 6.4-3.1 9.9-4.3-0.4 0-0.6 0-1 0.2v-0.1c0.2-0.3 0.4-0.2 0.6-0.4 0 0.2 0.3 0 0.3 0.1l-0.1 0.1s0.1 0.1 0.2 0c0.1 0 0-0.1 0-0.2 0.1 0.1 0.3 0 0.3-0.1 0.1 0 0.3 0 0.3 0.2 0.4-0.1 0.7-0.2 1.1-0.3 0 0 0-0.1-0.1-0.1 0-0.1 0.1 0 0.1 0s0-0.1 0.1-0.1c-0.1-0.1-0.2 0.1-0.4 0 0-0.2 0.3-0.1 0.5-0.2v0.2c-0.1 0-0.2 0-0.2 0.1 0.2-0.1 0.4-0.1 0.6-0.2 0 0-0.1 0-0.1-0.1s0.3-0.1 0.3 0c1.2-0.3 2.4-0.7 3.7-0.9-0.1 0-0.2-0.1-0.4-0.1-0.1-0.1 0-0.1 0-0.1-0.3 0.1-0.5-0.1-0.6 0 0 0 0.1 0.1 0.2 0.1-0.1 0.1-0.2 0.2-0.4 0.2 0-0.1-0.1-0.1-0.2-0.1 0.1-0.2 0.5-0.1 0.4-0.4-0.2 0.2-0.7-0.2-0.8 0.1-0.2-0.1-0.5 0.1-0.6-0.1-0.5-0.1-0.9 0.3-1.1 0.2-0.1 0-0.1 0.1-0.1 0.2-0.4 0-0.6 0.1-0.8 0 0.1 0 0.1 0.1 0 0.1v-0.2l0.5-0.1c0 0.1-0.1 0.1-0.2 0.1 0.3 0.1 0.4-0.2 0.8-0.2h-0.9c0-0.2 1-0.3 1 0 0.3 0 0.5-0.1 0.8-0.2l-0.1-0.1c0.2-0.2 0.6 0 0.6-0.2 0.2 0.1 0.5-0.1 0.8 0 0.1-0.1 0-0.1 0.1-0.1 0-0.1-0.3 0-0.2-0.1 0.2 0.1 0.4 0 0.4 0.2 0.2 0-0.1-0.1 0-0.2 0.3 0 0.2 0.1 0.4 0 0 0.1-0.2 0.1-0.2 0.2 0.3-0.1 0.5 0 0.9 0 0 0.1-0.5 0-0.3 0.1 0 0.1-0.2 0-0.3 0.1 0 0 0.1 0 0.1-0.1-0.2 0-0.3-0.1-0.4 0 0.3 0 0 0.3 0.1 0.4 0.2 0.3 0.7 0.1 1.5 0.1 0 0 0.1 0 0.1 0.1 0.1 0 0.3-0.1 0.4-0.1 0 0-0.1 0-0.1-0.1 0.1-0.1 0.4-0.1 0.5 0 0.4-0.1 0.8-0.2 1.3-0.2h-0.2c0.1-0.2 0.7-0.4 1-0.2l-0.1 0.1c2.3-0.4 4.7-0.6 7.1-0.7-0.1 0-0.1-0.1-0.3-0.1 0-0.1 0.1-0.1 0.1-0.1 0.2-0.1 0.2 0.1 0.3 0.1 0 0 0 0.1-0.1 0.1h0.7v0.1h-0.1c0.2 0.5 0.2 0.3 0.2-0.1h1.5c0.1-0.1 0.2-0.1 0.3 0h0.3 0.2c0.8 0 1.6 0 2.5 0.1-0.1-0.1-0.4-0.1-0.6 0 0-0.1-0.5-0.1-0.9-0.1 0-0.4 0.6 0 0.8-0.2 0-0.1-0.3 0-0.2-0.2 0.1 0.1 0.2 0 0.4 0-0.1 0.1 0 0.2 0.1 0.2 0 0.1-0.1 0-0.2 0 0.2 0.2 0.6 0.1 0.8 0.3h0.6c0.3 0.9 0.4 0.2 0.5 0.1h-0.1s0.1-0.1 0-0.1c0.1-0.1 0.2 0 0.2 0h0.2c0.1-0.1 0-0.2 0.2-0.2-0.1 0-0.1 0.1-0.1 0.2 1 0.1 2.1 0.2 3.1 0.3l0.1-0.1 0.1 0.1c0.7 0.1 1.4 0.2 2 0.3v-0.1c0.2 0 0.2 0.1 0.2 0.2 0.1 0 0.3 0 0.4 0.1 0.2 0 0.4 0.1 0.5 0.1h0.2c0.1-0.1 0.4 0 0.4 0.1v0.1h0.1v-0.1l0.1 0.1c0.3 0.1 0.7 0.1 1 0.2 0.1-0.1 0.4 0.1 0.5-0.1 0-0.1-0.1 0-0.2 0 0.2-0.2 0.4 0.1 0.7 0.2-0.2 0.1-0.4 0.1-0.6 0.1 0.4 0.1 0.7 0.2 1.1 0.2 0 0.1 0.1 0.1 0.1 0.1v-0.1c1.2 0.3 2.4 0.6 3.6 1-0.2 0.1-0.4 0.4-0.6 0.9 0.1 0.9 0.8-0.2 1 0.9l0.4-1.6c9.9 3.1 18.7 8.6 25.8 15.9h-0.8c0.9 0.2-0.9 0.8 0.3 0.8 0.4-0.3-0.1-0.6 0.5-0.8 0.6 0.6 1.3 1.3 1.9 2-0.1 0.6-0.3 0.9-0.4 1.1-0.2 0.4-0.3 0.7-0.6 1.6 0.1 0.4 0.4-0.3 0.6-0.5 0.2-1 0.4-1.8 0.4-2.3 1.6 1.8 3.1 3.6 4.5 5.6-0.1 0.3-0.3 1-0.5 1.6-0.1 1 0.2 0.6 0.6-1.4 0.8 1.1 1.5 2.3 2.3 3.4-0.1 1.4-0.7 3.5-1.2 6.1 0.1 0.3 0.4-1.1 0.4-0.5 0.5-2 0-0.9 0.4-2.5 0.2-0.7 0.6-1.7 0.8-2.4 0.4 0.6 0.7 1.2 1.1 1.9-0.1 0.1-0.2 0.2 0 0.2h-0.2c0.3 0-0.2 0.1 0.1 0.2h-0.2s0.1 0 0.1 0.1h-0.1v0.2s-0.1-0.1-0.1-0.2c-0.1 0.1 0.1 0.2-0.2 0.3v-0.1c0-0.2 0.1-0.4 0.1-0.6 0-0.1 0-0.1-0.1-0.2h0.1c0-0.6-0.1-0.6-0.4 0.1-0.4 1.9-0.2 1.7-0.6 3h-0.1v0.1c0 0.2-0.1 0.4-0.2 0.6 0.1-0.2 0.1-0.4 0.2-0.6h0.1s0.1-0.1 0-0.1c0.6-2 0.2 0.1 0.9-2.2h0.2c-0.3 0-0.2 0.1 0 0h0.1-0.3c-0.1 0 0.3 0 0 0 0 0 0.2 0.1 0.3 0h-0.1c0.2 0 0.5-0.1 0.3-0.1 0.2 0 0.3-0.1 0.4-0.1 0.1 0.3 0.3 0.5 0.4 0.8-0.3-0.1-0.5-0.2-0.7 0v0.1-0.1c-0.1 0.1-0.2 0.4-0.3 0.8 0.5-0.1 0.9 0 1.4-0.1 0.9 1.8 1.7 3.7 2.4 5.6h-0.2 0.2c0 0.1 0 0.1 0.1 0.2-0.1 0-0.2 0.1-0.1 0.1h0.1 0.1c0.3 0.9 0.7 1.9 1 2.9h4.6c0.1 0.1 0.2 0.1 0.2 0h7.6v1.1c-0.6-0.3-1.3-0.6-1.9-0.5-0.3 0-0.6 0.1-0.8 0.3l-38 0.2c0-0.2-0.2-0.4-0.7-0.6 0.4-0.2 0.6 0.1 1-0.1-0.3-0.1-0.4-0.2-0.4-0.3h12c-0.6-1.5-1.3-2.9-2.1-4.3 0.1 0 0.1 0 0.2-0.1l-0.1-0.1c-0.1 0-0.1 0-0.2 0.1-2.1-3.8-4.7-7.2-7.8-10.3v-0.1c0.4-0.1 0.8-0.2 0.3-0.3 0 0.1-0.1 0.1-0.3 0.2 0-0.1 0.1-0.2 0.1-0.2 0.9-0.1 0.3-0.2 1-0.3-0.1-0.2-0.7 0.1-1 0.2 0.1-0.2 0.2-0.6 0.3-1.2-0.1-0.5-0.5 0.9-0.7 0.5-0.1 0.4-0.2 0.7-0.2 0.9 0-0.1 0-0.1-0.2-0.2v-0.1c0.2 0 0.2 0 0.2-0.1h-0.2c-0.1-0.1-0.1-1.1-0.4-0.1-2.9-2.8-6.2-5.2-9.8-7.1v-0.2l-0.2 0.2c-6.7-3.6-14.4-5.7-22.6-5.7-9.8 0-18.9 3.1-26.4 8.3 0-0.1 0.1-0.1 0.2-0.3-0.6 0.1-0.7-1.1-0.9-0.5-0.1 0 0-0.2 0-0.4-0.1 0-0.3-0.1-0.3 0.1 0.1 0.2 0.2 0.5 0.2 0.9l-0.2-0.2c-0.1 0.3 0 0.5 0.1 0.7 0-0.1 0.1-0.1 0.2-0.1 0.1-0.2 0.1-0.5 0.2-0.5 0.2 0.1 0.4 0.4 0.5 0.4-0.6 0.4-1.1 0.8-1.6 1.2-0.2 0-0.5 0.1-0.2 0.1-0.7 0.5-1.3 1.1-2 1.6-0.2 0-0.3-0.1-0.3-0.3 0.6 0.1 0.9-0.2 1.2-0.5-0.4-0.1-0.9 0.4-1.1 0.1 0.1-0.4 0.3-0.1 0.4-0.3 0 0-0.1-0.1 0-0.3-0.2-0.2-0.2 0.4-0.4 0.2l-0.2-0.3c0.1 0 0.2 0.1 0.3-0.1-0.2-0.5-0.5-0.6-0.9-0.2 0.3-0.5-0.4-0.5-0.6-0.1 0-0.5-0.4-0.3-0.4-0.5 0.1-0.6 0.5 0 0.5-0.4-0.2 0.1-0.2-0.1 0-0.4h-0.1c0.1-0.1 0.2-0.2 0.4-0.3l0.1 0.1c0.2-0.6 0.3-0.1 0.6-0.1 0-0.1-0.1-0.3-0.2-0.4 0.2-0.1 0.4-0.3 0.5-0.4 0.2 0.3 0.3 0.5 0.6 0.3-0.2 0-0.3-0.3-0.4-0.5l0.2-0.2c0.6 0.3 1 1.2 1.6 0.6-0.5 0-0.8-0.8-1.4-0.8 0.5-0.3 0.9-0.7 1.4-1 0.6 0.4 0.9 1.1 1.6 0.3-0.3-0.1-0.2-1-0.5-1.1 0.1-0.1 0.2-0.1 0.3-0.2 0.3 0.1 0.6 0.4 0.8 0.4 0.1-0.2 0.1-0.7 0-0.8 0 0.3-0.2 0.3-0.5 0.2 0.9-0.6 1.8-1.1 2.7-1.6 0 0.4 0.1 0.7 0.2 0.9-0.1-0.3 0.1-0.8-0.2-1 7.1-3.9 15.3-6.2 24-6.2 8.3 0 16.2 2 23.2 5.5 0 0.1 0 0.1-0.1 0.2 0-0.1 0.1-0.1 0.1-0.2 0.1 0 0.2 0.1 0.3 0.1 0.1 0.2 0.1 0.5 0.3 0.2 3.2 1.7 6.2 3.8 9 6.1-0.2 0.6-0.3 1.3-0.4 1.7 0.2 0.1 0.3-0.7 0.5-1.6l0.2 0.2c0 0.1-0.1 0.2-0.1 0.3l0.3 0.1v-0.2c3.1 2.7 5.8 5.7 8.2 9.1-0.5 0-0.6 0.2-0.5 0.3h0.7c1.8 2.6 3.4 5.4 4.7 8.4 0.1-0.1 0.2-0.1 0.3 0v0.5c-0.1-0.3-0.2-0.4-0.3-0.3 0.2 0.5 0.4 0.9 0.6 1.4h2.7c-0.1-0.3-0.2-0.6-0.1-0.7-0.1-0.4-0.2-0.2-0.3-0.1-0.2-0.2 0.2-0.1 0-0.5 0.1 0.1 0.2 0.3 0.3 0.2 0.1 0.4 0.2 1 0.3 0.8 0 0.1 0 0.1-0.1 0.1h3.5c0.1 0.1 0.2 0.2 0.2 0.3 0.1-0.1-0.1-0.2-0.1-0.3h1.7c-0.1-0.2-0.1-0.3-0.2-0.5v-0.1c0.2 0.1 0.5-0.2 0.9-0.3 0.1 0.1 0.3 0 0.5 0h0.1c0-0.1 0.1-0.1 0.2-0.1 0 0 0.1-0.1 0.2-0.1h0.1l0.1-0.1v0.1h0.2s0-0.1 0.1-0.1c0-0.1 0.1-0.1 0.2-0.1v-0.1c-0.3 0.1-0.5 0.2-0.7 0.2 0 0 0-0.1-0.2-0.1 0.2 0-0.2 0.1 0 0.1h0.1c-0.2 0.1-0.5 0.1-0.8 0.2 0.5-0.1 0.5-0.3 0.2-0.2 0 0.1-0.3 0.3-0.5 0.3 0-0.1 0.3-0.2 0.4-0.3-0.6 0.2-0.8 0.5-1.2 0.7-0.5-1.3-1-2.7-1.5-4 0.1 0 0.1 0 0.2-0.1v-0.1h-0.2s0-0.1-0.1-0.1c0.1-0.1 0-0.3 0.2-0.3h0.1c0.1 0 0.2-0.1 0.4-0.1 0-0.1-0.3 0-0.5 0-0.1-0.1 0.1-0.2 0-0.3-0.1 0.1-0.1 0.2-0.1 0.2h-0.1c-0.8-1.7-1.6-3.3-2.5-4.9 0.1 0 0.2-0.3 0.4-1-0.2 0.5-0.2-0.2-0.2-0.5h0.6c-0.1-0.1 0.4-0.5-0.3-0.4 0 0 0 0.1-0.1 0.1 0.6-0.1 0.1 0.1-0.2 0.2 0-0.1 0-0.1-0.1 0h-0.1 0.1c0 0.1-0.1 0.2-0.1 0.4 0 0.4-0.1 0.8 0 1-0.2-0.4-0.5-0.8-0.7-1.2l0.5-1.8c0.1-0.8-0.2-0.3-0.4 0.5 0 0.2 0.1 0 0 0.6-0.1 0-0.1 0.2-0.1 0.4-0.8-1.2-1.5-2.4-2.4-3.6 0-0.2 0-0.3 0.1-0.6-0.1 0.2-0.1 0.4-0.2 0.5-0.8-1.1-1.7-2.3-2.6-3.3 0.3-1.2 0.8-3.3 0.5-2.9-0.3 1.4-0.4 2-0.6 2.7-0.2-0.2-0.4-0.4-0.5-0.6 0.1-0.5 0.3-1.2 0.3-1.6-0.4 0.9-0.5 0.2-0.9 1-2-2.3-4.2-4.4-6.5-6.3v-0.4c0.2-0.8 0.3-0.8 0.5-1.8-0.7 1.1 0-3.3-1 0.4 0.2-0.1 0.1 0.6 0.1 1.4-0.2-0.2-0.4-0.3-0.6-0.5 0.2-0.5 0.4-1 0.5-1.6 0.1-2-0.3-1.4-0.8-1l-0.5 0.1c-0.1-0.1 0-0.2-0.3-0.2-0.1 0.1-0.5 0.2-0.4 0.4h0.5c-0.2 0.6-0.3 1-0.4 1.4v0c-5.3-3.9-11.4-7-17.9-8.9 0 0.1-0.1 0.2-0.2 0.2-0.1-0.1 0-0.3 0.1-0.3-2.4-0.7-4.9-1.3-7.4-1.7 0 0-0.1 0.1-0.2 0.1v-0.1c-3-0.5-6-0.7-9.2-0.7-0.9 0-1.8 0-2.6 0.1 0 0.1 0 0.1-0.1 0.1 0 0 0.1 0 0.1 0.1 0.1 0 0.1-0.1 0.1-0.2 0.1 0.1 0.2 0.1 0.5 0.1-0.1 0.1-0.4 0.2-0.5 0.1-0.1 0 0 0.1-0.1 0.1 0.2 0.2 0.6-0.2 1-0.1 0-0.1-0.2 0-0.2-0.2 0.3-0.1 0.4-0.1 0.8 0l-0.2 0.2c0.5 0.1 0.9 0.1 1.6 0.1 0 0.3-0.8 0.1-0.7 0.2 0 0.1-0.3 0-0.2-0.1-0.2 0.1-0.3 0-0.5 0-0.3 0.2-0.7 0.3-1.1 0.1-0.1 0.1-0.1 0.1-0.3 0.1 0 0.1 0.1 0.1 0.1 0.1 0.2 0 0-0.2 0.2-0.1 0.1 0.3 0.3 0.4 0.7 0.5 0.1-0.1 0.2-0.1 0.4-0.1-0.2 0.1 0 0.1-0.1 0.2-1-0.1-1.8 0.1-2.6-0.1 0.3-0.2 0.4 0 0.6 0 0.1-0.1 0-0.1 0-0.2-0.4 0.1-0.6 0-1 0 0-0.2 0.3-0.1 0.4-0.2 0.3 0.2 0.3 0 0.7 0 0-0.3-0.6-0.1-0.5-0.3-0.1 0-0.2 0-0.2 0.1-0.2-0.1-0.1-0.3-0.4-0.3 0-0.1 0.4-0.1 0.4 0-0.3-0.1 0 0.2 0.3 0.1l-0.3-0.3h-0.5 0.1c-0.4 0.1-1.1 0-1.7 0.1l0.1-0.1h-0.2-0.1-0.1c-2.3 0.3-4.7 0.7-6.9 1.2v0.2c-0.4-0.1-0.5 0-0.9 0.1v-0.1c-0.3 0.1-0.5 0.1-0.8 0.2h-0.1v0.1c0.5-0.2 0.8 0.1 1.6-0.1 0 0.1 0 0.1 0.1 0.1-0.5 0.2-1.3 0.2-1.8 0.1-0.1 0.2-0.6 0.1-0.8 0.2h0.1c-0.1 0.1 0 0.2 0.1 0.4-0.1 0.1-0.1 0-0.2 0 0-0.2 0.1-0.3-0.1-0.3 0.1-0.1 0.1 0 0.1-0.2 0.1 0 0.2 0 0.3-0.1-0.9 0.3-1.8 0.5-2.7 0.8l0.2 0.1v0.1c0 0.1-0.1 0.1-0.2 0.1 0.1 0 0.2 0.1 0.3 0.1 0 0.1-0.1 0.1-0.1 0.2s0.2 0.1 0.3 0h-0.2c0-0.1 0.3-0.1 0.3-0.2 0.1 0 0 0.2 0.2 0.2 0.1-0.1 0-0.1 0-0.2h0.4c0 0.1-0.1 0.2-0.2 0.2 0.1 0.1 0.2-0.1 0.4 0 0 0.1-0.1 0.2-0.3 0.2-0.3-0.2-1 0.4-1.1-0.2-0.3 0.2-0.7 0-0.8 0.2v-0.2c0.3-0.1 0.4 0.1 0.6 0-0.1-0.2-0.5-0.1-0.6-0.2h-0.1v0.1h-0.1c-0.1 0-0.2 0.1-0.4 0.1 0 0 0.1 0 0.1 0.1-0.1 0-0.1 0-0.2-0.1h-0.1s-0.1 0.1-0.2 0.1c-5.5 2.1-10.6 4.9-15.2 8.5-0.3-0.1-0.5-0.2-0.6-0.7 0 0.3 0.1 0.6-0.2 0.6-0.8-0.4-2.1-0.6-3.4-0.8v0.1c-0.1 0-0.2 0.2-0.3 0.2 0.4 0.2 0.8 0.8 1.3 0.4h0.1v-0.1c0-0.1 0.1-0.1 0.2-0.1 0.1 0.1-0.1 0.3-0.2 0.2v-0.1s0 0.1 0.1 0.2c0.5 0.6 1.8-0.2 2.3 0.5 0-0.3 0.2-0.2 0.3-0.1-0.1 0.1-0.3 0.2-0.4 0.3-0.2-0.2-0.7-0.2-0.5 0.2-0.2 0.1-0.2-0.6-0.4-0.2 0.3-0.1-0.4 0.8-0.4 0.3 0.1-0.1 0.3-0.1 0.4-0.3-0.4-0.3-1.3-0.6-1.7-0.1-0.3-0.2-0.6-0.2-0.9-0.3h-0.1s-0.1 0-0.1-0.1h-0.1c-0.3 1.4-0.4 1.4-0.5 1.4-0.1 0.1 0 0.1-0.2 0.2 0-0.2-0.3 0-0.1-0.2 0.2 0.1 0.2-0.1 0.3-0.2-0.4-0.1-0.8-0.1-0.8 0.8h0.2v-0.2c0.1 0.2 0.1 0 0.1-0.1 0 0.1 0 0.1 0.1 0.1h0.1v-0.1 0.1h0.2c-0.1 0.3 0.1 0.3 0 0.7-0.1 0-0.2 0-0.3 0.1-0.2-0.1-0.1-0.5-0.3-0.4 0 0.7-0.7 0.7-0.8 0.3 0.1 0 0.2 0 0.2-0.2-0.2-0.2-0.5-0.2-0.8-0.1 0.2 0.1 0.3 0 0.5 0.2-0.3 0.1-0.5-0.1-0.7 0 0.1-0.1 0.1-0.1 0.1-0.2-0.2 0-0.3 0.1-0.4 0.2 0.6 0.6 1.2 1.1 0.4 1.8 0.1-0.2 0.1-1.3-0.1-1.1 0.2 0.1-0.3-0.1-0.4 0.2-0.2-0.1-0.1-0.6-0.2-0.7h-0.4zm14.8 4.1c0.1-0.5-0.3-0.6-0.4-0.4 0.1 0 0.2 0.1 0.1 0.3l0.3 0.1zm-2 1.9c-0.1-0.1-0.4-0.4-0.5 0 0.1 0 0.4 0.3 0.5 0zm1.1-0.7c-0.1-0.1 0.1-0.2 0.1-0.4-0.3 0.2-0.7 0.3-0.6 0.4 0 0.3 0.4 0.3 0.5 0zm0.4 0.4c0.3-0.2 0.5 0.4 0.7-0.2-0.3 0-0.4 0-0.6-0.3-0.1 0.2-0.1 0.4-0.1 0.5-0.3 0.2-0.2 0.1-0.6 0.1 0 0.2-0.2 0.3-0.1 0.4 0.3-0.6 0.4 0.3 0.7 0-0.1 0-0.1-0.2 0-0.5zm0.5 1c-0.1-0.1-0.2-0.1-0.2-0.3 0.2-0.2 0.2-0.4-0.1-0.4-0.1 0.4 0 0.4-0.1 0.8 0.2-0.2 0.4 0.1 0.4-0.1zm1.4-2.4c-0.1 0-0.1 0-0.1-0.1v-0.1c-0.4 0.3-0.3 0.9-0.6 0.4-0.1 0.2 0 0.3-0.1 0.5 0.2 0 0.3-0.2 0.3 0.2-0.2 0.1-0.6-0.2-0.7 0.2 0.3-0.3 0.5 0.7 0.8 0.2-0.1-0.4 0.1-1.1 0.4-1.3zm1-0.4c-0.2-0.1-0.3 0-0.4 0.2 0.5 0.1-0.1 0.2-0.2 0.6 0.2 0.3 0.2-0.3 0.5-0.2 0-0.4 0-0.2 0.1-0.6zm0.7 0.7c-0.1-0.1-0.6-0.6-0.8-0.1 0.3 0 0.6 0.4 0.8 0.1zm0.6-2c-0.3-0.2-0.1-0.3-0.5-0.3 0.1-0.2 0.3-0.3 0.3-0.6-0.5-0.1-0.4 0.6-0.7 0.9 0.4 0.2 0.5 0.2 0.9 0zm1.1-0.5c-0.1-0.3-0.5-0.2-0.6 0.1 0.6 0 0 0-0.2 0.4l0.3 0.1c0.1-0.6 0.4-0.2 0.5-0.6zm58.9 8.9c-0.2 0-0.2 0-0.2-0.1-0.4 0.1-0.2 0.1-0.5 0.1 0 0.1 0.3 0.1 0.2 0.2 0.4 0 0.3-0.1 0.5-0.2zm8.2 10.1c-0.6 0.2-0.4 0.3-0.7 0.5 0.5-0.1 0.7-0.3 0.7-0.5zm0.7-0.9c0 0.1-0.3 0.1-0.4 0.1l-0.2 0.2c0.5 0 0.9-0.3 0.6-0.3zm-2.3 5.7c-0.2 0.3-0.6-0.3-0.6 0.2 0.2-0.1 0.6 0.4 0.6-0.2zm0.2 0.8c0.3 0.1 0.1-0.5 0.3-0.5 0.2-0.4-0.5-0.1-0.3 0.5zm14.7-1.1h-0.2c0 0.3-0.3-0.3-0.4-0.1l0.1 0.4s-0.1 0 0 0.2c0.1 0 0.6 0 0.3-0.5h0.1s-0.1 0.1 0.1 0c-0.1 0 0 0 0 0zm2.2 0.4c0.3 0.1 0.5 0 0.6-0.2-0.2-0.2-0.5 0-0.6 0.2zm-3.7-4.1c0.6-0.3 0.8-0.3 1.1-0.4-0.2 0-0.1 0 0-0.1-0.4 0.1-0.7 0.2-1.2 0.3-0.1 0.2 0.5-0.1 0.6 0-0.1 0-0.6 0.2-0.5 0.2zm0.3 0.2c-0.1 0.2-0.2-0.2-0.3-0.1 0 0.3 0.2 0.3 0.3 0.6 0.1-0.1 0.1-0.2 0-0.5zm0.7 1.1-0.1-0.3c0 0.1-0.2-0.1-0.1 0.3 0.1 0.1 0.1-0.1 0.2 0zm1.4 1c0.2 0.1 0 0.2 0.3 0.2 0.2-0.2 0.2-0.3-0.3-0.2zm-0.4 0.3c0.1 0-0.3 0.1-0.1 0.1l0.1-0.1c0.1 0 0.1 0.1 0.1 0 0 0 0-0.1-0.1 0zm0.1-3.3c0 0.1 0.2 0.1 0.4 0.1 0 0 0.1-0.1 0.2-0.1 0-0.1-0.2-0.1-0.6 0zm-0.7 0.6c-0.5 0.2-0.2 0.2-0.5 0.5 0.2-0.1 0.4-0.1 0.6-0.1 0 0-0.2 0.1 0 0.1 0-0.2 0.7-0.5 1-0.4-0.1-0.1 0.3-0.5 0.1-0.4-0.1 0.2-0.4 0.2-0.8 0.4 0-0.2-0.4 0.2-0.4-0.1zm-0.1-3.8c0.1 0 0.3 0.5 0.4 0.4-0.1-0.4-0.5-0.6-0.4-0.4zm-0.3 0.2c-0.3 0 0.1-0.2-0.3-0.2-0.2 0.2 0.1 0.2 0.3 0.2zm-0.8 1.5c0.4 0.1 0.7-0.4 1-0.2 0.4-0.1 0.8-0.2 0.9-0.4-1 0.4 0-0.2-0.6 0 0.1 0.4-1.1 0.3-1.3 0.6zm0.4-2c0.2-0.2 0-0.4-0.2-0.4 0 0.2-0.3 0.5 0.2 0.4zm-1.4-0.7c0.1 0.5 0.3 0.6 0.5 0.7-0.2-0.8 0.4-0.3 0.1-1.1-0.1 0.4-0.6-0.2-0.6 0.4zm-0.2-2.1c0.3 0 0-0.1 0.2-0.1 0 0-0.2 0-0.1-0.1 0.3 0 0.1-0.1 0.3-0.1-0.3 0 0 0 0-0.1-0.5 0.2-0.3 0.3-0.4 0.4zm-0.5 1.6c0.1 0.2-0.4 2.2-0.1 1.9 0.2-0.7 0.5-1.6 0.8-3.1-0.1-0.6-0.3-0.3-0.7 1.2zm-10.2-12.5c0.1 0 0-0.1 0.1-0.2 0.5 0.9 0.3 0.9 0.1 0.9 0.2 0.3 0.4 0.4 0.6 0.5-0.2-0.3-0.2-0.5-0.3-0.9-0.2-0.3-0.4-0.5-0.4-0.8-0.1 0-0.3 0.1-0.1 0.5zm-0.1-3.1h0.3s0 0.1 0.2 0.1c0-0.1 0.3-0.1 0.2-0.2-0.3 0-0.6 0-0.7 0.1zm-1.1 1.3c0.2 0.1 0.6 0.4 0.6 0.1-0.1 0.1-0.6-0.4-0.6-0.1zm-2.1-3c0.3-0.3 0.3 0.9 0.7-0.5 0.1-1.1-0.3-1-0.7 0.5zm-1.9-0.9h0.6c-0.5-0.1 0.5-0.4-0.2-0.4-0.2 0.1 0.1 0.3-0.4 0.4zm-2.8-2.8c0.2-0.9 0.2 0.3 0.7-1.1-0.1-0.7-0.4-1-0.7 1.1zm-25.8-10.8c0.1 0 0.1 0.2 0.1 0.4 0.1-0.1 0.4 0.1 0.3-0.3-0.1 0.1-0.5-0.5-0.4-0.1zm-5.2-1.5c0.2 0.2 0.3 0.2 0.4 0.1 0-0.1-0.1-0.1-0.2-0.1 0.2-0.1 0.2-0.1 0.3-0.1 0.1-0.2 0.1-0.3 0.1-0.5-0.1 0.2-0.3 0.2-0.5 0.4h0.2c0 0.1-0.2 0-0.2 0.1-0.1 0-0.1 0-0.1 0.1zm-3.1 0.3c0.2 0.5-0.1 0.6-0.1 0.7 0 0 0.1 0 0.1-0.1 0.1 0 0.1 0.1 0.1 0.1 0.1-0.1 0.3 0 0.2-0.6-0.1 0-0.2-0.2-0.3-0.1zm-1.6 0.5c0.1-0.5 0.3 0.3 0.4-0.1-0.1 0-0.1-0.2-0.1-0.4-0.2 0.1-0.4 0-0.3 0.5zm-0.7 0.3c0.3-0.1 0.5 0 0.6-0.2-0.1 0-0.1-0.1-0.2-0.4 0.1 0.4-0.4 0.1-0.4 0.6zm-0.3-0.1c0-0.9 0.7-0.4 0.8-1.1-0.1 0.1-0.3 0.1-0.5 0.2 0.1 0 0.1 0.1 0.2 0.1h-0.3c-0.2 0.1-0.3 0.3-0.2 0.8zm68.8 59.8v0zm-45.9 53.8-0.2 0.1c0.1 0 0.4 0 0.2-0.1zm-6.3-1.1v0 0zm-2 0.9c-0.1-0.1-0.1 0 0 0zm0-0.1zm-50.2-82.6c0.1-0.1 0.3-0.1 0.4 0 0.1-0.5 0.4-0.5 0.8-0.3 0.3-0.3 0.5-0.6 0.8-0.9-0.7 0.2-1.2 0.5-1.7 0.9-0.1-0.1 0.1-0.2 0.1-0.4-0.5 0.1-0.7-0.2-1.3-0.3 0.4-0.6 1.3 0.1 1.8-0.3 0-0.5-0.2-0.7-0.4-1 0.1-0.2 0.1-0.8 0.4-0.7 0.1-0.2 0-0.2 0-0.4-0.2-0.1-0.2 0.2-0.3 0.2 0 0.1 0 0.2 0.1 0.3-0.3 0.3-0.6 0-0.8 0.1-0.1 0.3 0 0.4 0.1 0.6 0.1 0.1 0.2-0.1 0.3-0.3 0.3 0.4 0.1 0.8 0.5 1-0.7 0.8-0.9-1-1.5-0.3v0.4c0.1-0.1 0.4-0.4 0.5 0-0.2 0.2-0.4 0.2-0.7 0.1 0.1 0.4 0.2 0.4-0.1 0.8 0.3-0.2 1.2-0.2 1 0.5zm34.2 69.6 1.6-1.6-0.4-2.3 1 0.5c-0.1 0-0.1 0.1-0.2 0.1 0.1 0 0.2-0.1 0.3-0.1l0.7 0.4h-0.1c0.2 0.2 0.4 0.1 0.6-0.1l1.7-0.9-0.4 2.3 1.7 1.6-2.2 0.4-1 2.1-1-2.1-2.3-0.3zm3.8-2.9v0.3c0.2 0 0.2 0.1 0.4 0 0-0.3-0.2-0.3-0.4-0.3zm-1.9 1.8c0.4 1.3 0.6 0.2 1 1.1l-0.1-0.4v-0.2c-0.2-0.1-0.3 0.1-0.6 0-0.1-0.2-0.3-0.6-0.3-0.5zm-32.9-71.1c-0.4-0.5-0.7 0.1-1-0.4-0.3 1-0.6-0.1-0.9 0.2 0.1 0 0 0.3 0 0.5 0.4 0.1 0.5 0.3 0.8 0 0 0-0.1 0-0.1-0.1 0.3 0.2 0.3-0.4 0.6-0.3 0 0.4 0 0.7-0.1 0.8s-0.1 0.2-0.2 0.2c-0.5 0.3-1.3-0.6-1.4-1.1l0.2-0.4c0.1 0 0.4 0.2 0.5 0 0.3-0.5 1.5 0.7 2.2-0.1-0.9-0.2-1.8-0.4-2.8-0.6v-0.1c-0.2-0.6 0.6 0.1 0.6-0.4-0.2-0.3-0.6-0.2-0.8 0.2 0 0 0 0.1 0.1 0.2l-1-0.1 2.1-2.1c0.1 0.5 0.8 0.1 0.8 0.7 0.1-0.2 0.7 0.3 0.6-0.3-0.2 0.2 0-0.3-0.1-0.4-0.4 0.1-0.5-0.2-0.9 0.1v-0.4l0.3-0.3c0.2 0.1 0.4 0.3 0.6 0-0.2-0.2-0.4-0.2-0.6 0 0.2-0.2 0.4-0.3 0.5-0.5 0 0.2 0.1 0.3 0.2 0.1-0.1 0 0.1-0.3 0.1-0.4l0.4 0.7c0.2-0.1 0-0.7 0.3-0.9 0.2 0.1 0.4 0.2 0.3 0.6-0.2-0.1-0.3 0-0.4 0.3 0.4-0.1 0.5 0.2 0.4 0.7 0.3 0 0.6 0.3 0.8-0.1-0.2 0 0-0.4-0.1-0.4-0.1 0.5-0.6 0-0.6-0.2l0.4 0.1c0.1-0.6-0.3-0.5-0.2-1 0.3 0 0.2 0.5 0.6 0.2 0 0.2-0.1 0.4 0.1 0.4 0.2-0.4 0.7 0.1 0.9 0.5-0.2 0-0.6-0.7-1-0.1 0.1 0.4 0.7 0.1 0.7 0.4 0 0.4-0.6 0-0.4 0.3 0.3-0.2 0.5 0.2 0.8 0.3-1.1 0.9-2.2 2-3.3 3.2zm-1.5-2.5c0.2-0.6-0.4-0.3-0.5-0.1l0.5 0.1zm2.9-1.4c-0.3-0.1-0.5-0.8-0.8-0.3 0.1 0.2 0.3-0.3 0.3 0.1-0.1 0.4-0.5 0.1-0.7 0.4 0.5 0.1 0.8 0.1 1.2-0.2zm-0.2 1.8 0.3-0.5c-0.3 0.1-0.6 0.1-0.8-0.3 0 0.2-0.1 0.2-0.2 0.4 0.2 0.1 0.3 0.2 0.1 0.8 0.2-0.1 0.4-1.1 0.6-0.4zm-5.4 47.9h-0.1s0 0.1 0.1 0.2v-0.2zm-2.6-55 0.2-0.2-0.2 0.2c-0.1 0 0 0 0 0zm-4.4 4.4v0 0zm-0.2-5.7c0 0.1 0.1 0.1 0.2 0.2-0.1-0.1-0.1-0.2-0.2-0.2zm98.7 18.9c-0.1 0 0 0 0 0-0.1 0-0.1 0 0 0zm-92.4-19.2c0.1-0.1 0.2-0.1 0.2-0.2v-0.1c-0.2 0.1-0.2 0.2-0.2 0.3zm-0.5 0.4c-0.3-0.1-0.5-0.2-0.8-0.1v-0.7c-0.5-0.3-1-0.6-1.3-0.9-0.1 0.1-0.2 0.3-0.3 0.5 0.4 0 0.2 0.3 0 0.4 0.3 0.1 0.4-0.1 0.7 0 0 0.2 0.1 0.2 0.1 0.4-0.1 0-0.2 0-0.2 0.2 0.1 0.2 0.3 0.2 0.5 0.2 0 0.2-0.2 0.7 0 0.7 0.1-0.5 0.7 0.1 0.8-0.5 0 0.2 0.1 0.1 0.1 0v0.1c0.2 0 0.3-0.1 0.4-0.3zm-11.6 8.8c0.1 0.1 0.1 0.2 0.1 0.4 0.2-0.1 0.2-0.1 0.4 0 0-0.3-0.3-0.1-0.2-0.5 0.3 0 0.5 0.2 0.6 0.3-0.3-0.8-1.5-0.3-2-0.3h-0.1c0 0.1-0.1 0.1-0.1 0.2 0.5 0 0.9 0.3 1.3-0.1zm2.7 1.9v0-0.1 0.1zm0.2-0.4c0.2-0.1 0.2-0.2 0.3-0.4-0.3-0.2-0.5 0.3-0.5-0.3 0.1 0 0.3-0.1 0.3-0.2-0.3 0-0.2-0.6-0.3-0.8-0.1 0.6-0.2 0-0.4 0.1-0.2 0.3 0 0.3 0 0.5-0.3-0.1-0.5 0.6-0.2 0.8-0.1-0.1-0.4 0.1-0.4-0.2 0-0.2 0.4-0.4 0.2-0.5-0.1 0.1-0.4 0.1-0.7 0.3 0.3-0.1 0.2 0.7 0.4 1.1 0-0.6 0.4-0.4 0.6-0.6 0.1-0.3-0.1-0.5 0.1-0.5 0.1 0.2 0.6-0.1 0.3 0.6 0.1 0.1 0.4-0.5 0.3 0.1zm1.9-7.2c0.2-0.3 0.6-0.3 0.7 0.1-0.1 0.4 0.1 0.3 0 0.6-0.2 0.1-0.2-0.2-0.3-0.2 0 0.4 0.2 1 0.4 0.8-0.1-0.1-0.1-0.4-0.2-0.5 0.3-0.1 0.2-0.3 0.2-0.6 0 0.2 0.4 0.2 0.2 0-0.1-0.6-0.7-0.4-0.9-0.9 0.2-0.1 0.2 0.4 0.3 0-0.2-0.1-0.3-0.4-0.1-0.7-0.2-0.1-0.4 0.3-0.5-0.1-0.1 0.5 0.3 0.1 0.2 0.6-0.3 0.5-0.9-0.5-1 0.5 0.5 0.1 1.1 0.1 1 0.4zm-4.6 3.9c0.4 0 0.3-0.8 0.8-0.3 0-0.3-0.2-0.3-0.4-0.3 0.4-0.5 0.8-1 1.1-1.6 0.3-0.1 0.6-0.1 0.8 0.2-0.1 0-0.3-0.1-0.3 0.2 0.1 0 0.1 0.2 0.3 0.2-0.1-0.5 0.3-0.7 0.4-0.3 0 0.2-0.2 0.1-0.2 0.4 0.1 0 0.3 0.1 0.3-0.1-0.1-0.3 0.8-0.4 1.2 0-0.2 0.4-0.5-0.4-0.6 0.2 0.2-0.1 0.1 0.3 0.1 0.5 0.6 0 1-0.5 1.4-0.8-0.3 0.5 0.2 0.3 0.2 0.4-0.3 0.2-0.7-0.2-0.9 0.6 0.2 0 0.4 0.1 0.3 0.4-0.4-0.6-1.9 0.1-1.9-1-0.3-0.1-0.4-0.2-0.6 0.2 0.2 0 0.3 0.4 0.2 0.4 0-0.2-0.3 0-0.3-0.3s0.2-0.1 0.2-0.5c-0.2 0.1-0.4 0-0.5 0.1 0 0.2-0.3 0.5-0.4 0.1 0.1 0.6-0.2 0.2-0.3 0.6 0.2 0.5 0.5 0.2 0.7 0.6 0.1-0.5-0.3-0.2-0.2-0.7 0.5 0.5 1.5 0.6 2.2 0.8 0.2 0 0.7-0.5 0.6 0.2-0.1 0.1-0.4-0.2-0.4 0.1 0.1 0.1 0.1 0.2 0.1 0.4 0.3-0.1 0.4 0 0.6 0.1-0.4 0.5-0.8 1.1-1.2 1.7l-0.3-0.3c0.1 0 0.1 0 0.2-0.1-0.1 0-0.2-0.1-0.1-0.3 0.3 0 0.4 0.1 0.6 0.2 0.2-0.6-0.4-0.2-0.3-0.7-0.2 0.1-0.4 0.3-0.7 0.3 0-0.5 0-0.4 0.1-0.8-0.2-0.1-0.2 0.6-0.5 0.3 0.1-0.2 0.1-0.3 0.1-0.7-0.3 0-0.3 0.5-0.5 0.7 0.1 0 0.2 0 0.2 0.1-0.2 0.1-0.5 0.1-0.3 0.4-0.2-0.1-0.3-0.2-0.5-0.4-0.1 0.1 0 0.8-0.3 0.6 0-0.2 0.1-0.4 0.1-0.5-0.4-0.1-0.8 0-0.9-0.5 0.3-0.4 0.4 0.1 0.5 0.3 0.4-0.6-0.4-0.4-0.3-1.1-0.2 0-0.3 0.1-0.5 0.2 0.2-0.1 0.1-0.1 0.1-0.2zm1.5 0.4c0 0.3-0.1 0.6-0.1 0.8 0.2-0.1 0.5-0.3 0.7-0.6-0.2-0.3-0.4-0.4-0.6-0.2zm1.5-1.8c0.2-0.3 0.3 0.3 0.4 0-0.1 0-0.1-0.2 0-0.4-0.2 0-0.5-0.2-0.4 0.4zm89.4 8.2c-0.1 0.1 0 0.1 0.1 0.1-0.1 0-0.1-0.1-0.1-0.1zm-12.7 86.3c-0.1 0-0.2 0-0.2 0.1 0.2 0.1 0.3-0.1 0.3-0.3-0.1 0.1-0.1 0.2-0.1 0.2zm-48.3-3.2c-0.6-0.3-0.2 0.2 0 0zm50.2 2.7c0.1 0 0.3 0 0.4-0.1-0.1 0-0.4-0.1-0.4 0.1zm-77.2-38.4v0c0.1 0.1 0.1 0.1 0 0zm-1.3 21.2c0-0.1-0.1-0.1-0.2-0.2 0.1 0.1 0.2 0.1 0.2 0.2zm43.6 16.8c0.2 0 0.3 0.2 0.4 0-1-0.1-2.1-0.3-3.1 0 0.2 0.1 0.8-0.1 1 0.2 0.3-0.3 1.1-0.1 1.6-0.1 0.1 0.1-0.3 0.1-0.1 0.2 0-0.1 0.1 0 0.2 0 0.1-0.2-0.1-0.3 0-0.3zm-1.7-28.5 4.4 4.4c0-0.3 0.1-0.6 0.2-0.9l-4.4-4.4-2.1 0.8c0.3 0.5 0.5 0.6 0.6 0.6h0.1c0.2-0.1 0.3-0.3 0.5-0.2l0.7-0.3zm3.3 28.1c0 0.1 0 0.2 0.1 0.1l-0.1-0.1zm-10.2-19.3 2.3-0.3-1.7-1.6 0.4-2.3-2 1.1-2-1.1 0.4 2.3-0.8 0.8-0.1-0.3c-0.2 0.1-0.1 0.4-0.2 0.5l-0.5 0.5 2.3 0.3 1 2.1 0.9-2zm43.1-55.5 0.1 0.1s0-0.1 0.1-0.1h-0.2zm-21.6 49.2 3.4 1.6 2.6-5.6c-0.1-0.2-0.2-0.8-0.6 0 0.7-2.2 0.8-1.3 1.1-1.1l0.5-1.2c0-0.1 0-0.2 0.1-1h-0.6l-3.6 7.8-5.8-2.7c-0.1 0.4-0.2 0.7-0.3 0.7l3.2 1.5zm-30.4 4.6c0.2 0 0.1-0.4 0-0.7-0.2 0.4-0.6 0.3-0.6 0.9-0.6-1-0.7 0.7-1.2-0.8 0 0.5-0.2 0.2-0.4 0.2 0.1 0.3 0.2 0.5 0.1 0.6-0.2-0.2-0.4-0.3-0.5-0.1-0.3-0.6-0.6-0.7-0.3-0.2-0.1-0.6 0.3 0.5 0.3 0.5 0.1-0.2 0.6 0.5 0.6-0.1 0.1 0.1 0.2 0.5 0.3 0.5-0.3-0.9 0.4 0.2 0.1-0.7 0.5 0.5 1 0.3 1.3 0.4-0.1-0.1-0.2-0.5-0.1-0.6 0.2 0.4 0.3-0.7 0.4 0.1zm5.5 5.8c0.3-0.4 1 0.2 0.8-0.9l-0.2-0.2c0-0.3 0.2-0.1 0.1-0.5-0.5 0.4-1.3 0.5-1.7 0.8l-0.1-0.5c0.1-0.1 0.4 0.5 0.2-0.1-0.1 0.1-0.3-0.1-0.4-0.2 0.3 0.9-0.3 0.4-0.3 0.9 0-0.2-0.1-0.5-0.3-0.7-0.1 0.2-0.4 0.2-0.7-0.2-0.1-0.2 0-0.3-0.1-0.5-0.2 0.1-0.1 0.6-0.2 1.1 0.1-0.2 0.4 0 0.4 0.3 0.2 0.1 0.3 0.2 0.2-0.3 0.3 0.2 0.7 1.1 0.8 0.8 0.1 0.2 0.2 0.4 0.2 0.6 0.1-0.2 0-0.6 0-0.8 0.1 0 0.2 0.5 0.3 0.4-0.2-0.7 0.8-0.8 1 0zm14 15.4h0.4v-0.1c-0.1 0-0.3 0-0.4-0.1v0.2zm0.5 0.1c0.1 0 0.2 0 0.5 0.1l0.1-0.1h-0.2c-0.1 0-0.3-0.2-0.4 0zm19.5-32.3h2.9c0.1-0.3 0.2-0.6 0.2-0.8h-3.2c0 0.2-0.1 0.4-0.2 0.8h0.3c0-0.2 0-0.4 0.1-0.6 0.1-0.1 0 0.2-0.1 0.6zm-33.1-60.8c-0.1-0.1 0-0.3 0-0.4 1.3-0.1 0.5-0.1-0.1-0.3h0.3l1-2.1 0.2 0.4c-0.2 0-0.3 0-0.4 0.2 0.2-0.1 0.4 0 0.6 0.1l0.5 0.9c-0.4-0.1-0.8-0.1-1.1-0.1 1 0.6 2 0.9 2.7 1.8l0.3-0.3v0.1l-1 0.9 0.4 2.3-2-1.1-2 1.1 0.4-2.2s0.1 0 0.2-0.1c-0.1-0.3-0.2-0.4-0.4-0.2l-1.4-1.4 1.3-0.2c-0.2 0.5 0.3 0.7 0.5 0.6zm0.6 0.7c0.1-0.1 0.1-0.4 0.2-0.3s0.2 0 0.3-0.2c-0.2 0-0.4-0.3-0.5 0 0.4 0.1-0.3 0.3 0 0.5zm-45.2 53.6c-0.3 0.3-0.5 0.6-0.5 0.9h-11.3v-10 0.1c-0.1 0 0-0.1 0-0.1h0.1v-3.4s0-0.1-0.1-0.1h0.1-0.1s0-0.1 0.1-0.1v-0.2h-0.1v-0.1h0.1-0.1c0-0.1-0.1-0.1 0-0.1h0.1v-0.1c-0.1 0-0.1-0.1-0.1-0.1-0.1 0-0.1 0.1 0 0.1 0 0-0.1 0-0.1 0.1s0.1 0.1 0 0.2c-0.1 0 0-0.1-0.1-0.1 0.1-0.1 0-0.2 0.1-0.3 0 0 0.1 0.1 0 0 0 0.1 0 0 0.1 0 0 0.1 0 0.1 0.1 0.1v-0.1 0.1c-0.1 0-0.1-0.2-0.1-0.2v-0.2c0 0.1 0.1 0 0.1 0 0-0.1-0.1 0 0 0-0.1 0 0 0.1-0.1 0.1 0 0 0-0.2-0.1-0.2h-0.1c-0.1 0 0.1 0.3-0.1 0.4 0 0 0 0.1 0.1 0.1v0.1c-0.1 0.1-0.2 0-0.2 0.1v-0.2s0 0.1-0.1 0.2c-0.1 0 0-0.1-0.1 0h0.1-0.1c-0.2 0.1 0 0.4-0.2 0.5v-0.2c0.1 0 0-0.2 0.1-0.3-0.1-0.1-0.1-0.1 0-0.2 0 0.1-0.1 0-0.1 0 0-0.1 0.1-0.3 0-0.3 0.1-0.1 0-0.2 0-0.3v0.1 0.1c-0.1 0-0.1-0.1-0.1 0h0.1c-0.1 0.1-0.1 0.2 0 0.3h-0.1c-0.1 0 0-0.2-0.2-0.2 0.1-0.1 0-0.2 0-0.2s0.1 0 0.1 0.1c0.1 0 0-0.1 0.1 0v-0.1h0.1c-0.1-0.1 0-0.1 0-0.3-0.1 0 0 0.1-0.1 0.1 0 0 0-0.1 0.1-0.1-0.1 0 0 0.1-0.1 0.1v0.2c-0.1 0 0 0 0 0.1h-0.1v-0.2c-0.1 0 0-0.1-0.1-0.2 0-0.1-0.1-0.1-0.1-0.1-0.1 0-0.1 0.1-0.1 0.1 0.1 0 0 0 0.1-0.1 0.1 0 0 0.1 0 0.2h-0.1v0.1h-0.1c0.1 0 0.1-0.1 0-0.2 0.1-0.1 0-0.1 0-0.2h0.1v0.1c0.1 0 0-0.1 0.1-0.1 0 0 0-0.1-0.1-0.1 0 0 0-0.1 0.1-0.1h-0.1v-0.1h0.1v0.1c0.1-0.1 0-0.1 0-0.2-0.1 0 0 0-0.1 0.1-0.1 0 0.1-0.1 0-0.1 0 0 0-0.1 0.1-0.1-0.1 0 0-0.1 0.1-0.1v0.1h0.1c0.1 0 0 0.2 0 0.2 0.1 0 0 0 0.1-0.1 0-0.1-0.1-0.1 0-0.2 0.1 0 0.1 0.2 0 0.1v0.1-0.2s0 0.1-0.1 0.1c0 0 0.1 0 0 0.1 0.1 0 0-0.1 0.1-0.2 0 0 0.1 0 0.1 0.1 0.1 0 0 0 0-0.1h-0.2c0-0.1 0.1-0.1 0.1 0 0.1 0 0 0 0-0.1h0.1c0.1 0-0.1 0.1 0 0.2h0.1v-0.1c0-0.1 0.1 0.1 0.1 0s-0.2 0-0.2-0.1c0 0 0 0.1-0.1 0.1v-0.2c0-0.1 0-0.2-0.1-0.2 0-0.1 0.1 0 0.1 0v-0.2c0.1 0 0 0.1 0.1 0v-0.1h0.2 0.1s0 0.1-0.1 0.1c0.1 0 0.1 0.1 0 0.2v-0.1c-0.2 0 0 0.2 0 0.4v-0.2s0.1 0 0.1-0.1c0 0.1 0 0.2-0.1 0.3 0.1 0 0 0.2 0 0.3h0.1s-0.1 0.1 0 0.1v0.1h-0.1c0 0.1 0.1 0 0 0.1-0.1-0.1 0 0.1 0 0.1-0.1-0.1-0.3 0.1-0.3 0.2l0.2-0.2c0.1 0 0 0.1 0 0.1 0-0.1 0.1-0.1 0.1-0.2 0.1 0 0 0.1 0 0.2v-0.1s0 0.1-0.1 0.1c0 0 0.1 0 0 0.1-0.1-0.1 0 0.1-0.1 0v0.1h0.1s0 0.1-0.1 0.1c0.1 0 0.1 0 0.1 0.1 0-0.1 0-0.2 0.1-0.2v0.1c0.1 0 0-0.1 0.1-0.1 0-0.1-0.2 0-0.2 0 0-0.1 0.2 0 0.2-0.1v0.1c0.1 0 0.1-0.1 0.2-0.1l-0.1-0.1c0.2-0.3-0.1-0.4 0.1-0.6-0.1-0.1 0-0.1 0-0.3h0.1v-0.2c-0.1 0 0 0.1-0.1 0.1v-0.2c0.1 0.1 0.1 0 0-0.1 0.1 0 0.1 0.2 0.1 0.3-0.1 0-0.1 0.1-0.1 0 0 0 0.1 0.2 0 0.2l0.1 0.1c0 0.4-0.1 0.8 0.1 1.2h0.1v-2.3s0 0.1-0.1 0.1c0 0 0-0.1 0.1-0.1v-0.2-0.4h-0.1c0-0.1 0-0.2 0.1-0.3v-2.9-0.1-1.1-0.1c-0.1 0-0.1-0.1 0-0.1h0.1v-0.1-0.1h-0.1v-0.1-2.6h-0.1v-0.1h-0.1s0-0.1 0.1-0.1v-0.1s-0.1-0.1-0.1 0c-0.1-0.1 0-0.3-0.1-0.4 0.1 0 0 0.1 0.1 0.1-0.1 0.1 0 0.1 0 0.2v-1.5s-0.1 0-0.1-0.1c-0.1 0-0.1 0.3 0 0.4-0.1 0.1 0-0.1 0-0.2-0.1 0-0.1 0.3 0 0.3 0 0.1-0.1 0.2-0.1 0.2v-0.3h-0.1v-0.1c0.1 0.1 0.1-0.1 0.1-0.2 0.1 0 0.1-0.2 0.1-0.2 0-0.1-0.1-0.1 0-0.2 0 0.1 0 0.1 0.1 0.1v0.1s0.1 0 0.1 0.1v-0.1c-0.1 0-0.1-0.1 0-0.1v-0.3-0.6c0 0.1-0.1 0.2-0.1 0.3-0.1-0.3 0.1-0.3 0.1-0.5v-0.2 0.1h-0.1c0.1-0.1 0-0.1-0.1-0.2l0.1 0.1v-0.1-0.1h0.1v-0.1-0.4c0.1 0.1 0 0.1 0.1 0.2 0.1 0 0.2 0.1 0.4 0.1 0-0.2-0.1-0.3-0.6-0.4v-0.2h0.3c0.5-0.9-0.2-0.9-0.1-1.1h-0.2v-0.1h0.4c0.1-0.5 0.5-0.8 0.2-1.2-0.3 0-0.6 0-0.5-0.1 0 0-0.1 0-0.1 0.1v-1.2c-0.1-0.1 0-0.1 0-0.1 0-0.1-0.1 0-0.1-0.1h0.1v-3.6h0.8c0-0.1 0.1-0.2 0.1-0.2 0 0.1 0 0.2-0.1 0.2h0.3 0.1 1.7c0 0.1 0 0.1-0.1 0.2 0.2-0.1 0.3-0.1 0.5-0.2h2.7c0 0.1 0.1 0.2 0.2 0.1v-0.1h6c0.1-0.5 0.3-0.9 0.4-1.4 0.1 0 0.2 0 0.1-0.1h-0.1c0.2-0.5 0.4-1.1 0.6-1.6 0.1-0.1 0.2-0.2 0.3-0.4h-0.2c0.2-0.5 0.4-1 0.6-1.6 0.1 0 0.1-0.2 0.1-0.3 0.1 0.5 0.2 0.3 0.5 0.3 0.1-0.3 0-0.2 0.1-0.6-0.2-0.1-0.4-0.1-0.5 0 0.1-0.3 0.3-0.6 0.4-1 0.3 0.1 0.7 0 0.8-0.7-0.2 0.1-0.4 0.2-0.5 0.2l0.3-0.6c0.2 0.1 0.3 0 0.3-0.2 0 0-0.1-0.1-0.1-0.2s0-0.1 0.1-0.2c-0.1-0.1-0.2-0.2-0.3-0.4 0.2 0.3 0.4 0.3 0.6 0.3 0.2-0.4 0.3-0.7 0.5-1.1 0.1 0 0.3 0 0.4-0.1-0.1-0.1-0.1-0.2-0.2-0.2 0.4-0.7 0.8-1.5 1.2-2.2-0.1 0.2-0.1 0.4-0.2 0.6 0.3-0.2 0.6-1.3 1-2 0.3-0.5 0.6-1.1 1-1.6 0.1 0 0.2 0.1 0.2 0.2l-0.2 0.2c0.1 0 0.1 0.2 0.3 0.2 0.2-0.2 0-0.8 0.1-0.8 0.2 0.1 0.5 0.1 0.5 0.4-0.1 0.1-0.3 0-0.2 0.4 0.4-0.1 0.5-0.1 0.7 0.3 0.2-0.1-0.2-0.2 0-0.5 0.2 0 0.3-0.2 0.5-0.1-0.1 0.7 0.3 0.7 0.5 1-0.3 0-0.5 0-0.5 0.5 0.3 0.1 0.5-0.3 0.6 0.1 0-0.5 0.3-0.5 0.4-0.7 0 0.3 0.1 0.4 0.1 0.6-0.4-0.1-0.6 0.6-1 0.7-0.3-1-0.9 0.3-1.3-0.1 0.1-0.5 0.5-0.2 0.6-0.6-0.3-0.2-0.3-0.7-0.4-0.8l-0.1 0.3v0.1c0-0.3 0.2 0.1 0.1 0.3-0.2-0.4-0.2 0.2-0.5 0.1-0.1 0.3 0.1 0.3 0.1 0.5-0.3 0.3-0.3-0.3-0.6 0 0.5 0.4 1 1 1.4 0.1 0.3 0.2 1 1 1.5 0.3-0.2 0.1-0.2-0.2-0.2-0.4 0.2 0.2 0.4-0.4 0.4 0-0.1 0-0.1 0-0.2 0.1 0.2 0.1 0.3-0.1 0.4-0.1 0 0.2 0 0.4 0.2 0.6-0.1 0.2-0.2 0.3-0.3 0.5-0.1 0-0.1 0-0.2-0.1 0 0.6-0.4 0.3-0.3 0.8h0.1c-0.5 0.8-0.9 1.6-1.4 2.5-0.3 0-0.5-0.1-0.7-0.3l0.3-0.5c-0.4-0.1-0.6-0.2-0.9 0.1-0.1 0.4 0.2 0.2 0.2 0.5-0.4-0.4-0.9 0.7-1.1 0.2 0.1 0 0.2-0.3 0.2-0.3 0.1 0.3 0.5-0.1 0.6-0.3-0.3 0-0.4-0.1-0.5-0.3 0 0.3-0.1 0.5-0.2 0.5 0-0.3-0.1-0.3-0.1-0.4 0.1-0.1 0.2-0.2 0.2-0.4-0.2-0.1-0.3 0.2-0.6 0.1 0-0.2 0.1-0.2 0.1-0.4-0.4 0.4-0.7 0.1-1 0.5 0.2 0.2 0.3 0.5 0.4 0.8-0.3 0.3-0.6-0.6-0.3-0.3 0-0.4-0.4-0.6-0.4-0.2 0.3 0.2 0.2 0.6 0.3 0.9 0-0.3 0.1-0.4 0.2-0.4-0.1 0.7 0.5 0.2 0.5 0.9-0.4-0.3-0.4 0.3-0.7-0.2-0.1 0.3-0.4 0.1-0.5 0.5 0.4-0.1 0.6 0.3 1.1 0.1 0 0.4 0.1 0.5-0.1 0.6s-0.3-0.4-0.7 0.1c0.7 0.5 1.6 0.2 2.5 0.4-0.5 1-0.9 2-1.3 3-0.1 0-0.1 0.1-0.2 0.1h0.1l-0.6 1.5c-0.1-0.1-0.2-0.1-0.2 0.3l0.1-0.1v0.1c-0.3-0.2-0.7-0.2-1 0.1-0.1-0.3 0-0.2 0-0.5-0.1 0.1-0.3-0.2-0.3 0.1 0.1 0 0.2 0.1 0.2 0.4-0.2 0.1-0.5-0.2-0.6 0.3 0.6 0 1.1 0.1 1.6 0-0.1 0.3-0.2 0.7-0.3 1h5.9c0.3 0.1-1.6 0.2-0.6 0.3 0-0.1 0.3 0 0.5 0 0-0.1 0.1-0.1 0.4-0.2 0 0 0.1 0.1 0.3 0v-0.1h2c0.3-0.7 0.6-1.5 0.9-2.2 0.1 0.1 0.1 0.1 0.2 0-0.1 0-0.1 0-0.2-0.1v-0.1c0.4-0.3 0.6 0.2 0.9-0.1-0.2 0.5 0.1 0.8 0.3 0.4-0.2 0.1 0-0.4 0-0.7-0.2-0.4-0.5 0.2-0.5-0.3 0.1-0.1 0.3 0.2 0.3-0.1-0.2-0.1 0.1-0.3 0.1-0.5-0.1 0.3-0.4 0.3-0.6 0.3 0-0.1 0.1-0.1 0.1-0.2 0.1 0 0.1-0.1 0.2-0.2 0.9-1.9 2-3.8 3.2-5.6 0.1 0 0.1 0 0.2-0.1v-0.2c0.5-0.8 1-1.5 1.6-2.2 0.3-0.1 0.5-0.2 0.8-0.3-0.1-0.1-0.3-0.1-0.5-0.1 0.3-0.4 0.6-0.8 0.9-1.2 0.1 0.1 0.1 0.2 0.2 0.2-0.1 0.2-0.2 0.3-0.3 0.5 0.3 0.2 0.3-0.4 0.6-0.3 0 0.3 0.2 0.2 0 0.5-0.3 0.4-0.6-0.4-0.7 0.1 0.2 0.2 0.4 0 0.5 0.3-0.4 0-0.4-0.3-0.7-0.1 0.1 0.9 0.8 0.4 1.2 0.3 0.6 0.2 0.9 0.9 1.5 0.9-2.6 3.3-4.8 7-6.5 10.9h5.2l0.1 0.1c0.2 0 0.4 0 0.5-0.1h8.8c0.1 0.2 0.1 0.3 0.1 0.4 0.6-0.1-0.1 0.4 0.7 0.4-0.1 0-0.3 0.1-0.5 0.1l-20.6 0.1c0-0.1-0.1-0.2-0.6-0.1 0 0 0 0.1 0.1 0.1l-21.9 0.2v7.6-0.1 0.1s0.1 0 0.1-0.1v0.1c0.1-0.2 0.1-0.2 0.1-0.3 0.1 0 0.1 0.1 0.1 0.1-0.1 0-0.1 0-0.1 0.1h0.1c0 0.1 0 0-0.1 0v0.1-0.1c-0.1 0 0 0.1-0.1 0.1 0.1 0.1 0.1 0.2 0.1 0.2 0-0.1 0-0.2-0.1-0.2v0.3h0.1v0.1s-0.1 0-0.1-0.1v1.2 0.1 1.7-0.1c0 0.1 0 0.2 0.1 0.2l-0.1-0.1h0.1c-0.1-0.1 0-0.3 0-0.4 0.1 0.1 0 0.1 0 0.3 0.2 0 0 0.2 0 0.3-0.1 0 0-0.1-0.1-0.1v0.1 0.1c0 0.3 0.1 0.3 0.1 0.4h-0.1v1.1c0.1 0 0-0.1 0-0.1s0.1 0 0.1 0.1c-0.1 0 0 0.1 0 0.1h-0.1v0.1h0.1c0 0.1 0 0.2 0.1 0.2 0 0-0.1 0-0.2 0.1v4.9c0-0.1 0.1-0.1 0.1-0.1s0.1 0 0.1-0.1v0.1c-0.1 0-0.1 0-0.1 0.1 0 0-0.1 0-0.1-0.1v0.6h0.1c0.1 0.1 0 0.1 0 0.2-0.1 0-0.1 0-0.1-0.1v0.1h0.1c0 0.2 0.1 0.2-0.1 0.3 0 0.1 0.1 0.1 0.1 0.3h-0.1v0.1c0.1 0 0 0.2 0.1 0.2-0.1 0.1 0 0.2-0.1 0.2v0.5c0.1 0.1 0 0.2 0.1 0.4 0.1 0 0.1-0.1 0.1 0v0.1s0.2 0 0.2 0.1h-0.1c0.1 0.3-0.2 0.1-0.3 0.2v-0.1s-0.1 0 0-0.1v0.2h0.1c0 0.2 0 0.3 0.1 0.5l-0.1-0.2c0-0.1-0.1-0.2 0-0.2l-0.1-0.1v0.4h0.1v0.3h-0.1v4.8c0.1 0 0 0.1 0 0.2v0.2h-0.1v0.4c0-0.1 0.1-0.1 0.1-0.2 0.1 0.1-0.1 0.2 0 0.3l0.1-0.1v3.9c-0.3 0-0.7-0.4-0.9-0.1 0 0.1 0 0.1-0.1 0.1v-0.1 0.1c0.2 0.1 0.7 0.1 1 0v3.5h10.7zm19.9-43.3c0.2 0 0.3-0.2 0.4-0.6-0.2 0-0.3 0.1-0.4 0.6zm-10.9-3.6c0.1 0.2 0.6 0.1 0.7-0.2-0.1 0 0-0.4-0.1-0.4-0.2 0.2-0.4 0.3-0.6 0.6zm-1.9 0.6c0.1 0.1 0.1 0.2 0.1 0.4 0.4-0.3 0.8 0.3 1-0.3-0.2-0.5-0.7-0.4-0.9-0.4 0.2 0.2-0.3 0-0.2 0.3zm-1.6-0.7c0.2 0.1 0.3-0.1 0.4-0.1 0.6 0-0.4-0.6-0.4 0.1zm-7.6 47.3c-0.4 0-0.9 0-0.9 0.3 0.2 0 0.5 0.3 0.6 0.1-0.3-0.2 0.4-0.2 0.3-0.4zm1.6-0.2c-0.3 0.3-0.7-0.3-0.9 0 0 0 0 0.1 0.1 0.1-0.2 0-0.2 0.1-0.3 0.2-0.1 0-0.2 0-0.3-0.1 0 0.3 0.3 0.2 0.5 0.3 0-0.2 0.2-0.2 0.1-0.4 0.2 0.2 0.7 0.3 0.8-0.1zm34.3-36.1c-0.1 0-0.1 0 0 0h0.1 0.5 0.5 0.7v-1.2c0.2 0 0.2-0.1 0.2-0.2h-0.2v-2c0.4-0.2-0.2-0.5 0.6-0.7 0-0.1-0.3-0.1-0.6-0.1v-0.2h0.2c0.3-0.1 0.1-0.1-0.2-0.2v-1.4h4l-0.1 0.1c0.3 0 0.7 0 1.2-0.1h3.7l0.7-1.6c-0.2 0.1-0.4 0.1-0.4 0.5-0.1-0.8 0.3-0.7 0.5-0.8l2.8-6.1 1.8 0.8c0.5-0.2 0.9-0.3 1.4-0.6 0.2 0.6-0.4 0.1-0.3 0.4 0.1 0.4 0.2 0.2 0.4 0.2 0 0.1 0 0.4 0.1 0.4 0 0.2 0 0.2-0.1 0.3l0.3 0.1c0-0.1 0.1-0.1 0-0.5h0.1c0 0.1 0.1 0.1 0.1 0.1 0 0.1-0.1 0.3-0.1 0.4l2.9 1.3 2.2-2.2c-0.1 0-0.2-0.1-0.2-0.1 0-0.3 0.3 0.1 0.4-0.1l2.7-2.8 6.3 6.2 3.5-1.3c-0.1-0.4 0.1-0.3 0.1-0.5-0.1-0.2-0.2-0.3-0.3-0.4 0-0.2 0.1-0.2 0.1-0.2 0 0.2 0.1 0.5 0.2 0.4v0.6l1.6-0.6c0.1-0.4 0.3-0.9 0.5-0.3 0 0-0.1 0-0.1-0.1v0.1 0.1l2.7-1 0.5 1.5h0.4c0 0.2-0.1 0.3-0.2 0.3l1 2.6c-0.1 0.1-0.1 0.2-0.1 0.3-0.6 0.4-0.4-0.6-0.9-0.4v0.1h-0.1c0-0.1 0-0.2 0.1-0.2h0.1l0.1-0.1-0.1-0.2c0.1 0 0.3 0.1 0.4-0.1 0-0.1-0.3-0.3-0.5-0.2l-0.6-1.5c-0.1 0.4-0.1 0.6-0.1 0.8-0.1-0.4-0.3-0.2-0.4-0.7 0.3 0.1 0.4 0 0.5-0.1l-0.3-0.8-4 1.5c-0.4-0.3-0.8-0.5-1.4-0.3 0.3 0.1 0.6 0.2 0.9 0.5 0 0.3-0.3-0.1-0.3 0.2v-0.1l-1.7 0.6c0.1 0 0.2 0.1 0.2 0.1 0 0.4-0.4-0.2-0.5 0l-1.3 0.5-6.1-6-0.6 0.6c0.1 0 0.1 0.1 0.2 0.1 0 0.1-0.2 0.1-0.3 0.1l-4.3 4.3-3.7-1.7c-0.2 0.1-0.5 0-0.8-0.2 0.4 0.5-0.2 0-0.1 0.4-0.1-0.1 0.1-0.2-0.2-0.4v0.5c-0.4-0.6-0.6-0.1-0.9 0-0.2-1.1 0.5-0.5 0.6-0.8l-0.5-0.5c-0.1 0.1-0.3 0.3-0.5 0.1-0.2 0.2 0.2 0.6 0.2 0.9-0.2-0.1-0.5-0.4-0.4 0.1-0.2-0.2 0-0.6 0.2-0.5 0-0.1-0.1-0.1-0.1-0.1v-0.2c-0.1-0.2-0.2-0.2-0.3-0.2l-0.3 0.7 0.1 0.4c0-0.1-0.1-0.2-0.2-0.3l-0.1 0.1v0.1c0 0.3 0 0.2-0.1 0l-2.9 6.3h-7.4c0.2-0.1 0.3-0.1 0.4-0.2-0.3 0-0.7 0.1-0.9 0.2h-0.6v0.4c-0.2 0.1-0.2 0.2-0.1 0.2h0.1v1.7c-0.3 0.1-0.4 0.2-0.6 0.3h0.6v1.8l38.8-0.2v0.1c-0.1 0.9-0.2 2.1 0.4-0.1h1.9c0 0.2-0.1 0.4-0.2 0.6l0.4 0.1 0.2-0.7h5.1c0.6 0.4 1.1 0.9 1.6 1.3-0.1-0.5-0.6-0.9-1.1-1.3h0.1v-3.3c0.3 0.2 0.7 0.2 0.6-0.1 0.1 0 0.1 0.1 0.2 0.2v4h5.3c0 0.2 0.1 0.4 0.4 0.4-0.2 0.1-0.2 0.2-0.3 0.4 0 0 0 0.1-0.1 0.1h-3.1v-0.1c-0.4 0-0.6 0.1-0.6 0.1h-3.6-0.2-1.6c-0.1-0.1-0.3-0.2-0.5 0h0.1-0.9c0.1-0.1 0.2-0.1 0.3-0.2-0.1-0.5 0-0.3-0.6-0.2 0.4 0.2 0 0.3-0.2 0.5l-45.6 0.2c-0.1-0.3-0.1-0.6-0.3-0.9l0.9-0.1zm41.7-8.9c0.1 0.1 0.1 0.6 0.4 0.4-0.2-0.1-0.2-0.6-0.4-0.4zm-10.2-1.1c0.3 0.1 0.2 0.3 0.5 0.4 0.1-0.2 0.1-0.3 0.2-0.5-0.2 0.1-0.8-0.1-0.7 0.1zm-16.9-2.7c0.1 0 0.3-0.1 0.4-0.1l-0.3-0.1-0.1 0.2zm-40 40.6c-0.1 0-0.1 0 0 0zm-0.1 0.1zm0.1-0.1c-0.1 0-0.1 0 0 0-0.1 0-0.1 0 0 0zm0.1 0c-0.1 0 0 0 0 0s-0.1 0.1 0 0zm0-0.2v0s0.1 0 0 0zm0.1-0.1v0zm0-0.1v0zm0 0.1v0zm0 0.1zm0.1-0.1s-0.1 0 0 0c-0.1 0.1-0.1 0.1 0 0-0.1 0.1-0.1 0.1 0 0-0.1 0.1-0.1 0 0 0zm-1 1.4v0zm0.1-0.1v0zm0.1-0.1c-0.1 0.1 0 0 0 0-0.1 0-0.1 0.1 0 0-0.1 0.1-0.1 0.1 0 0-0.1 0.1-0.1 0.1 0 0zm0 0.5s-0.1 0.1 0 0c0 0.1-0.1 0.1 0 0v0zm0.2-0.8zm0 0.7v0c-0.1 0.1-0.1 0.1 0 0-0.1 0.1-0.2 0.1-0.2 0.1h0.1s0.1 0 0.1-0.1v0zm0.3-0.9s0.1 0 0 0zm0.1-0.1c0.1 0 0.1-0.1 0 0zm0.1 0c-0.1 0 0-0.1 0 0 0 0-0.1 0 0 0-0.1 0-0.1 0 0 0-0.1 0-0.1 0.1 0 0 0 0-0.1 0 0 0zm0 0c-0.1 0.1 0 0 0 0v0zm0.1-0.3zm0 0v0c0.1 0 0.1 0 0 0zm0.2 0.9v0c0.1 0 0 0.1 0 0zm0.2-0.2c-0.1 0-0.1 0 0 0l-0.2 0.2c0-0.1 0.2-0.3 0.2-0.2zm0.4-0.1c-0.1 0-0.1 0 0 0-0.1 0-0.1 0 0 0zm0.1-0.2-0.3 0.3c0.1-0.1 0.2-0.1 0.3-0.3v0zm-18.2-11c0.1 0 0.1 0 0 0 0.6 0.5 1.1 0.7 1.7 0.7h0.4c0.2 0 0.3-0.1 0.5-0.1 0.1-0.1 0.3-0.1 0.4-0.2 0.2-0.1 0.3-0.2 0.4-0.3l0.2-0.2c0-0.1 0.1-0.2 0.1-0.3 0-0.2-0.1-0.3-0.2-0.4s-0.3-0.2-0.4-0.2h-0.1c-0.1 0-0.1 0-0.1 0.1 0.3 0.2 0.4 0.4 0.4 0.5-0.3 0.3-0.9 0.5-1.8 0.5 0.4-0.3-0.5-0.2-1.5-0.1zm90.2-23.5h-2.6-0.1-1.9l-0.5-1.4c0 0.3-0.1 1.1 0 1.2 0 0.2-0.1 0.4-0.2 0.5l0.2 0.4s0.1 0 0.1-0.1v0.1h2.2c0.1-0.2 0.2-0.3 0.3-0.5 1 0 0.2 0.3 0.2 0.4h3.1c0-0.1 0-0.2 0.1-0.3l0.3 0.2h0.8v0.2c0.1 0.5 0.5 0.4 0.8 0.6v-1.6h-2.1 0.1c-0.2 0.3-0.4 0.2-0.6 0.2v0.1l-0.1-0.1c-0.1 0.3-0.1 0.2-0.1 0.1zm-20.7-15.8-1-2.1-1 2.1-2.3 0.3 1.6 1.6-0.4 2.3 2-1.1 2 1.1-0.4-2.3 1.6-1.6-2.1-0.3zm-67.5 38.8h0.7c-0.1 0-0.2-0.1-0.3-0.1-0.2 0-0.3 0.1-0.4 0.1zm81.7-35.4-1-2.1-1 2.1-2.3 0.3 1.7 1.6-0.4 2.3 2-1.1 2 1.1-0.4-2.3 1.6-1.6-2.2-0.3zm1.3 10.8v0 0zm10 86.7c0.2 0 0.5-0.1 0.7-0.2-0.6 0.1-1.5 0.3-2.1 0.6 0.4 0 1-0.2 1.4-0.4zm-3.1 1.2c1-0.1 0.2-0.2 0 0zm-25.2 1.4c0.1 0.1 0.5 0 0.7 0.1 0.1-0.1-0.3-0.1-0.1-0.1 0.8 0.3 1.8-0.1 2.7 0.1 0-0.1 0.1-0.1 0.1-0.1-0.9 0-2.2-0.1-3.4 0z" fill="#fda532"/>
	<g fill="#fda532">
		<path d="m7.3 65.3c0.2-0.2 1.5-0.2 4.1-0.2 2.4 0 3.8 0.2 4.2 0.5 0.3 0.3 0.2 0.8-0.4 1.4-0.4 0.4-0.6 0.8-0.7 1.4s-0.2 2-0.3 4.2c-0.2 4.2-0.3 6.8-0.3 7.9s0.1 1.9 0.3 2.4c0.2 0.6 0.2 0.9 0.1 1l-0.3 0.3c-0.2 0.1-0.2 0.3-0.2 0.5 0 0.3-0.1 0.5-0.2 0.5-0.3 0-1.2-0.6-2.6-1.8s-2.2-1.9-2.3-2.2c-0.1-0.4-0.3-2.8-0.4-7.1s-0.4-6.6-0.7-7c-0.2-0.3-0.3-0.6-0.4-0.9-0.1-0.4-0.1-0.7 0.1-0.9zm7.9 18.5c0.1-0.4 0.1-0.6 0.2-0.7s0.2 0 0.4 0.1c0.3 0.3 0.5 0.6 0.4 1 0 0.4-0.2 0.6-0.6 0.6-0.2 0-0.4-0.1-0.5-0.2 0-0.2 0-0.4 0.1-0.8zm3.5-18.2c0.1-0.2 0.3-0.4 0.7-0.4 0.3-0.1 1.1-0.1 2.2 0 1.2 0 2 0.1 2.3 0.2s0.5 0.3 0.5 0.6c0.1 0.5-0.2 0.9-0.7 1.3-0.5 0.3-0.9 0.9-1 1.7s-0.2 2.7-0.3 5.5c-0.1 4.5-0.6 7-1.4 7.3-0.4 0.2-0.6 0.1-0.7 0-0.1-0.2 0-0.4 0.4-0.6 0.3-0.2 0.5-0.7 0.5-1.5s-0.1-3-0.3-6.7l-0.2-5-1.1-0.9c-0.8-0.6-1.1-1.1-0.9-1.5z"/>
		<path d="m26.6 64.7c0.8-0.1 1.9-0.1 3.4-0.1s2.3 0.1 2.5 0.3c0.1 0.1 0.2 0.2 0.3 0.5 0 0.2 0.1 0.7 0 1.3 0 0.6 0 1.2-0.1 1.9 0 0.7-0.1 1.7-0.2 3s-0.1 2.7-0.1 4c-0.1 2.1-0.2 3.4-0.5 3.9-0.2 0.3-0.3 0.5-0.3 0.7-0.1 0.2-0.1 0.4 0 0.5 0 0.1 0.1 0.2 0.3 0.2s0.3-0.2 0.3-0.5 0.1-0.5 0.3-0.5 0.3 0.5 0.3 1.5c0 0.7 0 1.1 0.1 1.3s0.3 0.2 0.5 0.1c0.3-0.1 0.5 0 0.5 0 0.1 0.1 0.1 0.3 0.1 0.6s0 0.5-0.1 0.6-0.2 0.1-0.4-0.1c-0.7-0.3-2.4-0.3-5.3 0-1 0.1-1.8 0.1-2.1 0.1s-0.6-0.2-0.7-0.4c-0.2-0.4 0-0.7 0.5-1 0.3-0.2 0.5-0.7 0.6-1.3 0.1-0.7 0.1-2.9 0.1-6.6 0-3.6 0-5.7-0.1-6.5s-0.3-1.4-0.6-1.8c-0.4-0.5-0.5-0.9-0.4-1.1 0.1-0.4 0.5-0.5 1.1-0.6zm9.5 1.1c0-0.1 0.1-0.1 0.1-0.2 0.2-0.3 0.3-0.4 0.4-0.4s0.5 0.1 1.3 0.4c0.2 0.1 0.4 0.2 0.5 0.2 1.1 0.4 1.8 0.8 2.2 1.1 0.3 0.3 0.7 0.9 1 1.8 0.7 1.9 0.5 3.7-0.7 5.4s-2.9 2.6-4.9 2.6c-0.9 0-1.4-0.2-1.6-0.5s0-0.7 0.5-1.1c0.4-0.3 0.7-1.1 1-2.4s0.4-2.5 0.4-3.6 0-1.8-0.2-2.2c-0.2-0.3-0.2-0.7 0-1.1z"/>
		<path d="m49.5 77.2c0.1 2.4 0.2 3.9 0.3 4.4 0.1 0.6 0.3 1 0.7 1.3 0.6 0.5 0.8 1 0.7 1.4s-0.6 0.5-1.3 0.5c-1 0-1.7-0.1-2.3-0.4-0.6-0.2-1.2-0.7-1.9-1.4-0.8-0.8-1.4-1.6-1.8-2.4s-0.7-1.9-0.8-3.3c-0.2-1.6-0.2-3.1 0.1-4.6 0.3-1.4 0.7-2.6 1.3-3.4s1.4-1.5 2.5-2.2 1.7-1.1 1.7-1.3 0.1-0.3 0.3-0.1c0.2 0.1 0.3 1.2 0.3 3.2 0 2.3 0.1 5 0.2 8.3zm4.9 6.1c0.5-0.6 1-1.2 1.4-2s0.8-1.3 1-1.7 0.5-0.5 0.7-0.4c0.3 0.1 0.4 0.4 0.4 0.9s-0.1 1-0.4 1.6c-0.3 0.7-0.9 1.3-1.8 2s-1.5 1-1.9 0.8c-0.2-0.1-0.3-0.2-0.3-0.3 0.3-0.1 0.5-0.4 0.9-0.9zm0.9-17.3c0.4 0.1 0.8-0.1 1.2-0.4s0.7-0.5 0.9-0.4c0.2 0 0.4 0.3 0.5 0.7 0.1 0.5 0.2 1.4 0.2 2.8 0.1 2.2 0 3.5-0.3 3.8-0.5 0.6-0.9 0.2-1.3-1-0.1-0.2-0.2-0.6-0.3-1.1-0.4-1.4-0.7-2.3-1-2.7-0.7-0.8-0.8-1.4-0.5-1.6 0.1-0.1 0.3-0.1 0.6-0.1z"/>
		<path d="m64.5 65.7c1.4-0.3 2-0.3 2 0.1-0.1 0.2-0.3 0.4-0.6 0.7s-0.5 0.8-0.5 1.4v5.3c0.1 3.6 0.2 5.9 0.3 7s0.4 1.9 0.7 2.2c0.3 0.4 0.5 0.7 0.4 1.1-0.1 0.3-0.3 0.5-0.7 0.5s-0.9 0-1.3-0.2c-0.4-0.1-0.7-0.3-0.9-0.4-0.3-0.3-0.6-0.5-0.8-0.5s-0.7-0.4-1.3-1.1c-0.7-0.7-1.2-1.5-1.6-2.2-0.4-0.8-0.7-2.1-0.9-3.8-0.2-1.8-0.1-3.3 0.1-4.6 0.3-1.4 0.9-2.6 1.9-3.6 0.7-0.9 1.9-1.6 3.2-1.9zm4.4 1.1c-0.1-0.2-0.2-0.4-0.3-0.8-0.2-0.4-0.2-0.6-0.1-0.6s0.3 0.1 0.6 0.3c0.5 0.3 0.8 0.7 0.9 1 0.1 0.4-0.1 0.6-0.4 0.6-0.3 0.1-0.6-0.1-0.7-0.5zm1.1-1.2c0-0.3 0-0.5 0.1-0.5 0.2 0 0.6 0.2 1.4 0.7 1.7 1 2.8 2 3.4 3.2s0.9 2.9 0.9 5.3c0 2.3-0.3 4.1-0.8 5.3-0.6 1.2-1.6 2.4-3.3 3.6-0.6 0.5-1.3 0.8-2 0.9s-1.1 0-1.4-0.3c-0.1-0.3-0.1-0.4 0-0.5l0.3-0.9c0.1-0.6 0.3-1.2 0.4-1.9s0.3-1.9 0.4-3.5 0.2-3.5 0.3-5.5c0-1.6 0.1-2.4 0.2-2.7 0.2-0.3 0.3-0.8 0.4-1.5 0.1-0.6 0-1-0.1-1.1 0-0.1-0.2-0.3-0.2-0.6z"/>
		<path d="m78.8 79.4c0.1-1.5 0.3-2.2 0.6-2 0.2 0.1 0.4 0.7 0.5 1.9 0.1 0.7 0.3 1.2 0.4 1.6 0.2 0.4 0.5 0.8 1 1.2 0.9 0.8 1.2 1.4 1 1.7s-1.1 0.4-2.7 0.4c-1.9 0-2.8-0.2-2.8-0.7 0-0.2 0.3-0.6 0.8-1.1 0.4-0.3 0.6-0.6 0.7-1 0.3-0.4 0.4-1 0.5-2zm-1.1-13.2c-1.1-0.9-0.8-1.3 0.9-1.3 0.4 0 0.9 0 1.7 0.1 1.6 0.1 2.6 0.3 3.2 0.5 0.6 0.3 0.9 0.7 0.9 1.3 0 0.2 0.1 0.5 0.3 0.7 0.2 0.3 0.3 1 0.3 2 0 1.2 0.1 2 0.2 2.1 0.2 0.2 0.3 0.3 0.5 0.3 0.2-0.1 0.3-0.3 0.3-0.6 0-0.4 0.1-0.7 0.3-0.7s0.3 0.2 0.3 0.5 0.2 0.6 0.7 0.8c0.3 0.2 0.5 0.3 0.5 0.6 0 0.2 0 0.7-0.1 1.5-0.1 0.9-0.5 2.2-1 4s-0.8 2.8-0.8 2.9c0 0.3-0.2 0.9-0.6 1.7s-0.6 1.2-0.8 1.2-0.5-0.4-0.8-1.1-0.6-1.6-1-2.7c-0.3-1.1-0.6-1.7-0.7-2-0.2-0.5-0.5-1.3-0.8-2.5-0.3-1.1-0.6-1.8-0.7-2.1-0.2-0.5-0.5-1.4-0.9-2.6s-0.8-2.2-1.1-3c-0.1-0.7-0.5-1.2-0.8-1.6zm1.5 8.9c0-0.2 0.1-0.4 0.2-0.4 0.2 0 0.3 0 0.5 0.2 0.1 0.1 0.1 0.5-0.2 1-0.2 0.5-0.5 0.8-0.7 0.8-0.1 0-0.1 0-0.1-0.1v-0.3c0-0.1 0-0.2 0.1-0.3 0-0.1 0.1-0.2 0.1-0.4 0.1-0.2 0.1-0.4 0.1-0.5zm14.7-10.3c0-0.2 0.2-0.2 0.6-0.3 0.4 0 0.9 0 1.4 0.1s0.9 0.2 1.1 0.4c0.3 0.2 0.4 0.4 0.5 0.5 0 0.1-0.1 0.2-0.3 0.3-0.2 0.2-0.4 0.2-0.6 0s-0.4-0.2-0.7-0.1-0.4 0.3-0.5 0.6c0 0.2 0.1 3.4 0.3 9.5 0.1 2.9 0.2 4.6 0.3 5.3s0.3 1.2 0.6 1.4c0.4 0.3 0.6 0.7 0.4 1.1-0.1 0.2-0.4 0.4-1 0.5-0.5 0.1-1.8 0.1-3.7 0-2 0-3.2-0.1-3.8-0.2-0.5-0.1-0.8-0.2-0.8-0.5-0.1-0.4 0.2-0.7 0.7-0.9s0.8-0.6 0.9-1.1c0.2-0.8 0.3-3.4 0.4-8 0.1-2.8 0.1-4.7 0.2-5.6s0.3-1.6 0.5-2c0.5-0.9 0.9-1.1 1.1-0.8 0 0.1 0.1 0.2 0.1 0.3 0.1 0.2 0.3 0.3 0.8 0.4s0.9 0.1 1.4 0.1c0.4 0 0.7-0.2 0.7-0.3 0-0.2-0.1-0.3-0.3-0.3s-0.3-0.2-0.3-0.4z"/>
		<path d="m98.5 66c0.1-0.2 0.4-0.4 0.9-0.5s1.7-0.1 3.6-0.1c2.8 0 4.3 0.1 4.4 0.4 0.1 0.2-0.1 0.7-0.6 1.3l-0.8 0.9v7.6c0 5.1 0.1 7.7 0.3 7.8s0.3 0.4 0.3 0.7c0 0.2 0 0.2-0.1 0.3s-0.2 0-0.4-0.1c-0.2 0-0.3-0.1-0.5-0.1-0.1 0-0.4-0.1-0.7-0.1s-0.7-0.1-1.1-0.1c-1.3 0-2.2-0.2-2.8-0.5-0.3-0.2-0.6-0.4-0.7-0.7-0.2-0.6-0.4-4.2-0.6-10.9-0.1-2-0.1-3.2-0.2-3.7s-0.3-0.9-0.6-1.1c-0.4-0.4-0.5-0.8-0.4-1.1zm1.1 18c0.2-0.2 0.8-0.2 1.7 0 0.5 0.1 0.7 0.3 0.7 0.5-0.1 0.2-0.5 0.3-1.2 0.3-1 0-1.4-0.2-1.3-0.6 0 0 0-0.1 0.1-0.2z"/>
		<path d="m110.3 77.9c0.1-2.2 0.2-3.3 0.5-3.3 0.2 0 0.4 0.5 0.6 1.5s0.3 2.1 0.3 3.4c0 0.6 0.1 1 0.2 1.3s0.5 0.7 1 1.2c0.9 0.8 1.2 1.4 1 1.7s-1.1 0.4-2.7 0.4c-1.5 0-2.4-0.1-2.6-0.4-0.3-0.3 0-0.8 0.7-1.6 0.4-0.5 0.7-0.9 0.8-1.3 0-0.4 0.1-1.4 0.2-2.9zm-1.8-12.8c0.2-0.3 1.5-0.4 4-0.3l3.8 0.1 1.3 2.4c0.8 1.6 1.3 2.6 1.3 2.9s0.2 1 0.7 1.8c0.5 0.9 0.9 1.4 1.1 1.5s0.3 0.3 0.3 0.8c-0.1 0.4 0 0.7 0.1 0.8 0.2 0.1 0.4 0.6 0.5 1.4 0.2 0.7 0.3 1.1 0.5 1.1s0.3-0.3 0.4-1l0.1-1.1 0.4 1c0.3 0.6 0.4 1.1 0.5 1.7 0.1 0.5 0.2 0.9 0.3 1.2 0.1 0.2 0.1 0.4 0 0.4-0.1 0.1-0.2 0.1-0.5 0.1s-0.5 0-0.6 0.1c-0.1 0-0.1 0.1 0 0.2s0.1 0.3 0.2 0.5 0.2 0.5 0.2 0.7c0 0.3 0 0.7-0.1 1.1-0.2 0.5-0.3 0.9-0.5 1s-0.6 0.3-1.2 0.3c-0.6 0.1-1 0.1-1.2 0-0.3-0.1-0.5-0.2-0.8-0.5-0.4-0.5-0.7-0.8-0.7-0.9s-0.4-0.8-1.2-2.2-1.6-2.7-2.3-4-1.1-2-1.2-2l-2-3.4c-0.6-1.1-1.3-2.1-2-3s-1.2-1.5-1.4-1.9c0-0.4-0.1-0.6 0-0.8zm11.8 0c0.1-0.2 1-0.3 2.8-0.3 1.7 0 2.6 0.2 2.8 0.4s-0.2 0.7-0.9 1.4c-0.6 0.5-0.9 0.9-1 1.2s-0.2 1-0.2 2c0 1.4-0.1 2.1-0.3 2.1s-0.4-0.7-0.7-2.2c-0.2-0.9-0.3-1.5-0.5-2-0.2-0.4-0.5-0.9-1-1.4-0.8-0.6-1.1-1.1-1-1.2zm2.4 8.5c-0.2 0-0.3-0.1-0.3-0.3s0.1-0.3 0.3-0.3 0.3 0.1 0.3 0.3c0.1 0.2 0 0.3-0.3 0.3z"/>
		<path d="m130.8 67.1c0-0.2 0-0.4 0.1-0.4s0.4-0.1 1-0.1h1.1v2.6c0.2 9.1 0.5 13.9 1 14.3 0.3 0.2 0.4 0.5 0.4 0.8 0 0.8-0.6 1-1.7 0.7-1-0.3-2-0.9-3-1.9-1.1-1-1.9-2.1-2.3-3.2s-0.6-2.7-0.6-4.6c0-1.7 0.2-3 0.5-3.8 0.3-0.9 1-1.7 2-2.7s1.5-1.5 1.5-1.7zm8.2 7.8c2.4 0 3.7 0.1 3.8 0.3s0.1 0.5-0.1 0.9c-0.1 0.5-0.3 1.1-0.5 1.9s-0.3 1.6-0.3 2.4c0 1.3-0.2 2.2-0.7 2.6s-1.6 0.7-3.4 0.9c-1.1 0.1-1.7 0.1-1.7 0s0.3-0.4 0.8-1c0.3-0.3 0.6-0.6 0.6-0.8 0.1-0.2 0.1-0.4 0-0.5-0.1-0.2-0.2-0.5-0.3-1-0.2-0.5-0.3-1.1-0.4-1.8-0.1-0.6-0.2-1-0.5-1.4-0.2-0.4-0.4-0.7-0.7-0.8-0.2-0.2-0.4-0.3-0.5-0.5s-0.1-0.4-0.1-0.6c0.1-0.2 0.4-0.4 0.8-0.4 0.8-0.1 1.7-0.2 3.2-0.2zm0.5-9.1c0.3 0.2 0.8 0.1 1.3-0.2s0.9-0.4 1-0.4c0.2 0.1 0.3 1.2 0.3 3.5 0 1.4 0 2.3-0.1 2.7-0.1 0.5-0.2 0.7-0.4 0.7-0.3 0-0.6-0.3-1-1-0.4-0.6-0.7-1.5-1-2.4-0.2-0.6-0.5-1.1-0.8-1.6-0.4-0.5-0.6-0.9-0.9-1.1-0.2-0.2-0.3-0.3-0.2-0.4 0.9 0 1.4 0 1.8 0.2z"/>
	</g>
</svg>
