<?xml version="1.0" encoding="UTF-8"?>
<svg enable-background="new 0 0 150 150" version="1.1" viewBox="0 0 150 150" xml:space="preserve" xmlns="http://www.w3.org/2000/svg">
<path d="m133.7 55.3c-8.3-24-31.1-41.3-57.9-41.3-26.7 0-49.4 17.1-57.8 41-6.9 1.8-12 8-12 15.4v10c0 7.5 5.1 13.7 12.1 15.5 8.5 23.7 31.1 40.6 57.7 40.6 26.7 0 49.4-17.1 57.8-40.9 6.4-2.1 11-8.1 11-15.2v-10c0-7-4.5-13-10.9-15.1z" fill="#1B512A" opacity=".5"/>
<path d="m94.5 49.3c0.2 0.1 0.4 0.3 0.6 0.4 0-0.1-0.1-0.2-0.1-0.3-0.2 0-0.4-0.1-0.5-0.1zm-0.7-0.5c0-0.1 0-0.1-0.1-0.2h-0.2c0.1 0.1 0.2 0.2 0.3 0.2zm-32.8 55.2c-2.4-1.2-4.6-2.7-6.6-4.4-0.3 0-0.7 0-0.9-0.1v-0.2c-0.4-0.1-0.8-0.1-1.2-0.2 0-0.6 0.1-0.9 0.3-1.3-0.6-0.6-1.2-1.3-1.8-2h-8.3c3.1 5 7.3 9.2 12.3 12.4 1.9-1.4 4-2.8 6.2-4.2zm35-53.5zm19.6 4.3zm-62.7 43.4v0.2h0.3c-0.1 0-0.2-0.1-0.3-0.2zm69.7 6c0.1-0.1 0.3-0.2 0.6-0.2v0.2c0.5-0.1 1-0.1 1.4-0.2v0.2h0.6v0.2c0.4-0.1 0.8-0.3 1.2-0.4v0.2c0.3 0.1 0.6 0.1 0.8 0.2v0.2c0.3-0.1 0.6-0.1 0.8-0.2v-0.2c0.4 0.1 0.8 0.3 1.2 0.4v0.2c0.2-0.1 0.4-0.1 0.6-0.2v-0.2h0.4c1.5-2.8 2.7-5.7 3.8-8.7h-7.4c-1 3-2.4 5.8-4 8.5zm2.3 3.5c-0.2-0.1-0.1-0.3-0.4-0.4-0.1 0.7 0 0.7-0.6 0.8 0.1 0.7 0.2 0.9 1 1v-0.1h0.6v-0.2c0.2-0.2 0.1 0 0.2-0.4h-0.2c-0.2-0.9-0.1-0.3-0.6-0.7zm-27.3-0.6v-0.2h-1.4v-0.2h-0.4v-0.2h-1.4v-0.2h-1.4v-0.2h-0.6v-0.2c-0.8-0.3-1.5 0.3-1.7-0.6h-0.2v0.4c-0.6-0.1-1.2-0.3-1.9-0.4v-0.2c-0.3-0.1-0.4 0.2-0.4 0.2h-0.2v-0.2h-0.4c-3.8 1.5-7.9 2.4-12.2 2.4-4.8 0-9.3-1.1-13.4-2.9-2.2 1.4-4.3 2.9-6.4 4.3 5.8 3.5 12.6 5.5 19.9 5.5 8.3 0 16-2.6 22.4-7.1-0.2-0.1-0.2-0.1-0.3-0.2zm-9.1 2.4v0.2c-0.4 0.1-0.8 0.1-1.2 0.2v0.2h-0.8v0.2h-0.6v0.2h-0.6v0.2h-0.6v0.2h-1.4v0.2c-0.8 0.2-1.5 0.4-2.3 0.6v-0.2c0.4-0.2 0.5-0.3 0.6-0.8 0.8-0.1 1.3-0.4 1.9-0.6h0.2v0.2c0.4-0.1 0.8-0.1 1.2-0.2 0.1-0.1 0.1-0.3 0.2-0.4h0.4v-0.2c0.2 0.1 0.4 0.1 0.6 0.2v-0.2h0.6v-0.2c0.7-0.1 1.4-0.1 2.1-0.2l0.2 0.2c-0.3 0.2-0.1 0.1-0.5 0.2zm10.6-56.5c-0.2-0.1-0.4-0.1-0.6-0.2-0.1-0.1-0.1-0.3-0.2-0.4h-0.2c0.2 0.2 0.5 0.4 0.7 0.7l0.3-0.1zm-3 53.5h0.4c-0.1-0.2-0.1-0.4-0.2-0.6h-0.2v0.6zm7.6-4.5c1.6-1.7 3-3.5 4.3-5.4-0.1 0-0.2-0.1-0.3-0.3h-0.2v-0.4h-0.6v-0.2h-4.6c0.1 0.2 0.3 0.3 0.7 0.4 0.1 0.2 0.1 0.4 0.2 0.6h0.6v0.6h0.6v0.2h0.2v0.6c-0.3 0.1-0.6 0.1-0.8 0.2-0.1-0.1-0.1-0.3-0.2-0.4h-0.6v-0.2h-0.2v0.3c-0.5 0.1-0.6-0.2-0.6-0.2-0.5-0.1-0.5 0.2-0.8 0.2-0.1-0.1-0.1-0.3-0.2-0.4-0.3-0.1-0.4 0.2-0.4 0.2-0.5 0.1-0.6-0.2-0.6-0.2l-0.8 0.2v-0.2h-0.6c-1.2 1.3-2.6 2.4-4 3.5 0.2 0.1 0.4 0.1 0.7 0.2v0.2c0.3-0.1 0.5-0.1 0.8-0.2v-0.2c0.2 0 1.5 0.4 1.7 0.4 0.3 0 0.3-0.3 0.8-0.2v0.2c0.7 0.1 1.4 0.3 2.1 0.4v-0.2c0.3-0.1 0.6-0.1 0.8-0.2v0.2h1.2v0.2h0.4v0.2s0.2 0 0.4-0.1zm-59.7-49.7h1v0.6h-1.4v0.1h8.6c5.9-6.1 14.1-10 23.3-10 1.2 0 2.4 0.1 3.6 0.2-0.1-0.1-0.2-0.3-0.3-0.5h-0.6v-0.4c-0.3-0.1-0.6-0.3-0.8-0.4v-0.4h-0.2v-0.2c-0.5-0.4-0.4 0.2-0.6-0.6h-0.6v-0.2c-0.2-0.2-0.1 0-0.2-0.4 0.3 0 0.6 0.1 0.9 0.1 0-0.1-0.1-0.2-0.1-0.2h-2.1v-0.2h-0.5v-0.2h-1s0-0.1-0.4-0.2v-0.8c0.2 0 0.6-0.1 1-0.2 0-0.1-0.1-0.1-0.1-0.2h-0.6c-0.3-0.2-0.2-0.6-0.2-1h0.6c0.2 0.8 0.1 0.3 0.6 0.6v0.2c0.3 0.2 0.4 0.2 0.8 0.2v0.1c0.6 0 1.2 0 1.5 0.1v0.2c0.7 0.3 1.1 0.6 1.9 0.8v0.6h-0.6c-0.1 0.1-0.1 0.3-0.2 0.4h-0.2c0 0.1 0.1 0.3 0.1 0.4h0.6c0.1 0.3 0.1 0.6 0.2 0.8h0.6v0.4c0.2 0.2 0.1 0 0.2 0.4h0.6c0.1 0.3 0.1 0.6 0.2 0.8h0.6c0 0.1 0 0.1 0.1 0.2 4.6 0.7 8.9 2.4 12.6 4.8-0.1-0.2-0.1-0.3-0.3-0.4h-0.4c-0.1-0.2-0.1-0.4-0.2-0.6h-0.6v-0.2c-0.3-0.2-0.2-0.5-0.4-0.6h-0.4c-0.1-0.2-0.1-0.4-0.2-0.6h-0.6c-0.1-0.3-0.1-0.6-0.2-0.8-0.4-0.1-0.8-0.1-1.2-0.2-0.1-0.3-0.1-0.6-0.2-0.8-0.5-0.2-0.8-0.5-1.4-0.6v-0.4c-0.6-0.3-0.8-0.5-1-1h-0.8v-0.4c-0.6-0.3-0.8-0.5-1-1h-0.6v-0.6h-0.6c-0.1-0.3-0.3-0.6-0.4-0.8h-0.4c-0.6-0.2-0.6-0.2-0.8-0.8h-0.6c-0.1-0.6-0.2-0.7-0.8-0.8-0.1-0.2-0.1-0.4-0.2-0.6h-0.6v-0.2c-1.1-0.1-2.2-0.2-3.3-0.2s-2.3 0.1-3.4 0.2l0.1 0.1h0.2v0.1l-0.2 0.2c-0.4-0.2-0.4-0.3-1-0.4v-0.3c-11.4 1.3-21.1 7.2-27.4 15.8zm36.7-15.2h0.2v0.2c0.5 0.4 0.4-0.2 0.6 0.6h0.6v0.2c0.3 0.2 0.2 0.5 0.4 0.6h0.5c0.1 0.2 0.1 0.4 0.2 0.6h0.6v0.2c0.3 0.2 0.2 0.5 0.4 0.6h0.4c0.1 0.2 0.1 0.4 0.2 0.6 0.3 0.1 0.7 0.1 1 0.2 0.2 0.4 0.3 0.3 0.4 0.8h0.6v0.4c0.6 0.2 0.9 0.4 1 1h0.6v0.4c0.6 0.3 0.8 0.5 1 1h0.6c0.2 0.7 0.3 0.4 0.6 0.8h0.4v0.7h0.6v0.2c0.3 0.2 0.2 0.5 0.4 0.6h0.4c0.1 0.2 0.1 0.4 0.2 0.6 0.7 0.1 1.3 0.4 1.4 1h0.6v0.4c0.6 0.2 0.9 0.4 1 1h0.6c0.2 0.7 0.3 0.4 0.6 0.8h0.2v0.4l-0.2 0.2c-0.1-0.1-0.2-0.1-0.3-0.2 0.2 0.2 0.5 0.4 0.7 0.6v-0.5h0.6c0.2 0.8 0.1 0.3 0.6 0.6v0.2c0.3 0.2 0.4 0.2 0.8 0.2 0.2 0.8 0.2 0.2 0.6 0.6v0.1h7.3c-6.1-8.8-15.7-14.9-26.8-16.4v0.7zm-31.2-16.1c1-0.2 1.3-0.7 2.5-0.8 0.2 0.4 0.3 0.5 0.8 0.6 0.1-0.4 0.1-0.8 0.2-1.2h0.2c0.3-0.4 0.3-0.4 0.4-1h0.4c0.2-0.6 0.4-1.1 0.6-1.7 0.6 0.1 1.2 0.3 1.9 0.4v0.4h0.6v0.6c-0.4 0.2-0.8 0.3-1 0.6h0.2v0.6h0.2v0.2c0.5-0.1 1-0.1 1.4-0.2v0.2h0.2c0.1 0.3 0.1 0.7 0.2 1h0.2l-0.2 1.4h-0.3v0.6c5.5-1.7 11.3-2.7 17.5-2.7 2.4 0 4.8 0.2 7.1 0.5 0.2-0.2 0.4-0.2 0.9-0.2 0.1 0.1 0.1 0.3 0.2 0.4 19.1 2.8 35 15.4 42.5 32.5h7.5c-1.3-3.5-3-6.9-4.9-10.1 0-0.1 0-0.1-0.1-0.1-11.1-18-30.8-29.9-53.2-29.9-7.9 0-15.5 1.5-22.5 4.2-0.1 0.5-0.4 1.1-0.4 1.7-0.6 0.1-0.5 0-0.6 0.6h-0.6v-0.2c-0.1 0.1-0.3 0.1-0.4 0.2-0.7-0.1-1.4-0.1-2.1-0.2 0 0.5-0.1 0.5-0.2 0.8h0.2c0.3 0.4 0.4 0.1 0.6 0.8zm79.9 24.5c0.1 0.1 0.1 0.3 0.2 0.4h0.4v0.6h-2.9c-0.1-0.3-0.2-0.5-0.2-1h2.5zm-74.4-21.6-0.3-0.6c-0.3 0.1-0.6 0.3-0.8 0.4v0.6h-0.6c-0.1-0.2-0.1-0.4-0.2-0.6h-0.2v0.6h-0.6c0.1-0.3 0.1-0.7 0.2-1-1 0.3-0.2 0.2-0.6 0.8-0.2 0.2-0.7 0.3-1 0.4v0.2c-0.4-0.1-0.8-0.1-1.2-0.2v0.2c-0.3 0 0.1-0.1-0.2-0.2h-1.5v-0.2h-0.4v-0.2h-1.2l-0.2-0.6c-0.2 0.1-0.5 0.4-0.8 0.2v-0.2c-0.2-0.2-0.1 0-0.2-0.4 0.2-0.2 0.7-1.5 0.6-1.9l-0.5-0.2v-0.2c-12 6.7-21.7 17.4-27.1 30.2 0.4-0.1 0.8-0.1 1.2-0.2v0.2h0.6c0.1 0.1 0.1 0.3 0.2 0.4h1.2v0.8l-0.2 0.2h-2.9l-0.2 0.4h-0.7s0 0.1-0.1 0.2h7.5c5.8-13.2 16.7-23.7 30.2-29.1zm-31.3 18.6h3.9v0.6c-1 0-3.2 0.3-3.7-0.2-0.2-0.2-0.1 0.1-0.2-0.4zm-5.6 8.7c-0.1 0.2-0.2 0.4-0.2 0.6 0.1 0 0.1-0.1 0.2-0.1v-0.5zm105.7 61.3c-0.4-0.1-0.8-0.1-1.2-0.2v-0.2h-0.4v-0.2c-0.8-0.1-1.7-0.3-2.5-0.4v-0.2h-0.2v-0.2h0.4c0.2-0.2 0-0.1 0.4-0.2v-0.6c0.2-0.1 0.4-0.1 0.6-0.2v-0.2c0.4-0.3 0.5-0.4 0.6-1h-0.4c-0.1 0.1-0.1 0.3-0.2 0.4h-0.8l0.2-1.2h0.2c0.2-0.2 0-0.1 0.4-0.2v-0.4s-0.1-0.1-0.3-0.2c-0.4 0.6-0.8 1.2-1.3 1.7 0.2 0.3 0.3 0.7 0.3 1.3-0.3 0.1-0.6 0.1-0.8 0.2-0.1 0.1-0.1 0.3-0.2 0.4-0.2 0.1-0.5 0.1-0.9 0-10.1 12.1-25.3 19.7-42.3 19.7-13.1 0-25.1-4.5-34.5-12.1-0.2 0.1-0.3 0.2-0.5 0.3h0.6c0.1 0.6 0.1 0.5 0.6 0.6v0.6h0.2v0.2h0.6c-0.1 0.2-0.1 0.4-0.2 0.6h-2.1c-0.1 0.1-0.1 0.3-0.2 0.4h-0.6c-0.1 0.1-0.1 0.3-0.2 0.4h-1.4c-0.1-0.3-0.2-0.3-0.2-0.8h0.2v-0.2h-0.1c-1 0.7-1.9 1.3-2.7 1.7 10.9 9.4 25.1 15.1 40.6 15.1 20.3 0 38.3-9.7 49.7-24.8h-1.3v-0.1zm-48.2 19.2v0.2c-0.4-0.1-0.2 0-0.4-0.2h0.4zm-0.4-0.5v0.2c-0.4-0.1-0.2 0-0.4-0.2h0.4zm5 1.5c-0.1 0.6-0.1 0.5-0.6 0.6 0 0.5-0.1 0.5-0.2 0.8-0.2-0.2-0.1 0-0.2-0.4h-0.4v0.4h-0.6c-0.1-0.2-0.1-0.4-0.2-0.6h-0.2v0.2h-0.2c0.1 0.3 0.1 0.7 0.2 1h-0.2c-0.2 0.2 0.1 0.2-0.2 0.2l-0.4-0.2v0.2h0.2c0.4 0.2-0.4 0.2-0.4 0.2v0.2c-0.2 0.1-0.6 0-0.6-0.2h-0.2v0.4c-0.3-0.1-0.7-0.1-1-0.2 0.2-0.8 0.6-0.6 0.6-1.7h0.4c0.1-0.2 0.1-0.4 0.2-0.6 0.2-0.1 0.4-0.1 0.6-0.2 0.3-0.4 0.7-0.8 1-1.2h1c0.5 0.5 0.6 0.1 1.2 0.4v0.2c0.2 0.1 0.4 0.1 0.6 0.2-0.2 0.3 0 0.2-0.4 0.3zm10.5 0.4v-0.2h-0.2v-0.6c0.4 0.3 0.3 0.2 0.4 0.8h-0.2zm6.5-1.4v-0.4c0.2 0.2 0.1 0 0.2 0.4h-0.2zm-73.1-35.9h-7.4c3.5 10 9.5 18.9 17.2 25.8 1.4-0.9 3.5-2.3 6-3.9-6.9-5.9-12.4-13.4-15.8-21.9z" fill="#66FF66"/>
<path d="m69.2 83.3h-0.3v0.9h-0.3v0.7h-0.3v0.9h-0.3v0.5h-0.3c0 0.2 0.1 0.3 0.1 0.5h2.9v-8.8c-0.5 0.5-0.2 1.1-0.6 1.8h-0.3c-0.2 0.7-0.4 1.4-0.6 2h-0.3l0.6 0.9h-0.3v0.6zm75-0.6c-0.4-0.2-0.3-0.5-0.6-0.7h-0.6c-0.1-0.2-0.2-0.5-0.3-0.7h-0.9v-0.2c-0.4-0.3-0.1 0-0.3-0.5-0.9-0.2-1-0.3-1.2-0.9h-0.8v6.1c0 3.6-4 6.5-8.9 6.5h-40.7c0 0.1 0.1 0.2 0.1 0.3h-0.9v-0.2c-0.1 0-0.1-0.1-0.1-0.1h-2c0 0.1-0.1 0.2-0.1 0.3-0.6-0.1-0.7-0.1-0.8-0.3h-4.2v0.1h-0.3v0.7h-0.3c0.1 0.4 0.2 0.8 0.3 1.1h-0.3l-0.3 1.6h-0.3v0.2h0.3v0.1h2.6c-0.6-0.5-0.9-1.1-1-1.9h0.9l0.9 1.8c0.7-0.2 0.9-0.4 1.9-0.5v0.2h0.3c-0.1 0.1-0.1 0.2-0.2 0.3h44.1c7.8 0 14.1-4.6 14.1-10.3v-2.9h-0.4v-0.1zm-5.2 9.3h-0.3c-0.4 0.4-0.3 0.4-1.2 0.5v-0.9c0.3-0.1 0.6-0.2 0.9-0.2v0.2l0.6 0.2v0.2zm-61.7-8h0.3v-0.7h0.3c0.4-0.3 0-0.1 0.6-0.2l-0.3-1.1c-0.4 0.6-0.8 1.1-1.2 1.4-1.1 0.9-2.7 1.4-4.8 1.4v2.1h6.7c0-0.4-0.1-0.8-0.1-1.2h0.3l0.3-1.1h0.6v-0.6c-1.2 0.2-1.2 0.6-2.5 0.7 0-0.2-0.1-0.5-0.2-0.7zm1.2 1.6h-0.3v0.2c-0.6 0.1-0.8-0.2-0.9-0.5 0.1-0.3 0.2 0.1 0.3-0.2 0.3 0.1 0.6 0.2 0.9 0.2v0.3zm-21.1 6.7v0l-0.3 0.1v0.9h-0.3v0.7h-0.3l-0.3 1.8h-0.3c0 0.1 0.1 0.2 0.1 0.3h8.6v-0.1h0.3v-2c0.2-0.5 0.5-1.1 0.8-1.7h-8.3zm21.3-22.5c0.5 0.7 0.9 1.1 1.4 1.2 0.2-0.5-0.4-0.6-0.3-0.8h0.3l0.3-1.6h0.3l0.3-1.4h0.3c0.1-0.4-0.3-0.4-0.3-0.5-0.2-0.5 0.3-1 0.3-1.1h-0.3l-0.3-1.4c0.3-0.1 0.6-0.1 0.9-0.2h-4v0.4h-0.3v0.7h-0.3v0.9h-0.3c0 0.3 0.3-0.1 0.3 0.2v0.9h-0.3v0.2h0.1c0.4 0.6 1.1 1.4 1.9 2.5zm-0.2-5.5 0.9 0.2v0.7h-0.9v-0.9zm0.3 3.6v0.2h-0.3c-0.2 0.1 0 0.4-0.6 0.2v-0.2c-0.4-0.3-0.1 0-0.3-0.5 0.7 0.1 0.7 0.2 1.2 0.3zm24.3 3.3 2.4 0.6v0.7c-1 0.1-1.6 0.4-2.4 0.7l4.9 13.8h5.2l2.7-7.6-4.7-13.1c-0.8 0.1-1.5 0.1-2.3 0.2-0.2 0-2.2-0.5-2.5-0.5v0.2h-0.6v0.2c-0.3-0.1-0.7-0.1-1-0.2l-1.7 5zm4.9 11.2c-0.4-0.2 0 0-0.3-0.2h-0.3v-0.7c0.3 0.1 0.6 0.2 0.9 0.2-0.1 0.3-0.2 0.5-0.3 0.7zm-2.2-9.9c0.6-0.2 1.2-0.3 1.9-0.5v0.2h0.3c-0.2 0.5 0 0.2-0.3 0.5-0.5 0.4-0.8 0.4-1.9 0.5v-0.7zm9.4 1.3 1.3 3.7h0.1l3-8.8c0.3-0.8 0.6-1.4 0.9-1.7s0.9-0.6 1.9-0.9c0.7-0.3 1.1-0.6 1.1-1 0-0.6-0.6-0.9-1.9-0.9h-5.2c-1.3 0-1.9 0.3-1.9 1 0 0.4 0.4 0.8 1.3 1.2s1.3 0.9 1.3 1.5c0 0.7-0.2 1.7-0.7 3.1-0.4 0.8-0.8 1.8-1.2 2.8zm-63.2-5.6c0.1-0.8 0.8-1.4 1.8-1.8 1.1-0.5 1.6-0.9 1.6-1.2 0-0.7-0.6-1-1.8-1h-6.1c-1.2 0-1.8 0.3-1.8 1 0 0.4 0.5 0.8 1.6 1.2 1.1 0.5 1.7 1.1 1.8 1.8 0.1 0.6 0.2 1.3 0.2 2v2 2l2.5 3.1c0-0.6 0-1.6-0.1-3.1-0.1-1.3-0.1-2.3 0-3.1 0-1 0.1-2 0.3-2.9zm-0.5 13.3h0.3v-2.3l-10.1-12.8c0 0.1-0.1 0.2-0.1 0.4h-0.6c-0.1 0.5-0.2 0.9-0.3 1.4h-0.3c-0.4 0.3 0 0.1-0.6 0.2-0.3 1-0.6 2-0.9 2.9-0.9-0.2-0.7-0.1-0.9-0.7 1-0.7 0.8-2.9 1.9-3.6 0.4-0.3 0-0.1 0.6-0.2 0-0.7 0.3-1.1 0.6-1.4l-1-1.3h-11.9c-1.1 0-1.6 0.3-1.6 0.9 0 0.4 0.4 0.7 1.2 0.9 1 0.3 1.7 0.7 2 1.1l15.6 19.8h5.2c0.1-0.5 0.2-0.9 0.2-1.4h0.3c-0.1-0.5-0.2-0.9-0.3-1.4h0.9v0.2-0.9h-0.3c-0.1-0.4-0.2-0.8-0.3-1.1h0.3v-0.7zm29.2-23.7h4.7l-0.1-0.1h-0.6c-0.4-0.2-0.5-0.7-0.6-1.1-0.4-0.1-0.8-0.1-1.2-0.2l-0.3-1.1c-0.7 0-0.8-0.1-1.2-0.2 0.1-0.2 0.6-0.5 0.3-0.9h-0.3v0.2c-0.6 0.2-1.3-0.2-1.5-0.2v0.2c-0.6 0.4-0.8 1.1-0.9 1.8 0.3 0.1 0.6 0.2 0.9 0.2 0.1 0.1 0.5 0.8 0.8 1.4zm-50.5 11.3v11.6c0 0.8 0 1.4-0.1 1.9-0.1 0.7-0.8 1.4-1.9 1.9s-1.6 0.9-1.6 1.2c0 0.7 0.6 1 1.8 1h6c1.2 0 1.8-0.3 1.8-1 0-0.4-0.3-0.7-0.9-0.9-0.9-0.4-1.5-0.7-1.7-0.9-0.6-0.5-0.9-1.3-0.9-2.4v-9.2l-2.5-3.2zm80.6-4-0.4-1h-5l-0.2 0.6h1.5v0.3l1.2-0.2v0.2c1 0 2 0.1 2.9 0.1zm-58.9 21.7v-1.1c-0.2 0.3-0.1 0.6-0.2 1.1h0.2zm18.8-22.7h-5.2v0.4h0.3c0.2 0.3 0.2 0.4 0.3 0.9-0.3 0.1-0.6 0.2-0.9 0.2 0.1 0.6 0.5 0.8 0 1.4-0.2 0.1-0.4 0.2-0.6 0.2v0.7h-0.3v0.2h0.3v0.9h-0.6c-0.2 0.7-0.4 1.4-0.6 2h-0.4c-0.2 0.5 0.3 0.7 0.3 0.7-0.1 0.5-0.2 0.9-0.3 1.4-0.3 0.1-0.6 0.1-0.9 0.2v0.2c0.8 0.5 1.3 1.6 1.5 2.5h0.3c0-1.3-0.5-2.4 0.3-2.9 0.4-0.3 0-0.1 0.6-0.2v-0.9c0.3-0.1 0.6-0.2 0.9-0.2l0.3-1.4c0.4-0.1 0.8-0.2 1.2-0.2 0.1-0.5 0.1-0.6 0.3-0.9 0.4 0.2 0 0 0.3 0.2h0.3l-0.1 1.4h-0.6c-0.3 0.5-0.5 1.1-0.9 1.6-0.3 0.2-0.6 0.3-0.9 0.5v0.5h-0.3v0.5h-0.3c-0.2 0.5 0.3 0.7 0.3 0.7-0.1 0.4-0.2 0.8-0.3 1.1 0.2 0.1 0.4 0.2 0.6 0.2 0.3 0.7-0.4 1.7-0.6 2v1h-0.3v0.2h-1.2v-0.2c-0.5 0.1-1 0.2-1.5 0.2v-0.7h0.3c0.4-0.3 0.6-0.3 1.2-0.5 0.1-0.4 0.2-0.8 0.3-1.1-0.2-0.1-0.4-0.1-0.6-0.2-0.2-0.5-0.4-1.1-0.6-1.6h-0.9v-0.1c-0.4-0.3-1.1-1.4-0.9-2h0.3v-0.2h-0.3v-0.9h0.6c0.2-0.8 0.4-1.5 0.6-2.3h0.3l-0.3-1.1h0.3l0.6-2.7h-0.3l-0.3-0.9c0.3-0.1 0.6-0.2 0.9-0.2 0-0.1 0.1-0.3 0.1-0.4h-3.4c-1.2 0-1.8 0.3-1.8 0.9 0 0.4 0.4 0.8 1.2 1.1s1.2 0.8 1.2 1.5v15.7c0 0.7-0.4 1.2-1.2 1.5-0.2 0.1-0.3 0.1-0.4 0.2 0 0.2-0.1 0.3-0.1 0.5h-0.3l0.3 0.2c0 0.3-0.1 0.6-0.1 0.9 0.3 0.1 0.7 0.2 1.3 0.2h7l0.6-1.8h0.3v-0.7h0.1c0.1-0.3-0.2 0.1-0.3-0.2v-0.9c0.3-0.1 0.6-0.2 0.9-0.2-0.1-0.2-0.2-0.5-0.3-0.7h-0.3v-0.5h0.3c0.2-0.6-0.3-0.9-0.3-1.1h0.3v-0.7h0.3c0.1-0.5 0.2-1.1 0.3-1.6h0.3v-0.7h0.3c-0.1-0.5-0.2-0.9-0.3-1.4h0.3v-0.7h0.3l0.3-1.8h0.3c-0.1-0.5-0.2-0.9-0.3-1.4h0.3c0.1-0.4 0.2-0.7 0.3-1.1v-7.4zm-0.9 5c-0.5 0.1-1 0.2-1.6 0.2v-0.7h0.3v-0.2h1.2v0.7zm-13.9 23.3h0.3v-0.1h-5.9v0.5h-0.3l-0.3 1.4c0.1 0.2 0.2 0.5 0.3 0.7h-0.3l-0.3 1.2h5.5c0-0.1 0.1-0.2 0.1-0.3h0.3c-0.1-0.4-0.2-0.8-0.3-1.1h0.3v-0.7h0.3v-0.9h0.3v-0.7zm31.6-26.4c0.1 0 0.2 0.1 0.2 0.1 0.2 0.1 0.5 0.1 0.7 0.2 0.1 0.1 0.1 0.3 0.2 0.4 0.2 0.2 0.3 0.4 0.4 0.6 0.6 0.3 1.1-0.1 1.3 1.2-0.3 0.2-0.5 0.5-0.6 0.8l0.6 1.7c0.3-0.9 0.6-1.7 0.9-2.6 0.9 0.2 0.7 0.1 0.9 0.7h0.9v0.2c0.4 0.3 0.5 0.4 0.6 0.9-1.2 0-1.4-0.2-2.2-0.5 0.1 0.7 0.5 0.7-0.3 1.1v0.2h-0.8l0.2 0.5h0.7c-0.1 0.5-0.1 0.6-0.3 0.9h0.9c0.4-0.3 0-0.1 0.6-0.2l-0.3-1.4c1.1 0.2 0.6 0.3 1.2 0.7-0.3 0.7-0.6 1.4-0.9 2-0.6-0.1-0.9-0.1-1.2-0.1l4.8 13.5h5.2l2.7-7.9-2-5.6h-0.1c-0.1-0.2-0.2-0.5-0.3-0.7-0.9-0.2-1.9-0.3-2.8-0.5v-0.9h0.3l-0.3-1.1c0.5-0.1 0.5-0.2 1.2-0.2 0.3 0.2 0.5 0.3 0.8 0.3l-1-2.7c-0.1-0.3-0.2-0.5-0.2-0.6 0-0.2 0.2-0.4 0.5-0.6-0.6-0.1-1.2-0.1-1.7-0.2 0.1-0.5 0.2-0.9 0.3-1.4h0.4v-0.2h0.9v0.2c0.6 0.2 0.9-0.3 1.2-0.2-0.4-0.3-1.1-0.4-2.1-0.4h-4c0.1 0.4 0.2 0.7 0.3 1.1h0.9v0.2c0.4 0.3 0.1 0 0.3 0.5-0.6-0.1-1.2-0.2-1.9-0.2-0.1-0.2-0.2-0.5-0.3-0.7h-0.3v-0.9h-5.1c-1.6 0-2.4 0.3-2.4 1 0 0.3 0.3 0.5 1 0.8zm10.2 9.2h0.6v-0.7c0.6 0.1 1.2 0.2 1.9 0.2 0.2 0.7 0.5 0.8 0.6 1.6-0.5-0.1-1-0.2-1.6-0.2v0.2h-0.6c-0.7 0.2-1.4 0.7-2.2 0.9v-0.2h-0.3v-0.7c0.7-0.1 1-0.3 1.6-0.5v-0.6zm-0.3-10.4v0.9c-0.9-0.2-0.7-0.1-0.9-0.7l0.9-0.2zm-1.2 3.8h0.9v0.7h-0.9v-0.7zm-0.6 1.4h0.9v0.7h-0.9v-0.7zm34.9-16h-29.3c0.1 0.3 0.2 0.5 0.3 0.8h0.9v0.2c0.4 0.2 0.4 0.4 0.6 0.7h-0.3c-0.4 0.3 0 0.1-0.6 0.2l-3.1-1.1v-0.8h-6.5v0.1c0.8 0.5 0.3 0.9 1.5 1.1v0.2c0.6 0.1 1.2 0.2 1.9 0.2-0.2 0.7-0.3 1.4-0.5 2.1h35.1c4.9 0 8.9 2.9 8.9 6.5v14.3h0.5v0.5c0.9 0.3 1.1 0.5 1.6 1.1h0.9v0.5l1.2 0.5v0.5h0.3v0.2c0.5 0.3 0.6 0.1 0.7 0.2v-17.7c0-5.7-6.3-10.3-14.1-10.3zm-50.4 27.5c0.4 0.3 0 0.1 0.6 0.2-0.4-0.2 0 0-0.6-0.2zm-4.4-10.6v0.9c-0.2-0.1-0.5-0.1-0.7-0.2l-0.6 1.2c-0.2 0.3-0.5 0.6-0.9 0.8h0.1v0.2h0.9v0.2c0.3 0.2 0.3 0.3 0.6 0.5-0.2 0.5 0 0.2-0.3 0.5-0.4 0.3 0 0.1-0.6 0.2 0.1 0.8 0.4 1.2 0 2h-0.1c0.3 0.3 0.5 0.5 0.7 0.9 0.7 1 1.2 1.5 1.7 1.5 0.2 0 0.3 0 0.5-0.1v-0.7c0.2-0.2 0.5-0.8 0.7-1.4v-5.2c0-0.5-0.1-0.9-0.3-1.2h-0.1v-0.2c-0.2-0.2-0.5-0.4-0.8-0.4-0.4 0.2-0.6 0.3-0.8 0.5v0zm-3.5 3.6h0.1v-0.5h-0.1v0.5zm-52.1 17.8c-4.9 0-8.9-2.9-8.9-6.5v-21.5c0-3.6 4-6.5 8.9-6.5h25.5v-0.1h0.4c0.4-0.3 0-0.1 0.6-0.2v-0.7h0.3v-0.2h0.9v0.2h0.3c-0.2 0.5 0 0.2-0.3 0.5-0.4 0.3 0 0.1-0.6 0.2v0.3h17.4c0.2-0.8-1.2-0.8 0.6-1.2v-0.2h1.2c0.1 0.5 0.2 1 0.2 1.4h9c0.1 0 0.1 0 0.2-0.1-0.1-0.8-0.2-1.5-0.3-2.3h0.3l0.2-1.4h-9.4c0 0.4 0.1 0.8-0.2 1-0.3 0.3-0.5 0.3-0.9 0.5v-0.2c-0.6-0.3-0.6-0.4-0.6-1.1h0.6v-0.1h-15.9c-0.1 0.3-0.2 0.7-0.2 1h-0.3c-0.4 0.4-0.7 0.4-1.6 0.5-0.1-0.2-0.2-0.5-0.3-0.7h0.3c0.1-0.3 0.1-0.5 0.2-0.8h-27.6c-7.7-0.1-14.1 4.5-14.1 10.2v21.5c0 5.7 6.3 10.3 14.1 10.3h27.9c0.2-0.6 0.3-1.1 0.5-1.7h0.3v-0.7h0.3c0.2-0.4-0.1-1.1-0.2-1.4h-28.8zm35.8-37.5h0.9c-0.1 0.5-0.1 0.6-0.3 0.9-0.4-0.2 0 0-0.3-0.2h-0.3v-0.7zm-2.8 0.9c0.6-0.1 1.2-0.2 1.9-0.2v0.7h-0.3c-0.4 0.3 0 0.1-0.6 0.2v0.2h-0.9v-0.9zm24.8 37.8c-0.1-0.4-0.1-0.8-0.2-1.2h-0.7v0.1h0.3c-0.1 0.2-0.2 0.3-0.3 0.5-0.5 0.1-0.5 0.2-1.2 0.2v-0.7h0.2v-0.1h-9.4c-0.1 0.2-0.1 0.3-0.2 0.5h-0.3l0.3 1.4h-0.3v0.7h-0.3c-0.1 0.4-0.1 0.8-0.2 1.2h11.2c0-0.2 0.1-0.3 0.2-0.5h0.3v-0.9h0.3v-0.2h-0.3v-0.9h0.6zm-4.7-28.5h0.3v-0.2h-0.3l0.1-0.6h-1.2v2.1h0.8c0.2-0.5 0.3-0.9 0.3-1.3zm27.9-0.2h0.2c0-0.1-0.1-0.1-0.2-0.2v0.2z" fill="#66FF66"/>
<path d="m84.2 123.1 2.2 1.7-0.7-2.3c-0.1 0.1-0.2 0.2-0.2 0.4-0.2-0.1-0.3-0.1-0.5-0.1v-0.1h-0.3s0-0.1-0.1-0.1c-0.2 0-0.4-0.1-0.6-0.1v-0.1c-0.3-0.1-0.6-0.2-0.9-0.2v-0.1h-0.2v-0.1h-0.2v-0.1h-0.2v-0.1h-0.3v-0.1h-0.2v-0.1h-0.1v-0.1h-0.2v-0.1c-0.2 0-0.3-0.1-0.5-0.1l-0.1 0.4c0.2 0 0.4 0.1 0.6 0.1v0.1h0.2v0.1h0.1v0.1h0.1v-0.1c0.1 0 0.3 0.1 0.4 0.1v0.1c0.2 0.1 0.5 0.1 0.7 0.2l0.2-0.1 0.4 0.3h0.1v0.1h0.1v0.1c0.1 0 0.3 0.1 0.4 0.1v0.1h0.3v0.1c0.2 0 0.5 0.1 0.7 0.2v0.1l-0.1 0.1c-0.2-0.1-0.5-0.1-0.7-0.2v-0.1h-0.1v-0.1h-0.3zm2.4-3.3h0.3v-0.1c0.1 0 0.2 0 0.4-0.1l1.3-0.9-3.9-0.1-1.2-3.8-1.3 3.7-3.9-0.1 3.1 2.4-0.2 0.5h0.1c0.2-0.2 0.8-0.2 1.1-0.3v-0.1h0.2v0.1h0.3v-0.1h0.2v-0.1h0.2v-0.1h0.2v-0.1h0.2v-0.1h0.2v-0.1h0.3v-0.1h0.2v-0.1h0.2v-0.1h0.2v-0.1h0.2v-0.1h0.2v-0.1c0.2 0 0.5-0.1 0.7-0.1v0.3h0.2v-0.1h0.2v-0.1h0.3zm-3.4 0.4c-0.1 0-0.2 0-0.3 0.1 0 0 0-0.1-0.1-0.1 0 0 0 0.1-0.1 0.1h-0.2v0.1c-0.1 0-0.1 0-0.1-0.1-0.1 0-0.2 0.1-0.4 0.1v-0.1c0.2-0.1 0.2-0.2 0.5-0.2v-0.1c0.1-0.1 0.5 0.2 0.6 0l0.1 0.2zm-11.2 3.7 0.1 0.1h0.1v-0.1h-0.1v-0.1c0 0.1 0 0.1-0.1 0.1zm0.6-0.3-0.1-0.3h-0.1l-0.1 0.1 0.1 0.1c0.1 0.1 0.1 0.1 0.2 0.1zm-0.8 0.1v0l0.1 0.1c0.1-0.1-0.1 0-0.1-0.1zm0.8 0.3v-0.1h-0.3v0.1h0.3zm7.6 0.6 0.4-0.3c-0.1 0-0.3 0-0.4-0.1v0.4c-0.1 0 0 0 0 0zm2-1.8s0 0.1 0.1 0.1h0.1v-0.1c0.1 0 0.2 0 0.3 0.1l0.3-0.2v-0.1h-0.2s0-0.1-0.1-0.1c-0.1-0.1-0.1 0-0.1 0.1h-0.1v-0.1h-0.3v-0.1h-0.2v-0.1h-0.1v-0.1c-0.2 0-0.3-0.1-0.5-0.1-0.1 0-0.2-0.1-0.3-0.1l-0.1 0.3h0.1v0.1h0.2v0.1h0.3v0.1h0.2v0.1h0.1v0.1c0.1 0 0.1 0 0.2-0.1v0.1h0.1zm-11.2-4.3-1.2-3.8-1.1 3.3c0.1 0.1 0.3 0.2 0.4 0.4 0 0.1 0 0.2 0.1 0.3s0.3 0.2 0.4 0.4l-0.1 0.1c-0.1 0.1-0.1 0.2-0.2 0.4h-0.2v0.1h0.1c0.1 0.1-0.1 0.1-0.1 0.1v0.1c-0.1 0-0.3-0.1-0.4-0.1v-0.1h-0.3v-0.1c-0.6-0.1-0.9-0.6-1.5-0.7v-0.1h-0.1-1.5 0.1s0 0.1 0.1 0.1h0.1v0.1h0.1v0.1c0.1 0 0.2 0 0.3 0.1l0.1 0.1h0.1v0.1h0.1v0.1h0.2l0.1 0.1h0.2c0.2 0.1 0.2 0.2 0.5 0.2v0.1c0.4 0 0.6 0.3 0.9 0.4v0.3c-0.2-0.1-0.3-0.2-0.5-0.3h-0.2v-0.1c-0.1-0.1-0.1-0.1-0.3-0.1v-0.1c-0.3-0.1-0.5-0.2-0.8-0.3v-0.1h-0.1s0-0.1-0.1-0.1h-0.1l-0.1-0.1h-0.1v-0.1h-0.1c-0.3-0.2-0.2-0.3-0.6-0.3v-0.1c-0.1 0-0.2-0.1-0.3-0.1h-0.3l2.3 1.7h0.1v0.1l0.2 0.2c0.1 0.1 0.3 0.1 0.4 0.2v0.1c0.1 0 0.2 0 0.3 0.1v0.1h-0.2l-0.2 0.6 0.3-0.3h0.1c0.1-0.1 0.2-0.3 0.4-0.4 0.1 0 0.1 0 0.2-0.1v-0.1c0.2 0 0.2-0.1 0.3-0.3h0.1c0.1-0.2 0.2-0.2 0.4-0.3s0.1-0.3 0.4-0.3c0.1 0.1 0.1 0.2 0.3 0.2v0.1c0.2 0.1 0.3 0.4 0.5 0.6l0.2 0.1v0.1c-0.6-0.1-0.8-0.6-1.5-0.7-0.1 0.2-0.2 0.2-0.3 0.4 0.3 0.1 0.3 0.2 0.6 0.2v0.1c0.2 0 0.9 0.4 0.9 0.4l0.1 0.1c-0.1 0-0.3 0-0.4 0.1v0.1c-0.1 0-0.1 0-0.2-0.1-0.1-0.3-0.6-0.5-0.9-0.6v-0.1c-0.1 0-0.3-0.1-0.4-0.1-0.1 0.3-0.1 0.2-0.3 0.4v0.1h0.1c0.1 0.1 0.2 0.2 0.3 0.1v0.1c0.3 0 0.7 0.3 0.8 0.4h0.1v0.1h-0.1v0.1h-0.2v-0.1h-0.2c-0.1 0 0-0.1-0.1-0.1l-0.1 0.1v-0.1c-0.4-0.1-0.7-0.2-1.1-0.3v0.1c-0.2 0-0.3 0.1-0.4 0.3 0.2 0.1 0.5 0.1 0.7 0.2 0 0.1 0 0.1-0.1 0.2-0.3-0.1-0.5-0.1-0.8-0.2l-0.1 0.3v0.1l-0.8 2.2 1.3-0.9v-0.1h0.1l1.9-1.3 1 0.7h0.4c0-0.1 0.1-0.1 0.1-0.2h0.5v-0.1h0.2v-0.1c0.1 0 0.1 0.1 0.2 0.1h0.1l-0.5-1.8 3.2-2.3-3.8-0.5zm-5.5 8.7c0.1 0 0.1 0 0.2-0.1l0.1 0.1c-0.1-0.1-0.1-0.1-0.3-0.1v0.1z" fill="#66FF66"/>
<path d="m83.7 31 2.3 1.7-0.7-2.3c-0.1 0.1-0.2 0.2-0.2 0.4-0.2-0.1-0.3-0.1-0.5-0.1v-0.1h-0.3s0-0.1-0.1-0.1c-0.2 0-0.4-0.1-0.6-0.1v-0.1c-0.3-0.1-0.6-0.2-0.9-0.2v-0.1h-0.2v-0.1h-0.2v-0.1l-0.3 0.2v-0.1h-0.3v-0.1h-0.2v-0.1h-0.1v-0.1h-0.2v-0.1c-0.2 0-0.3-0.1-0.5-0.1l-0.1 0.4c0.2 0 0.4 0.1 0.6 0.1v0.1h0.2v0.1h0.1v0.1h0.1v-0.1c0.1 0 0.3 0.1 0.4 0.1v0.1c0.2 0.1 0.5 0.1 0.7 0.2l0.2-0.1 0.4 0.3h0.1v0.1h0.1v0.1c0.1 0 0.3 0.1 0.4 0.1v0.1h0.3v-0.1c0.2 0 0.5 0.1 0.7 0.2v0.1l-0.1 0.1c-0.2-0.1-0.5-0.1-0.7-0.2v-0.1h-0.1v-0.1h-0.3zm2.4-3.2h0.3v-0.1c0.1 0 0.2 0 0.3-0.1l1.3-0.9-3.9-0.1-1.2-3.8-1.3 3.7-3.9-0.1 3.2 2.4-0.2 0.5h0.1c0.2-0.2 0.8-0.2 1.1-0.3h0.2v-0.1h0.3v-0.1h0.2v-0.1h0.2v-0.1h0.2v-0.1h0.2v-0.1h0.2v-0.1h0.3v-0.1h0.2v-0.1h0.2v-0.1h0.2v-0.1h0.2v-0.1h0.2v-0.1c0.2 0 0.5-0.1 0.7-0.1v0.4h0.2v-0.1h0.2v-0.1h0.3zm-3.4 0.3c-0.1 0-0.2 0-0.3 0.1 0 0 0-0.1-0.1-0.1 0 0 0 0.1-0.1 0.1h-0.2v0.1c-0.1 0-0.1 0-0.1-0.1-0.1 0-0.2 0.1-0.4 0.1v-0.1c0.2-0.1 0.2-0.2 0.5-0.2 0.1-0.1 0.5 0.2 0.6 0l0.1 0.1zm-11.2 3.8 0.1 0.1h0.1v-0.1h-0.1v-0.1c0 0.1 0 0.1-0.1 0.1zm0.6-0.3-0.1-0.4h-0.1l-0.1 0.1 0.1 0.1c0.1 0.2 0.1 0.2 0.2 0.2zm-0.8 0.1 0.1 0.1c0.1-0.1-0.1-0.1-0.1-0.1zm0.8 0.2v-0.1h-0.3v0.1h0.3zm7.6 0.7 0.4-0.3c-0.1 0-0.3 0-0.4-0.1v0.4c-0.1 0 0 0 0 0zm2-1.9s0 0.1 0.1 0.1h0.1v-0.1c0.1 0 0.2 0 0.3 0.1l0.3-0.2v-0.1h-0.2s0-0.1-0.1-0.1c-0.1-0.1-0.1 0-0.1 0.1h-0.1v-0.1h-0.3v-0.1h-0.2v-0.1h-0.1v-0.1c-0.2 0-0.3-0.1-0.5-0.1-0.1 0-0.2-0.1-0.3-0.1l-0.1 0.3h0.1v0.1h0.2v0.1h0.3v0.1h0.2v0.1h0.1v0.1c0.1 0 0.1 0 0.2-0.1v0.1c0 0.1 0 0.1 0.1 0zm-11.2-4.3-1.2-3.8-1.1 3.3c0.1 0.1 0.3 0.2 0.4 0.4 0 0.1 0 0.2 0.1 0.3s0.3 0.2 0.4 0.4l-0.1 0.1c-0.1 0.1-0.1 0.2-0.2 0.4h-0.2v0.1h0.1c0.1 0.1-0.1 0.1-0.1 0.1v0.1c-0.1 0-0.3-0.1-0.4-0.1v-0.1h-0.3v-0.1c-0.6-0.1-0.9-0.6-1.5-0.7v-0.1h-0.1-1.4 0.1s0 0.1 0.1 0.1h0.1v0.1h0.1v0.1c0.1 0 0.2 0 0.3 0.1l0.1 0.1h0.1v0.1h0.1v0.1h0.2l0.1 0.1h0.2c0.2 0.1 0.2 0.2 0.5 0.2v0.1c0.4 0 0.6 0.3 0.9 0.4v0.3c-0.2-0.1-0.3-0.2-0.5-0.3h-0.2v-0.1c-0.1-0.1-0.1-0.1-0.3-0.1v-0.1c-0.3-0.1-0.5-0.2-0.8-0.3v-0.1h-0.1s0-0.1-0.1-0.1h-0.1l-0.1-0.1h-0.1v-0.1h-0.1c-0.3-0.2-0.2-0.3-0.6-0.3v-0.1c-0.1 0-0.2-0.1-0.3-0.1h-0.3l2.3 1.7h0.1v0.1l0.2 0.2c0.1 0.1 0.3 0.1 0.4 0.2v0.1c0.1 0 0.2 0 0.3 0.1v0.1h-0.2l-0.2 0.6 0.3-0.3h0.1c0.1-0.1 0.2-0.3 0.4-0.4 0.1 0 0.1 0 0.2-0.1v-0.1c0.2 0 0.2-0.1 0.3-0.3h0.1c0.1-0.2 0.2-0.2 0.4-0.3s0.1-0.3 0.4-0.3c0.1 0.1 0.1 0.2 0.3 0.2v0.1c0.2 0.1 0.3 0.4 0.5 0.6l0.2 0.1v0.1c-0.6-0.1-0.8-0.6-1.5-0.7-0.1 0.2-0.2 0.2-0.3 0.4 0.3 0.1 0.3 0.2 0.6 0.2v0.1c0.2 0 0.9 0.4 0.9 0.4l0.1 0.1c-0.1 0-0.3 0-0.4 0.1v0.1c-0.1 0-0.1 0-0.2-0.1-0.1-0.3-0.6-0.5-0.9-0.6v-0.1c-0.1 0-0.3-0.1-0.4-0.1-0.1 0.3-0.1 0.2-0.3 0.4v0.1h0.1c0.1 0.1 0.2 0.2 0.3 0.1v0.1c0.3 0 0.7 0.3 0.8 0.4h0.1v0.1h-0.1v0.1h-0.2v-0.1h-0.2c-0.1 0 0-0.1-0.1-0.1l-0.1 0.1v-0.1c-0.4-0.1-0.7-0.2-1.1-0.3v0.1c-0.2 0-0.3 0.1-0.4 0.3 0.2 0.1 0.5 0.1 0.7 0.2 0 0.1-0.1 0.1-0.1 0.2-0.3-0.1-0.5-0.1-0.8-0.2l-0.1 0.3v0.1l-0.7 1.7 1.3-0.9v-0.1h0.1l1.9-1.3 1 0.7h0.4c0-0.1 0.1-0.1 0.1-0.2h0.5v-0.1h0.2v-0.1c0.1 0 0.1 0.1 0.2 0.1h0.1l-0.5-1.8 3.2-2.3h-4zm-5.5 8.8c0.1 0 0.1 0 0.2-0.1l0.1 0.1c-0.1-0.1-0.1-0.1-0.3-0.1v0.1z" fill="#66FF66"/>
<path d="m42.6 102.1-1.7-5.3-1.7 5.3h-5 0.2v0.1h0.2v0.1c0.3 0.1 0.5 0.2 0.8 0.3v0.7l2.4 1.7c0.1 0 0.2-0.1 0.3-0.1v-0.1h0.6l0.1-0.1v-0.1h-1.5v-0.4c0.5-0.2 1.3-0.1 1.9-0.1v0.1c0.2 0 0.5 0.1 0.7 0.1v0.1c0.2 0.2 0.1 0.8 0.1 1.2l-0.4 0.2s0.2 0.5 0 0.8v0.1h-0.7v-0.3c0.3-0.1 0.2 0 0.3-0.3h-0.3v-0.1h-0.1c-0.1-0.2 0.1-0.5 0.1-0.6l-0.2-0.1v-0.1h-0.1v0.1h-0.1v0.3h-0.4l-1.6 5 1.9-1.4h-0.4v-0.3c0.2-0.1 0.4-0.1 0.6-0.2 0-0.1 0.1-0.2 0.1-0.3h-0.6c0-0.1-0.1-0.2-0.1-0.3 0.2-0.1 0.4-0.2 0.7-0.3-0.1-0.4-0.3-0.3-0.7-0.3v-0.3h1c0.1-0.3 0.1-0.4 0.5-0.4 0.1 0.2 0.1 0.3 0.1 0.6-0.1 0-0.2 0.1-0.3 0.1v0.2h0.3v0.4c-0.4 0-0.6 0-0.8 0.1v0.1c0.3 0 0.5 0 0.6 0.1l1.4-1 4.5 3.3-1.7-5.3 4.5-3.3h-5.5z" fill="#66FF66"/>
<path d="m114.5 102-1.7-5.3-1.7 5.3h-5 0.2v0.1h0.2v0.1c0.3 0.1 0.5 0.2 0.8 0.3v0.7l2.4 1.7c0.1 0 0.2-0.1 0.3-0.1v-0.1h0.6l0.1-0.1v-0.1h-1.5v-0.4c0.5-0.2 1.3-0.1 1.9-0.1v0.1c0.2 0 0.5 0.1 0.7 0.1v0.1c0.2 0.2 0.1 0.8 0.1 1.2l-0.4 0.2s0.2 0.5 0 0.8v0.1h-0.7v-0.3c0.3-0.1 0.2 0 0.3-0.3h-0.4c-0.1-0.2 0.1-0.5 0.1-0.6l-0.2-0.1v-0.1h-0.1v0.1h-0.1v0.3h-0.4l-1.6 5 1.9-1.4h-0.3v-0.3c0.2-0.1 0.4-0.1 0.6-0.2 0-0.1 0.1-0.2 0.1-0.3h-0.6c0-0.1-0.1-0.2-0.1-0.3 0.2-0.1 0.4-0.2 0.7-0.3-0.1-0.4-0.3-0.3-0.7-0.3v-0.3h1c0.1-0.3 0.1-0.4 0.5-0.4 0.1 0.2 0.1 0.3 0.1 0.6-0.1 0-0.2 0.1-0.3 0.1v0.2h0.3v0.4c-0.4 0-0.6 0-0.8 0.1v0.1c0.3 0 0.5 0 0.6 0.1l1.4-1 4.5 3.3-1.7-5.3 4.5-3.3h-5.6z" fill="#66FF66"/>
<path d="m116.3 42.7-1.7-5.3-1.7 5.3h-5 0.2v0.1h0.2v0.2c0.3 0.1 0.5 0.2 0.8 0.3v0.7l2.4 1.7c0.1 0 0.2-0.1 0.3-0.1v-0.1h0.6l0.1-0.1v-0.1h-1.5v-0.4c0.5-0.2 1.3-0.1 1.9-0.1v0.1c0.2 0 0.5 0.1 0.7 0.1v0.1c0.2 0.2 0.1 0.8 0.1 1.2l-0.4 0.2s0.2 0.5 0 0.8v0.1h-0.7v-0.3c0.3-0.1 0.2 0 0.3-0.3h-0.3v-0.1h-0.1c-0.1-0.2 0.1-0.5 0.1-0.6l-0.2-0.1v-0.1h-0.1v0.1h-0.1v0.3h-0.4l-1.6 5 1.9-1.4h-0.3v-0.3c0.2-0.1 0.4-0.1 0.6-0.2 0-0.1 0.1-0.2 0.1-0.3h-0.6c0-0.1-0.1-0.2-0.1-0.3 0.2-0.1 0.4-0.2 0.7-0.3-0.1-0.4-0.3-0.3-0.7-0.3v-0.3h1c0.1-0.3 0.1-0.4 0.5-0.4 0.1 0.2 0.1 0.3 0.1 0.6-0.1 0-0.2 0.1-0.3 0.1v0.2h0.3v0.4c-0.4 0-0.6 0-0.8 0.1v0.1c0.3 0 0.5 0 0.6 0.1l1.4-1 4.5 3.3-1.7-5.3 4.5-3.3h-5.6z" fill="#66FF66"/>
<path d="m38.8 43.5-1.7-5.3-1.7 5.3h-5 0.2v0.1h0.2v0.1c0.3 0.1 0.5 0.2 0.8 0.3v0.7l2.4 1.7c0.1 0 0.2-0.1 0.3-0.1v-0.1h0.6l0.1-0.1v-0.1h-1.5v-0.4c0.5-0.2 1.3-0.1 1.9-0.1v0.1c0.2 0 0.5 0.1 0.7 0.1v0.1c0.2 0.2 0.1 0.8 0.1 1.2l-0.4 0.2s0.2 0.5 0 0.8v0.1h-0.8v-0.3c0.3-0.1 0.2 0 0.3-0.3h-0.3v-0.1h-0.1c-0.1-0.2 0.1-0.5 0.1-0.6l-0.2-0.1v-0.1h-0.1v0.1h-0.1v0.3h-0.4l-1.6 5 1.9-1.4h-0.3v-0.3c0.2-0.1 0.4-0.1 0.6-0.2 0-0.1 0.1-0.2 0.1-0.3h-0.6c0-0.1-0.1-0.2-0.1-0.3 0.2-0.1 0.4-0.2 0.7-0.3-0.1-0.4-0.3-0.3-0.7-0.3v-0.3h1c0.1-0.3 0.1-0.4 0.5-0.4 0.1 0.2 0.1 0.3 0.1 0.6-0.1 0-0.2 0.1-0.3 0.1v0.2h0.3v0.4c-0.4 0-0.6 0-0.8 0.1v0.1c0.3 0 0.5 0 0.6 0.1l1.4-1 4.5 3.3-1.7-5.3 4.5-3.3h-5.5z" fill="#66FF66"/>
</svg>
