<?xml version="1.0" encoding="utf-8"?>
<!-- Generator: Adobe Illustrator 26.2.1, SVG Export Plug-In . SVG Version: 6.00 Build 0)  -->
<svg version="1.1" id="Layer_1" xmlns="http://www.w3.org/2000/svg" xmlns:xlink="http://www.w3.org/1999/xlink" x="0px" y="0px"
	 viewBox="0 0 24 24" style="enable-background:new 0 0 24 24;" xml:space="preserve">
<style type="text/css">
	.st0{fill-rule:evenodd;clip-rule:evenodd;fill:#040505;}
	.st1{fill-rule:evenodd;clip-rule:evenodd;fill:#BAEDFE;}
	.st2{fill-rule:evenodd;clip-rule:evenodd;fill:#9AE0FE;}
	.st3{fill-rule:evenodd;clip-rule:evenodd;fill:#FFFFFF;}
</style>
<g id="pinterest">
</g>
<g id="youtube">
</g>
<g id="whatsapp">
</g>
<g id="instagram">
</g>
<g id="tiktok">
</g>
<g id="rss">
</g>
<g id="facebook">
</g>
<g id="inbox">
</g>
<g>
	<g id="twitter">
		<g>
			<path class="st0" d="M3.1,8.7C3,8.7,2.9,8.6,2.8,8.6l0,0C2.5,8.6,2.3,8.5,2,8.6C1.6,8.7,1.4,8.9,1.3,9.3l0,0c0,0.2,0,0.3,0,0.5
				c0.1,0.3,0.2,0.5,0.3,0.8c0.3,0.5,0.6,1,1,1.4l0,0c0.4,0.5,0.9,0.9,1.4,1.3c0,0,0,0-0.1,0c-0.4,0.1-0.7,0.3-0.7,0.7l0,0
				c0,0.2,0,0.4,0.1,0.6l0,0c0.1,0.2,0.2,0.4,0.4,0.5l0,0c0.2,0.3,0.5,0.5,0.7,0.7c0.5,0.4,1,0.7,1.6,1l0,0c0.4,0.2,0.8,0.4,1.3,0.4
				l0.1,0c0,0,0,0-0.1,0c-0.4,0.3-0.8,0.5-1.2,0.6l0,0C5.5,18,5,18.2,4.4,18.3l0,0c-0.4,0.1-0.8,0.1-1.2,0.2c-0.4,0-0.9,0-1.3,0l0,0
				c-0.2,0-0.4,0-0.6,0c-0.2,0-0.3,0-0.5,0h0c-0.2,0-0.3,0-0.5,0.1l0,0C0.1,18.8,0,19.1,0,19.4c0,0.3,0.1,0.6,0.3,0.8
				c0.1,0.2,0.3,0.3,0.5,0.5l0,0c0.3,0.2,0.6,0.4,0.9,0.6c0.5,0.3,1,0.6,1.5,0.8c0.7,0.3,1.4,0.5,2.1,0.6c0.7,0.2,1.5,0.3,2.2,0.4
				c0.6,0.1,1.2,0.1,1.8,0.1c0.1,0,0.3,0,0.4,0l0,0c0.3,0,0.5,0,0.8-0.1l0,0c0.4,0,0.7-0.1,1.1-0.1c0.7-0.1,1.4-0.3,2.1-0.5
				c0.3-0.1,0.6-0.2,0.9-0.3l0,0c0.2-0.1,0.3-0.1,0.5-0.2c0.4-0.2,0.8-0.4,1.2-0.6l0,0c0.5-0.3,1-0.5,1.4-0.9l0,0
				c0.7-0.5,1.3-1,1.9-1.7c0.5-0.5,0.9-1,1.2-1.6l0,0c0.2-0.2,0.3-0.5,0.5-0.7c0.3-0.5,0.6-1.1,0.8-1.6l0,0c0.3-0.7,0.5-1.5,0.7-2.2
				c0.1-0.6,0.2-1.2,0.2-1.8c0-0.7,0-1.3-0.1-2l0,0c-0.1-0.6-0.2-1.1-0.3-1.7l0,0c-0.1-0.2-0.1-0.4-0.2-0.7c0.3-0.2,0.6-0.4,0.9-0.7
				l0,0c0.2-0.1,0.3-0.3,0.4-0.5C23.9,5.2,24,5.1,24,5c0-0.1,0-0.2-0.1-0.3c-0.1-0.1-0.1-0.1-0.2-0.1c-0.1,0-0.1,0-0.2,0l0,0
				c-0.2,0-0.4,0.1-0.6,0.1l0,0c-0.2,0-0.3,0-0.5,0.1c0.2-0.2,0.4-0.4,0.6-0.6l0,0c0.2-0.2,0.4-0.4,0.5-0.7l0,0
				c0.1-0.1,0.1-0.3,0.1-0.4l0,0c0-0.4-0.3-0.5-0.6-0.4l0,0c-0.1,0-0.1,0.1-0.2,0.1l0,0c-0.3,0.2-0.6,0.3-0.9,0.4l0,0
				c-0.2,0.1-0.5,0.2-0.7,0.2c0,0,0,0,0,0l0,0c-0.1-0.1-0.1-0.2-0.2-0.2c-0.3-0.4-0.6-0.7-1-1l0,0c-0.7-0.5-1.4-1-2.2-1.2
				c-0.4-0.1-0.8-0.2-1.2-0.1c-0.3,0-0.6,0.1-0.9,0.1c-0.8,0.2-1.5,0.6-2.1,1.1l0,0c-0.7,0.6-1.2,1.4-1.4,2.3
				c-0.1,0.5-0.2,0.9-0.2,1.4l0,0c0,0.5,0,1.1,0.2,1.6c0,0.1,0,0.1,0.1,0.2c0,0,0,0,0,0c-0.2,0-0.3,0-0.5,0c-0.4,0-0.9,0-1.3-0.1
				C9.8,7.4,9.3,7.2,8.8,7C8.3,6.8,7.9,6.6,7.4,6.4l0,0C6.9,6,6.4,5.7,5.9,5.3C5.7,5.1,5.5,4.9,5.2,4.8C4.8,4.5,4.4,4.2,4,3.8l0,0
				C3.8,3.6,3.5,3.4,3.2,3.3l0,0C3.1,3.2,2.9,3.1,2.8,3.1l0,0C2.5,3,2.3,3,2.1,3.1C1.9,3.2,1.8,3.4,1.7,3.6l0,0c0,0,0,0,0,0l0,0
				C1.6,3.8,1.6,4,1.6,4.3l0,0c0,0.4,0,0.7,0.1,1.1C1.8,6,2,6.5,2.2,7.1C2.5,7.7,2.8,8.2,3.1,8.7L3.1,8.7z M23.1,3.1
				c-0.2,0.1-0.4,0.2-0.7,0.3c-0.2,0.1-0.5,0.2-0.7,0.3l0,0c-0.2,0-0.3,0.1-0.5,0.1c-0.1,0-0.2,0-0.2,0c0,0-0.1-0.1-0.1-0.1
				c-0.1-0.2-0.2-0.3-0.3-0.4l0,0C20.3,3,20,2.7,19.7,2.5c-0.6-0.5-1.2-0.9-2-1.1c-0.3-0.1-0.5-0.1-0.8-0.1c-0.4,0-0.9,0-1.3,0.2
				c-0.6,0.1-1.1,0.4-1.5,0.8c-0.7,0.6-1.2,1.3-1.5,2.2c-0.1,0.3-0.2,0.7-0.2,1c0,0.3,0,0.7,0,1c0,0.3,0.1,0.7,0.2,1l0,0
				c0,0.1,0,0.2,0,0.2l0,0c-0.1,0.1-0.2,0.2-0.3,0.2c-0.3,0.1-0.7,0.1-1,0.1c-0.6,0-1.2-0.1-1.8-0.3C8.8,7.6,8.1,7.3,7.5,7
				C6.7,6.6,6,6.1,5.4,5.6l0,0C5.3,5.5,5.2,5.4,5.1,5.3l0,0C4.6,5,4,4.6,3.5,4.1C3.3,3.9,3.1,3.8,2.9,3.7l0,0
				c-0.1,0-0.2-0.1-0.3-0.1l0,0c-0.1,0-0.2,0-0.3,0c-0.1,0-0.1,0.1-0.2,0.2l0,0c0,0,0,0.1,0,0.1c0,0.1,0,0.2-0.1,0.3
				c0,0.3,0,0.7,0.1,1l0,0c0.1,0.6,0.3,1.2,0.6,1.7l0,0c0.3,0.6,0.7,1.2,1,1.8l0,0C3.8,8.8,3.9,8.8,4,8.9C4,8.9,4,9,4,9
				C4.5,9.2,5,9.4,5.4,9.7c0,0,0.1,0.1,0.1,0.1l0,0c0.1,0.1,0.1,0.2,0,0.3l0,0c-0.1,0.1-0.2,0.1-0.3,0.1l0,0c-0.1,0-0.1,0-0.2-0.1
				l0,0C5,10,4.8,9.9,4.6,9.8l0,0C4.3,9.7,4,9.5,3.7,9.4l0,0C3.3,9.3,3,9.2,2.6,9.1l0,0c-0.2,0-0.4,0-0.5,0c-0.1,0-0.2,0.1-0.2,0.2
				l0,0c0,0.1,0,0.2,0,0.3l0,0c0.1,0.2,0.2,0.5,0.3,0.7c0.3,0.4,0.6,0.9,0.9,1.2h0c0.4,0.5,0.9,0.9,1.4,1.3C4.6,13,4.8,13.1,5,13.2
				l0,0c0,0,0.1,0,0.1,0c0.3,0,0.6,0.1,0.8,0.1c0.2,0.1,0.4,0.1,0.6,0.1c0.1,0,0.1,0,0.2,0.1c0.1,0.1,0.1,0.2,0.1,0.3
				c0,0.1-0.2,0.2-0.3,0.1c0,0-0.1,0-0.1,0c-0.3-0.1-0.6-0.2-0.9-0.2c-0.3,0-0.6-0.1-0.8-0.1l0,0c-0.2,0-0.3,0-0.5,0l0,0
				c-0.1,0-0.1,0-0.2,0.1c0,0.1-0.1,0.1-0.1,0.2c0,0.1,0,0.3,0.1,0.4l0,0C4,14.6,4.2,14.8,4.3,15c0.4,0.4,0.8,0.7,1.3,1
				c0.5,0.3,1.1,0.6,1.7,0.7c0.2,0,0.4,0.1,0.6,0.1l0,0c0.1,0,0.2,0.1,0.3,0.2l0,0c0,0.1,0,0.2-0.1,0.3c-0.4,0.4-0.8,0.6-1.3,0.9
				c-0.5,0.2-1.1,0.4-1.6,0.5l0,0C4.3,18.9,3.4,19,2.4,19c-0.4,0-0.8,0-1.3,0l0,0C1,19,0.9,19,0.7,19l0,0c-0.1,0-0.2,0.1-0.2,0.2
				l0,0c0,0.1,0,0.2,0,0.4l0,0c0.1,0.1,0.1,0.2,0.2,0.3C0.9,20,1,20.2,1.2,20.3l0,0c0.3,0.2,0.6,0.4,0.9,0.6l0,0
				c0.5,0.3,1,0.6,1.6,0.8c0.8,0.3,1.6,0.5,2.5,0.7c0.5,0.1,1.1,0.2,1.7,0.2c0.6,0.1,1.1,0.1,1.7,0.1c0.4,0,0.9-0.1,1.3-0.1l0,0
				c0.3,0,0.6-0.1,0.9-0.1c0.5-0.1,1.1-0.2,1.6-0.4c0.6-0.2,1.2-0.3,1.8-0.6l0,0c0.6-0.3,1.3-0.6,1.9-1c0.3-0.2,0.5-0.3,0.8-0.5
				c0.4-0.3,0.7-0.6,1.1-0.9c0.4-0.3,0.7-0.7,1-1.1l0,0c0.4-0.5,0.7-1,1.1-1.5c0.4-0.6,0.6-1.2,0.9-1.8c0.4-1,0.7-2,0.8-3.1l0,0
				c0-0.3,0.1-0.6,0.1-0.9c0-0.7-0.1-1.4-0.2-2l0,0c-0.1-0.6-0.2-1.3-0.4-1.9l0,0c0,0,0-0.1,0-0.1c0,0,0,0,0,0c0-0.1,0-0.2,0-0.2
				c0-0.1,0.1-0.1,0.2-0.1l0,0c0,0,0.1,0,0.1-0.1c0.2-0.2,0.4-0.3,0.7-0.5c0.2-0.1,0.3-0.3,0.4-0.4l0,0c-0.3,0.1-0.6,0.1-1,0.2
				c-0.3,0-0.6,0-0.9,0c-0.1,0-0.1,0-0.2,0c-0.1,0-0.1-0.1-0.1-0.1c0-0.1,0-0.1,0-0.2c0-0.1,0.1-0.1,0.1-0.1l0,0c0,0,0,0,0.1,0
				c0.6-0.3,1-0.7,1.4-1.2C23,3.4,23,3.3,23.1,3.1L23.1,3.1z"/>
			<path class="st1" d="M0.3,19.2c0-0.2,0.1-0.3,0.2-0.3c0.2,0,0.3-0.1,0.5-0.1c0.4,0,0.9-0.1,1.4-0.1c0.9,0,1.8-0.1,2.7-0.3
				c0.6-0.1,1.1-0.2,1.6-0.5c0.5-0.2,0.8-0.4,1.2-0.7C8,17.2,8,17.1,8,17c0-0.1-0.1-0.1-0.2-0.1c-0.2,0-0.4-0.1-0.6-0.1
				c-0.6-0.1-1.1-0.4-1.6-0.7c-0.5-0.3-1-0.6-1.4-1c-0.2-0.2-0.3-0.4-0.5-0.6c-0.1-0.1-0.2-0.3-0.2-0.5c0-0.2,0.2-0.5,0.4-0.5
				c0.2,0,0.4,0,0.6,0c0.3,0,0.3-0.1,0.3-0.2c-0.2-0.1-0.3-0.3-0.4-0.5c-0.5-0.4-1-0.8-1.4-1.3c-0.3-0.4-0.7-0.9-1-1.3
				c-0.1-0.2-0.2-0.4-0.3-0.7c0-0.1,0-0.2,0-0.3C1.7,9.1,1.7,9,1.9,9c0.2-0.1,0.5-0.1,0.7-0.1C3,8.9,3.4,9.1,3.8,9.2
				c0.3,0.1,0.6,0.1,0.1-0.1C3.8,9.1,3.8,9.1,3.7,9C3.7,8.9,3.6,8.9,3.5,8.8c-0.4-0.6-0.7-1.1-1-1.7C2.3,6.5,2.1,5.9,2,5.3
				C1.9,5,1.9,4.4,1.9,4.1c0-0.1,0-0.2,0.1-0.3c0,0,0-0.1,0-0.1c0.1-0.2,0.3-0.3,0.6-0.3c0.1,0,0.2,0.1,0.3,0.1
				c0.2,0.1,0.5,0.3,0.7,0.4C4,4.3,4.7,4.8,5.2,5.2c0.1,0.1,0.2,0.2,0.3,0.2c0.6,0.5,1.3,0.9,2.1,1.3c0.7,0.4,1.2,0.6,2,0.8
				c0.6,0.2,1.2,0.3,1.8,0.2c0.3,0,0.5,0.1,0.9,0c0.1,0,0.2-0.1,0.2-0.1c0,0,0-0.1,0-0.1c-0.1-0.3-0.2-0.7-0.2-1c0-0.4,0-0.7,0-1.1
				c0-0.4,0.1-0.7,0.2-1c0.3-0.9,0.8-1.6,1.5-2.2c0.5-0.4,1.2-0.8,1.8-0.9C16.1,1.1,16.5,1,17,1.1c0.3,0,0.6,0.1,0.8,0.1
				c0.8,0.2,1.4,0.6,2,1.1c0.3,0.2,0.6,0.5,0.8,0.8c0.1,0.1,0.1,0.3,0.2,0.4c0.1,0.1,0.1,0.1,0.2,0.1c0.2,0,0.3-0.1,0.5-0.1
				c0.3-0.1,0.5-0.2,0.7-0.3c0.2-0.1,0.6-0.3,0.9-0.4c0,0,0.1-0.1,0.1,0c0,0,0,0.1,0,0.1c0,0.1-0.1,0.3-0.2,0.4
				c-0.4,0.5-0.9,1-1.5,1.3c0,0,0,0-0.1,0c0,0-0.1,0.1-0.1,0.1c0,0.1,0,0.2,0.1,0.2c0,0,0.1,0,0.1,0c0.3,0,0.6,0,0.8,0
				c0.3,0,0.7-0.1,1-0.2c0,0,0.1,0,0.1,0c0,0.1,0,0.1-0.1,0.2c-0.1,0.2-0.3,0.3-0.4,0.5c-0.1,0.1-0.9,0.8-0.9,0.9
				c0,0.8,0.1,2.8,0.1,2.9c0,0.2,0,0.3-0.1,0.5c0,0.3-0.1,0.5-0.1,0.8c-0.1,0.4-0.2,0.8-0.3,1.2c-0.1,0.2-0.1,0.4-0.2,0.6
				c-0.1,0.3-0.2,0.7-0.3,1c-0.1,0.3-0.2,0.6-0.4,0.8c-0.1,0.3-0.2,0.5-0.4,0.8c-0.1,0.2-0.2,0.4-0.4,0.6c-0.2,0.4-0.5,0.7-0.8,1
				c-0.2,0.2-0.4,0.5-0.6,0.7c-0.1,0.1-0.1,0.6-0.2,0.8c-0.2,0.2-0.9,0.5-1.1,0.7c-0.2,0.2-0.4,0.3-0.6,0.5
				c-0.3,0.2-0.6,0.4-0.9,0.6c-0.1,0.1-0.2,0.1-0.3,0.2c-0.4,0.2-0.8,0.4-1.3,0.6c-0.5,0.2-0.9,0.4-1.4,0.5c-0.3,0.1-0.7,0.2-1,0.3
				c-0.3,0.1-0.5,0.1-0.8,0.2c-0.2,0-0.5,0.1-0.7,0.1c-0.2,0-0.8,0-1,0c-0.2,0-0.4,0-0.6,0c-0.2,0-0.4,0-0.7,0c-0.2,0-0.4,0-0.7,0
				c-0.2,0-0.4,0-0.5,0c-0.1,0-0.2,0-0.2,0c-0.2,0-0.3,0-0.5-0.1c-0.1,0-0.3,0-0.4,0c-0.2,0-0.4-0.1-0.6-0.1
				c-0.4-0.1-0.9-0.2-1.3-0.3c-0.3-0.1-0.7-0.2-1-0.3c-0.1-0.1-0.3-0.1-0.4-0.2c-0.4-0.2-0.8-0.6-1.2-0.9c-0.2-0.1-0.5-0.4-0.7-0.6
				C0.5,19.5,0.4,19.3,0.3,19.2"/>
			<path class="st2" d="M0.4,19.2c0.1,0.2,0.2,0.3,0.4,0.4c0.2,0.2,0.4,0.3,0.5,0.4c0.4,0.3,0.8,0.5,1.2,0.7C2.7,20.9,2.8,20.9,3,21
				c0.3,0.1,0.7,0.2,1,0.3c0.4,0.1,0.8,0.2,1.3,0.3c0.2,0,0.4,0.1,0.6,0.1c0.1,0,0.3,0,0.4,0c0.2,0,0.3,0,0.5,0.1c0.1,0,0.2,0,0.2,0
				c0.2,0,0.4,0,0.5,0c0.2,0,0.4,0,0.7,0c0.2,0,0.4,0,0.7,0c0.2,0,0.4,0,0.6,0c0.2,0,0.5-0.1,0.7-0.1c0.2,0,0.5-0.1,0.7-0.1
				c0.3,0,0.5-0.1,0.8-0.2c0.3-0.1,0.7-0.2,1-0.3c0.5-0.1,0.9-0.3,1.4-0.5c0.4-0.2,0.9-0.4,1.3-0.6c0.1-0.1,0.2-0.1,0.3-0.2
				c0.3-0.2,0.6-0.4,0.9-0.6c0.2-0.2,0.4-0.3,0.6-0.5c0.3-0.2,0.5-0.5,0.8-0.7c0.1-0.1,0.3-0.3,0.4-0.4c0.2-0.2,0.4-0.5,0.6-0.7
				c0.3-0.3,0.5-0.7,0.8-1c0.1-0.2,0.3-0.4,0.4-0.6c0.1-0.2,0.3-0.5,0.4-0.8c0.1-0.3,0.2-0.6,0.4-0.8c0.1-0.3,0.2-0.7,0.3-1
				c0.1-0.2,0.2-0.4,0.2-0.6c0.1-0.4,0.2-0.8,0.3-1.2c0.1-0.3,0.1-0.5,0.1-0.8c0-0.2,0.1-0.3,0.1-0.5c0-0.2,0-0.3,0.1-0.5
				c0-0.1,0-0.2,0-0.3c0-0.5,0-1,0-1.5c0-0.2,0-0.3,0-0.5c0,0,0-0.1,0-0.1c0,0,0,0,0-0.1c0,0,0,0.1,0,0.1c0.2,0.6,0.3,1.3,0.4,1.9
				c0.1,0.7,0.2,1.4,0.2,2.1c0,0.3,0,0.6-0.1,0.9c-0.1,1.1-0.4,2.1-0.8,3.2c-0.3,0.6-0.5,1.3-0.9,1.9c-0.3,0.5-0.7,1-1.1,1.5
				c-0.3,0.4-0.7,0.8-1,1.1c-0.3,0.3-0.7,0.6-1.1,0.9c-0.3,0.2-0.5,0.4-0.8,0.5c-0.6,0.4-1.2,0.7-1.9,1c-0.6,0.3-1.2,0.4-1.8,0.6
				c-0.5,0.1-1.1,0.3-1.6,0.4c-0.3,0.1-0.6,0.1-0.9,0.1c-0.4,0-0.9,0.1-1.3,0.1c-0.6,0-1.1,0-1.7-0.1c-0.6-0.1-1.1-0.1-1.7-0.2
				c-0.8-0.2-1.7-0.4-2.5-0.7C3,21.6,2.5,21.3,2,21c-0.3-0.2-0.6-0.4-0.9-0.6c-0.2-0.1-0.3-0.2-0.4-0.4c-0.1-0.1-0.2-0.2-0.2-0.3
				C0.4,19.5,0.4,19.4,0.4,19.2"/>
			<path class="st3" d="M6,7.1c-0.3,0-0.6-0.1-0.9-0.3C4.9,6.7,4.7,6.4,4.6,6.1c0-0.1,0-0.1,0-0.2c0-0.2,0.2-0.2,0.4-0.1
				C5.1,5.8,5.2,5.9,5.2,6c0.2,0.2,0.4,0.3,0.6,0.5C5.9,6.5,6,6.6,6.2,6.7c0,0,0.1,0,0.1,0c0.1,0,0.1,0.1,0.1,0.2
				c0,0.1,0,0.1-0.1,0.2C6.2,7.1,6.1,7.1,6,7.1"/>
			<path class="st3" d="M6.8,7.4c0.1,0,0.1,0,0.2,0c0.1,0,0.1,0.2,0,0.2C6.9,7.7,6.8,7.8,6.7,7.7c-0.1,0-0.1-0.1-0.1-0.2
				C6.6,7.5,6.7,7.4,6.8,7.4C6.8,7.4,6.8,7.4,6.8,7.4"/>
			<path class="st0" d="M0.4,19.2c0,0.1,0,0.3,0.1,0.4c0.1,0.1,0.1,0.2,0.2,0.3c0.1,0.1,0.3,0.3,0.4,0.4C1.4,20.6,1.7,20.8,2,21
				c0.5,0.3,1,0.6,1.6,0.8c0.8,0.3,1.6,0.5,2.5,0.7c0.5,0.1,1.1,0.2,1.7,0.2c0.6,0.1,1.1,0.1,1.7,0.1c0.4,0,0.9-0.1,1.3-0.1
				c0.3,0,0.6-0.1,0.9-0.1c0.5-0.1,1.1-0.2,1.6-0.4c0.6-0.2,1.2-0.4,1.8-0.6c0.6-0.3,1.3-0.6,1.9-1c0.3-0.2,0.5-0.3,0.8-0.5
				c0.4-0.3,0.8-0.6,1.1-0.9c0.4-0.4,0.7-0.7,1-1.1c0.4-0.5,0.7-1,1.1-1.5c0.4-0.6,0.7-1.2,0.9-1.9c0.4-1,0.7-2.1,0.8-3.2
				c0-0.3,0.1-0.6,0.1-0.9c0-0.7-0.1-1.4-0.2-2.1c-0.1-0.6-0.2-1.3-0.4-1.9c0,0,0-0.1,0-0.1c0-0.2,0-0.2,0.2-0.3
				c0.1,0,0.1-0.1,0.2-0.1c0.2-0.2,0.4-0.3,0.7-0.5c0.2-0.1,0.3-0.3,0.4-0.5c0-0.1,0.1-0.1,0.1-0.2c0,0-0.1,0-0.1,0
				c-0.3,0.1-0.7,0.1-1,0.2c-0.3,0-0.6,0-0.8,0c-0.1,0-0.1,0-0.1,0c-0.1,0-0.1-0.1-0.1-0.2c0,0,0.1-0.1,0.1-0.1c0,0,0,0,0.1,0
				C22.1,4.5,22.6,4,23,3.5c0.1-0.1,0.2-0.2,0.2-0.4c0,0,0-0.1,0-0.1c0,0-0.1,0-0.1,0c-0.2,0.1-0.5,0.2-0.7,0.4
				c-0.2,0.1-0.5,0.2-0.7,0.3c-0.2,0-0.3,0.1-0.5,0.1c-0.1,0-0.2,0-0.2-0.1c-0.1-0.2-0.2-0.3-0.3-0.4c-0.2-0.3-0.5-0.6-0.8-0.8
				c-0.6-0.5-1.3-0.9-2-1.1c-0.3-0.1-0.5-0.1-0.8-0.1c-0.4,0-0.9,0-1.3,0.2c-0.6,0.2-1.1,0.4-1.6,0.8c-0.7,0.6-1.2,1.3-1.5,2.2
				c-0.1,0.3-0.2,0.7-0.2,1.1c0,0.4,0,0.7,0,1.1c0,0.4,0.1,0.7,0.2,1c0,0.1,0,0.1,0,0.1c0,0.1-0.1,0.1-0.2,0.1C12,7.9,11.7,8,11.4,8
				c-0.6,0-1.2-0.1-1.8-0.2c-0.7-0.2-1.4-0.5-2-0.8C6.8,6.5,6.1,6,5.5,5.5C5.4,5.4,5.3,5.3,5.2,5.3C4.6,4.9,4.1,4.5,3.6,4
				C3.4,3.8,3.2,3.7,2.9,3.6c-0.1,0-0.2-0.1-0.3-0.1c-0.3-0.1-0.4,0-0.6,0.3c0,0,0,0.1,0,0.1C2,4,2,4.1,2,4.2c0,0.3,0,0.7,0.1,1
				C2.2,5.8,2.4,6.4,2.6,7c0.3,0.6,0.7,1.2,1.1,1.8C3.7,8.8,3.8,8.9,3.9,9c0,0,0.1,0.1,0.1,0.1c0.5,0.2,0.9,0.4,1.3,0.7
				c0,0,0.1,0,0.1,0.1c0,0.1,0,0.1,0,0.2c0,0.1-0.1,0.1-0.2,0.1c0,0-0.1,0-0.1,0C5,9.9,4.8,9.8,4.7,9.7C4.4,9.6,4.1,9.4,3.8,9.3
				C3.4,9.2,3,9.1,2.6,9C2.4,9,2.2,9,2,9c-0.1,0-0.2,0.1-0.3,0.3c0,0.1,0,0.2,0,0.3c0.1,0.2,0.2,0.5,0.3,0.7
				c0.3,0.4,0.6,0.9,0.9,1.2c0.4,0.5,0.9,0.9,1.4,1.3c0.2,0.2,0.4,0.3,0.6,0.4c0,0,0.1,0,0.1,0c0.3,0,0.6,0.1,0.8,0.1
				c0.2,0.1,0.4,0.1,0.6,0.1c0,0,0.1,0,0.1,0.1c0.1,0,0.1,0.1,0.1,0.2c0,0.1-0.1,0.1-0.2,0.1c0,0-0.1,0-0.1,0
				c-0.3-0.1-0.6-0.2-0.9-0.2c-0.3,0-0.6-0.1-0.9-0.1c-0.2,0-0.4,0-0.5,0c-0.2,0-0.3,0.2-0.3,0.4c0,0.2,0,0.3,0.1,0.5
				C4,14.7,4.1,14.9,4.3,15c0.4,0.4,0.8,0.7,1.3,1c0.5,0.3,1.1,0.6,1.7,0.7c0.2,0,0.4,0.1,0.6,0.1c0.1,0,0.2,0,0.2,0.1
				c0,0.1,0,0.1-0.1,0.2c-0.4,0.4-0.8,0.6-1.3,0.9c-0.5,0.2-1.1,0.4-1.6,0.5c-0.9,0.2-1.8,0.3-2.7,0.3c-0.4,0-0.8,0-1.2,0
				c-0.2,0-0.3,0-0.5,0.1C0.5,19,0.4,19.1,0.4,19.2 M7.6,17.1c-0.1,0-0.2,0-0.3,0c-0.4-0.1-0.8-0.2-1.2-0.4
				c-0.5-0.3-1.1-0.6-1.5-0.9C4.3,15.5,4,15.3,3.8,15c-0.1-0.2-0.3-0.3-0.3-0.5c-0.1-0.2-0.1-0.4-0.1-0.6c0-0.3,0.3-0.6,0.6-0.6
				c0.1,0,0.2,0,0.2,0c0,0,0.1,0,0.1,0c0,0,0,0,0,0c-0.5-0.4-1.1-0.9-1.5-1.4c-0.4-0.4-0.7-0.9-1-1.4C1.6,10.2,1.5,10,1.4,9.7
				c0-0.1,0-0.3,0-0.4C1.5,9,1.7,8.8,2,8.7c0.3-0.1,0.5,0,0.8,0c0.2,0,0.3,0.1,0.5,0.1c0,0,0,0,0.1,0c0,0,0-0.1,0-0.1
				c-0.4-0.5-0.7-1.1-1-1.7C2.1,6.5,1.9,5.9,1.8,5.3C1.7,5,1.7,4.6,1.7,4.3c0-0.2,0-0.4,0.1-0.6c0,0,0,0,0,0C2,3.2,2.3,3.1,2.7,3.2
				c0.1,0,0.3,0.1,0.4,0.2C3.4,3.5,3.7,3.7,4,3.9c0.4,0.3,0.8,0.7,1.2,0.9C5.4,5,5.6,5.2,5.8,5.4c0.5,0.4,1,0.7,1.6,1.1
				c0.4,0.3,0.9,0.5,1.4,0.7c0.5,0.2,1.1,0.4,1.6,0.5c0.4,0.1,0.9,0.1,1.3,0.1c0.2,0,0.3,0,0.5,0c0,0,0.1,0,0.1,0
				c0-0.1-0.1-0.2-0.1-0.3C12,6.7,12,6.2,12,5.7c0-0.5,0.1-0.9,0.2-1.4c0.3-0.9,0.7-1.6,1.4-2.2c0.6-0.5,1.3-0.9,2.1-1.1
				c0.3-0.1,0.6-0.1,0.9-0.1c0.4,0,0.8,0,1.2,0.1c0.8,0.2,1.5,0.6,2.2,1.1c0.4,0.3,0.7,0.6,1,1C21,3.3,21,3.3,21.1,3.4
				c0,0.1,0.1,0.1,0.1,0.1c0.3-0.1,0.5-0.1,0.7-0.2c0.3-0.1,0.6-0.3,0.9-0.5c0.1,0,0.1-0.1,0.2-0.1c0.2-0.1,0.5,0.1,0.4,0.3
				c0,0.1,0,0.3-0.1,0.4c-0.1,0.2-0.3,0.4-0.5,0.6c-0.2,0.3-0.5,0.5-0.8,0.7c0,0,0,0-0.1,0c0,0,0,0,0,0c0.3,0,0.5,0,0.8-0.1
				c0.2,0,0.4-0.1,0.6-0.1c0.1,0,0.1,0,0.2,0c0.2,0,0.2,0.1,0.2,0.3c0,0.1,0,0.2-0.1,0.4c-0.1,0.2-0.3,0.3-0.4,0.5
				c-0.3,0.2-0.6,0.5-0.9,0.7c0,0,0,0,0,0.1c0.1,0.2,0.1,0.4,0.2,0.7c0.1,0.5,0.2,1.1,0.3,1.6c0.1,0.6,0.1,1.3,0.1,2
				c0,0.6-0.1,1.2-0.2,1.8c-0.2,0.8-0.4,1.5-0.7,2.2c-0.2,0.6-0.5,1.1-0.8,1.6c-0.1,0.2-0.3,0.5-0.5,0.7c-0.4,0.6-0.8,1.1-1.2,1.6
				c-0.6,0.6-1.2,1.2-1.8,1.6c-0.4,0.3-0.9,0.6-1.4,0.8c-0.4,0.2-0.8,0.4-1.2,0.6C15,21.9,14.8,22,14.7,22c-0.3,0.1-0.6,0.2-0.9,0.3
				c-0.7,0.2-1.4,0.4-2.1,0.5C11.3,23,11,23,10.6,23c-0.3,0-0.5,0-0.8,0.1c-0.1,0-0.3,0-0.4,0c-0.6,0-1.2,0-1.8-0.1
				c-0.7-0.1-1.5-0.2-2.2-0.4C4.7,22.5,4,22.3,3.3,22c-0.5-0.2-1-0.5-1.5-0.8c-0.3-0.2-0.6-0.4-0.9-0.6c-0.2-0.1-0.3-0.3-0.5-0.5
				c-0.2-0.2-0.3-0.5-0.3-0.8c0-0.3,0.1-0.5,0.3-0.7c0.1-0.1,0.3-0.1,0.4-0.1c0.2,0,0.3,0,0.5,0c0.2,0,0.4,0,0.6,0
				c0.4,0,0.9,0,1.3,0c0.4,0,0.8-0.1,1.2-0.2C5,18.3,5.6,18.1,6.1,18c0.4-0.2,0.9-0.4,1.3-0.6C7.4,17.3,7.5,17.2,7.6,17.1"/>
		</g>
	</g>
	<g id="discord">
	</g>
</g>
</svg>
