<?xml version="1.0" encoding="utf-8"?>
<!-- Generator: Adobe Illustrator 26.2.1, SVG Export Plug-In . SVG Version: 6.00 Build 0)  -->
<svg version="1.1" id="Layer_1" xmlns="http://www.w3.org/2000/svg" xmlns:xlink="http://www.w3.org/1999/xlink" x="0px" y="0px"
	 viewBox="0 0 24 24" style="enable-background:new 0 0 24 24;" xml:space="preserve">
<style type="text/css">
	.st0{fill-rule:evenodd;clip-rule:evenodd;fill:#9AE1FF;}
	.st1{fill-rule:evenodd;clip-rule:evenodd;fill:#FFFFFF;}
	.st2{fill:none;stroke:#078CD6;stroke-linecap:round;stroke-linejoin:round;}
</style>
<g id="pinterest">
</g>
<g id="youtube">
</g>
<g id="whatsapp">
</g>
<g id="instagram">
</g>
<g id="tiktok">
</g>
<g id="rss">
</g>
<g id="twitter">
</g>
<g id="inbox">
</g>
<g id="discord">
</g>
<g>
	<path class="st0" d="M12,0c0.2,0,0.4,0,0.6,0c0.2,0,0.3,0,0.5,0c0.1,0,0.2,0,0.3,0c0.2,0,0.4,0,0.6,0.1c0.1,0,0.3,0,0.4,0.1
		c0.2,0,0.4,0.1,0.6,0.1c0.5,0.1,1.1,0.3,1.6,0.5C17,0.9,17.3,1,17.6,1.2c0.3,0.1,0.6,0.3,0.9,0.5c0.2,0.1,0.4,0.3,0.6,0.5
		c0.2,0.2,0.5,0.4,0.7,0.6c0.3,0.2,0.5,0.5,0.7,0.7c0.1,0.1,0.2,0.2,0.3,0.3c0.3,0.3,0.6,0.7,0.9,1c0.4,0.5,0.7,1,1,1.6
		c0.2,0.5,0.4,1,0.6,1.5c0.2,0.5,0.3,0.9,0.4,1.4c0.1,0.3,0.1,0.6,0.2,1c0,0.2,0,0.5,0.1,0.7c0.1,0.5,0.1,1,0.1,1.4
		c0,0.2,0,0.5-0.1,0.7c0,0.2-0.1,0.5-0.1,0.7c0,0.3-0.1,0.6-0.2,0.9c-0.1,0.3-0.2,0.7-0.3,1c-0.1,0.2-0.2,0.5-0.3,0.7
		c-0.2,0.4-0.4,0.9-0.6,1.3c-0.2,0.4-0.5,0.9-0.8,1.2c-0.2,0.3-0.4,0.6-0.7,0.8c-0.2,0.2-0.4,0.5-0.7,0.7c-0.2,0.2-0.5,0.4-0.8,0.6
		c-0.4,0.3-0.7,0.6-1.1,0.8c-0.2,0.1-0.4,0.3-0.6,0.4c-0.3,0.2-0.6,0.3-1,0.5c-0.4,0.2-0.9,0.3-1.3,0.5c-0.5,0.1-1,0.3-1.5,0.4
		c-0.3,0.1-0.6,0.1-1,0.2c-0.2,0-0.4,0-0.6,0.1c-0.2,0-0.4,0-0.6,0c-0.3,0-0.6,0-0.9,0c-0.2,0-0.5,0-0.7-0.1c-0.2,0-0.5-0.1-0.7-0.1
		c-0.2,0-0.5-0.1-0.7-0.2c-0.5-0.1-1-0.3-1.5-0.5C7.1,23,6.8,23,6.6,22.9c-0.3-0.1-0.6-0.3-0.9-0.5C5.4,22.2,5.2,22,5,21.9
		c-0.2-0.2-0.4-0.3-0.5-0.5c-0.2-0.2-0.4-0.4-0.6-0.6c-0.2-0.2-0.4-0.4-0.6-0.6c-0.2-0.3-0.5-0.6-0.7-0.8c-0.2-0.2-0.3-0.5-0.5-0.8
		c-0.3-0.4-0.5-0.8-0.7-1.2c-0.1-0.3-0.3-0.6-0.4-0.9C1,16.2,0.9,16,0.8,15.7c-0.1-0.2-0.1-0.4-0.2-0.6c-0.1-0.2-0.1-0.5-0.2-0.7
		c0-0.1-0.1-0.2-0.1-0.3c-0.1-0.2-0.1-0.5-0.1-0.7c0-0.2,0-0.4-0.1-0.6c0-0.1,0-0.2,0-0.3c0-0.3,0-0.6,0-0.9c0-0.3,0-0.6,0-0.9
		c0-0.2,0-0.3,0-0.5c0-0.2,0.1-0.5,0.1-0.7c0.1-0.4,0.1-0.7,0.2-1.1C0.5,8,0.6,7.7,0.7,7.4C0.9,7,1,6.6,1.2,6.2
		c0.2-0.4,0.4-0.7,0.6-1.1c0.3-0.4,0.6-0.8,0.9-1.2c0.2-0.2,0.3-0.4,0.5-0.6C3.4,3.2,3.4,3.1,3.5,3C3.8,2.8,4,2.6,4.3,2.4
		C4.6,2.2,4.9,2,5.2,1.8c0.3-0.2,0.6-0.3,1-0.5c0.3-0.1,0.7-0.3,1-0.4c0.2-0.1,0.5-0.2,0.7-0.2c0.3-0.1,0.6-0.2,1-0.3
		c0.3-0.1,0.5-0.1,0.8-0.2c0.1,0,0.3-0.1,0.4-0.1c0.2,0,0.4-0.1,0.6-0.1c0.2,0,0.5,0,0.7-0.1C11.6,0,11.8,0,12,0"/>
	<path class="st1" d="M4.7,3.4c0-0.1,0.1-0.2,0.1-0.3C5,2.6,5.3,2.3,5.7,2.1C5.8,2,6,2,6.1,2c0.1,0,0.2,0,0.3,0
		c0.2,0.1,0.3,0.3,0.2,0.5C6.5,2.6,6.3,2.7,6.2,2.8C5.9,2.9,5.7,3.1,5.4,3.2C5.3,3.3,5.2,3.4,5.1,3.5c0,0,0,0,0,0
		c-0.1,0.1-0.1,0.1-0.2,0C4.7,3.5,4.7,3.4,4.7,3.4"/>
	<path class="st1" d="M7.1,1.8c0-0.2,0.2-0.4,0.4-0.4c0.2,0,0.3,0.1,0.3,0.4c0,0.2-0.2,0.4-0.4,0.4C7.3,2.1,7.1,1.9,7.1,1.8"/>
	<path class="st2" d="M20.5,15.1C18.8,20,13.7,22.6,9,20.8c-2.5-1-4.5-3.1-5.4-5.8"/>
	<path class="st2" d="M3.6,8.6c1.7-4.9,6.8-7.5,11.5-5.7c2.5,1,4.5,3.1,5.4,5.8"/>
	<path class="st2" d="M15.9,15.2c-0.6,3.6-2.1,6.2-3.9,6.2s-3.3-2.6-3.9-6.3"/>
	<path class="st2" d="M8.1,8.7C8.7,5,10.2,2.4,12,2.4s3.3,2.6,3.9,6.3"/>
	<path class="st2" d="M2.3,8.7h19.5c0.4,0,0.8,0.4,0.8,0.8v4.7c0,0.4-0.3,0.8-0.8,0.8H2.3c-0.4,0-0.8-0.4-0.8-0.8V9.5
		C1.5,9.1,1.9,8.7,2.3,8.7z"/>
	<polyline class="st2" points="10.2,10.9 11.1,13.1 12,11.4 13,13.1 13.9,10.9 	"/>
	<polyline class="st2" points="4.9,10.9 5.9,13.1 6.8,11.4 7.7,13.1 8.6,10.9 	"/>
	<polyline class="st2" points="15.5,10.9 16.4,13.1 17.3,11.4 18.2,13.1 19.2,10.9 	"/>
</g>
</svg>
