<?xml version="1.0" encoding="utf-8"?>
<!-- Generator: Adobe Illustrator 26.2.1, SVG Export Plug-In . SVG Version: 6.00 Build 0)  -->
<svg version="1.1" id="Layer_1" xmlns="http://www.w3.org/2000/svg" xmlns:xlink="http://www.w3.org/1999/xlink" x="0px" y="0px"
	 viewBox="0 0 250 80" style="enable-background:new 0 0 250 80;" xml:space="preserve">
<style type="text/css">
	.st0{fill:#FFFFFF;}
</style>
<g id="Layer_2_00000164490518743375167100000013191647697126742941_">
	<g id="Layer_1-2">
		<path class="st0" d="M87.4,39.5c-0.3-7.2,5.3-13.2,12.5-13.5h0.1h0.5c6.6,0,10.5,3.9,11.7,8.5l-4.1,1.4c-0.8-3.5-4-5.9-7.6-5.7
			c-4.3,0-8.6,3.1-8.6,9.4s4.2,9.3,8.6,9.3c3.6,0.1,6.8-2.3,7.7-5.7l4,1.3c-1.4,5.3-6.4,8.9-11.8,8.6c-7.1,0.1-13-5.5-13.1-12.6
			C87.4,40.2,87.4,39.9,87.4,39.5z"/>
		<path class="st0" d="M120.3,52.5H116V25.9h4.3v10.4c1.3-1.5,3.1-2.3,5.1-2.2c4.4,0,6.5,3.2,6.5,7.1v11.3h-4.1V42
			c0.3-1.9-1-3.6-2.9-3.9c-0.3,0-0.5,0-0.8,0c-2.1,0-3.7,1.7-3.7,3.7l0,0c0,0.1,0,0.2,0,0.3L120.3,52.5z"/>
		<path class="st0" d="M141.5,42.3l4.6-0.7c1-0.1,1.3-0.7,1.3-1.3c0-1.5-1-2.7-3.4-2.7c-1.9-0.2-3.5,1.2-3.7,3.1v0.2l-3.9-0.9
			c0.3-3.1,3.1-5.8,7.5-5.8c5.5,0,7.6,3.1,7.6,6.8v8.9c0,1,0.1,1.9,0.2,2.9h-3.9c-0.1-0.8-0.2-1.5-0.2-2.3c-1.2,1.9-3.3,2.9-5.5,2.8
			c-3.1,0.3-5.8-2-6.1-5.1c0-0.1,0-0.2,0-0.3C136.1,44.5,138.4,42.7,141.5,42.3z M147.4,45.2v-0.8l-4.7,0.7c-1.3,0-2.4,1.1-2.4,2.4
			c0,1.3,1.1,2.3,2.4,2.3l0,0h0.2c2.2,0.2,4.2-1.4,4.5-3.6l0,0C147.4,45.8,147.4,45.5,147.4,45.2L147.4,45.2z"/>
		<path class="st0" d="M158.8,25.6c1.5,0,2.8,1.2,2.8,2.7l0,0l0,0c0,1.5-1.2,2.8-2.8,2.8c-1.5,0-2.8-1.2-2.8-2.8
			C156,26.8,157.3,25.6,158.8,25.6L158.8,25.6z M156.7,52.6v-18h4.3v17.9L156.7,52.6z"/>
		<path class="st0" d="M170.7,52.5h-4.3V34.6h4.1V37c1.1-1.9,3.1-3,5.3-2.9c4.4,0,6.5,3.2,6.5,7.1v11.3H178V42c0-2.2-1-4-3.7-4
			c-2.1,0-3.8,1.7-3.7,3.8l0,0c0,0.1,0,0.3,0,0.4L170.7,52.5z"/>
		<path class="st0" d="M187.5,52.5V25.9h4.3v26.6H187.5z"/>
		<path class="st0" d="M199.4,25.6c1.5,0,2.8,1.2,2.8,2.8c0,1.5-1.2,2.8-2.8,2.8c-1.5,0-2.8-1.2-2.8-2.8l0,0
			C196.6,26.8,197.9,25.6,199.4,25.6z M197.3,52.6v-18h4.2v17.9L197.3,52.6z"/>
		<path class="st0" d="M211.3,52.5H207V34.6h4.1V37c1.1-1.9,3.1-3,5.3-2.9c4.4,0,6.5,3.2,6.5,7.1v11.3h-4.3V42
			c0.3-1.9-1-3.6-2.9-3.9c-0.3,0-0.5,0-0.8,0c-2.1,0-3.7,1.7-3.7,3.8c0,0.2,0,0.3,0,0.5L211.3,52.5z"/>
		<path class="st0" d="M237.5,42.2l7.5,10.4h-5.2l-5.2-7.4l-2.2,2.3v5h-4.2V25.9h4.2v15.9l6.9-7.2h5.7L237.5,42.2z"/>
		<path class="st0" d="M36.9,18.7l18.4,10.6v21.3L37,61.2L18.6,50.7V29.4L36.9,18.7 M36.9,3.1L30.2,7L11.8,17.7L5,21.6v36.9l6.8,3.9
			L30.2,73l6.8,3.9l6.8-3.9l18.4-10.7l6.8-3.9V21.5l-6.8-3.9L43.7,7L36.9,3.1L36.9,3.1z"/>
	</g>
</g>
</svg>
