<?xml version="1.0" encoding="utf-8"?>
<!-- Generator: Adobe Illustrator 26.2.1, SVG Export Plug-In . SVG Version: 6.00 Build 0)  -->
<svg version="1.1" id="Layer_1" xmlns="http://www.w3.org/2000/svg" xmlns:xlink="http://www.w3.org/1999/xlink" x="0px" y="0px"
	 viewBox="0 0 250 80" style="enable-background:new 0 0 250 80;" xml:space="preserve">
<style type="text/css">
	.st0{fill:#FFFFFF;}
	.st1{opacity:0.2;fill:#FFFFFF;enable-background:new    ;}
	.st2{opacity:0.6;fill:#FFFFFF;enable-background:new    ;}
</style>
<g>
	<g>
		<path class="st0" d="M87.6,43.2h1.9L99.7,32h10.8L98.8,44.9L111.3,63h-10.5l-8.1-11.6h-5V63h-9.1V16.9h9.1v26.2H87.6z"/>
		<path class="st0" d="M127.5,31c4,0,10,0.6,17.8,1.6v30.7h-9.1v-2.3c-2.7,2.1-6,3.3-9.4,3.3c-4.4,0-7.9-1.6-10.8-4.6
			c-2.7-3.1-4.3-7.1-4.3-12.1c0.2-5,1.6-9.1,4.3-12C118.6,32.5,122.7,31,127.5,31z M128.8,38.5c-5.4,0-8.1,3.1-8.1,9.2
			c0,2.7,0.8,4.8,2.1,6.4s3.3,2.5,5.6,2.5c2.7,0,5.4-1,7.9-3.1V38.9C133.5,38.5,131,38.5,128.8,38.5z"/>
		<path class="st0" d="M163.2,16.9V63h-9.1V16.9H163.2z"/>
		<path class="st0" d="M185.6,31c4,0,10,0.6,17.8,1.6v30.7h-9.1v-2.3c-2.7,2.1-6,3.3-9.4,3.3c-4.4,0-7.9-1.6-10.8-4.6
			c-2.7-3.1-4.3-7.1-4.3-12.1c0.2-5,1.6-9.1,4.3-12C176.7,32.5,181,31,185.6,31z M187.2,38.5c-5.4,0-8.1,3.1-8.1,9.2
			c0,2.7,0.8,4.8,2.1,6.4c1.3,1.6,3.3,2.5,5.6,2.5c2.7,0,5.4-1,7.9-3.1V38.9C191.5,38.5,189.3,38.5,187.2,38.5z"/>
		<path class="st0" d="M227.5,30.6c5.2,0,9.4,1.6,12.7,4.6c3.3,3.1,4.8,7.1,4.8,12.1s-1.6,9.1-4.8,12.4c-3.3,3.1-7.3,4.6-12.7,4.6
			c-5.4,0-9.4-1.6-12.7-4.6c-3.3-3.1-4.8-7.1-4.8-12.4c0-5,1.6-9.1,4.8-12.1S222.2,30.6,227.5,30.6z M236.2,47.2
			c0-2.5-0.8-4.6-2.3-6.2c-1.6-1.6-3.7-2.3-6.2-2.3c-2.5,0-4.6,0.8-6.2,2.3c-1.6,1.6-2.3,3.7-2.3,6.2c0,2.7,0.8,4.8,2.3,6.4
			c1.6,1.7,3.7,2.5,6.2,2.5c2.5,0,4.6-0.8,6.2-2.5C235.4,52,236.2,49.9,236.2,47.2z"/>
	</g>
	<g>
		<g>
			<path class="st1" d="M60.6,52.8L48,40.3l0,0l0,0L33.7,54.5l0,0l12.4,12.4c3.1,3.1,9.7,2.9,13.5-1S63.4,55.9,60.6,52.8z"/>
			<path class="st1" d="M48,40.3l12.4-12.4c3.1-3.1,2.9-9.7-1-13.5s-10.5-4-13.5-1L33.5,25.8l0,0L48,40.3z"/>
			<path class="st0" d="M32,53L19.2,40.3l14.5-14.5l0,0l0,0l0,0l-9.1-9.1c0,0-4.8-5.4-9.4-5.4C9.8,11.5,5,15.9,5,20.2v40.4
				c0,4.3,4.8,8.9,10.2,8.9c4.6,0,9.4-5.4,9.4-5.4l9.1-9.1l0,0L32,53z"/>
		</g>
		<polygon class="st2" points="46.3,42.2 48,40.3 48,40.3 33.7,26 33.7,26 33.7,26 19.2,40.3 32,53 33.7,54.7 33.7,54.7 33.7,54.7 
			33.7,54.7 		"/>
	</g>
</g>
</svg>
