<?xml version="1.0" encoding="utf-8"?>
<!-- Generator: Adobe Illustrator 26.2.1, SVG Export Plug-In . SVG Version: 6.00 Build 0)  -->
<svg version="1.1" id="Layer_1" xmlns="http://www.w3.org/2000/svg" xmlns:xlink="http://www.w3.org/1999/xlink" x="0px" y="0px"
	 viewBox="0 0 250 80" style="enable-background:new 0 0 250 80;" xml:space="preserve">
<style type="text/css">
	.st0{fill:#1D3561;}
	.st1{fill:#61C2E1;}
	.st2{fill:#1F3460;}
	.st3{fill:#20294B;}
</style>
<g>
	<g>
		<path class="st0" d="M87.6,42.8h1.9l10.2-11.2h10.8L98.8,44.5l12.5,18.1h-10.4l-8.1-11.6h-5v11.6h-9.1V16.5h9.1v26.2H87.6z"/>
		<path class="st0" d="M127.5,30.6c4.1,0,10,0.6,17.7,1.5v30.7h-9.1v-2.3c-2.7,2.1-6,3.3-9.3,3.3c-4.4,0-7.9-1.5-10.8-4.6
			c-2.7-3.1-4.2-7.1-4.2-12.2c0.2-5,1.5-9.1,4.2-12C118.8,32.1,122.7,30.6,127.5,30.6z M128.9,38.1c-5.4,0-8.1,3.1-8.1,9.3
			c0,2.7,0.8,4.8,2.1,6.4c1.4,1.5,3.3,2.5,5.6,2.5c2.7,0,5.4-1,7.9-3.1V38.5C133.3,38.3,131,38.1,128.9,38.1z"/>
		<path class="st0" d="M163.2,16.5v46.1h-9.1V16.5H163.2z"/>
		<path class="st0" d="M185.6,30.6c4.1,0,10,0.6,17.7,1.5v30.7h-9.1v-2.3c-2.7,2.1-6,3.3-9.3,3.3c-4.4,0-7.9-1.5-10.8-4.6
			C171.5,56.1,170,52,170,47c0.2-5,1.5-9.1,4.2-12C176.9,32.1,180.8,30.6,185.6,30.6z M186.9,38.1c-5.4,0-8.1,3.1-8.1,9.3
			c0,2.7,0.8,4.8,2.1,6.4s3.3,2.5,5.6,2.5c2.7,0,5.4-1,7.9-3.1V38.5C191.6,38.3,189.1,38.1,186.9,38.1z"/>
		<path class="st0" d="M227.4,30.2c5.2,0,9.5,1.5,12.7,4.6c3.3,3.1,4.8,7.1,4.8,12.2s-1.5,9.1-4.8,12.3c-3.3,3.1-7.3,4.6-12.7,4.6
			c-5.2,0-9.5-1.5-12.7-4.6c-3.3-3.1-4.8-7.1-4.8-12.3c0-5,1.5-9.1,4.8-12.2C217.8,31.8,222.2,30.2,227.4,30.2z M235.9,47
			c0-2.5-0.8-4.6-2.3-6.2c-1.5-1.5-3.7-2.3-6.2-2.3s-4.6,0.8-6.2,2.3c-1.5,1.5-2.3,3.7-2.3,6.2c0,2.7,0.8,4.8,2.3,6.4
			c1.5,1.7,3.7,2.5,6.2,2.5c2.5,0,4.6-0.8,6.2-2.5C235.2,51.6,235.9,49.5,235.9,47z"/>
	</g>
	<g>
		<path class="st1" d="M48,40.1l12.3-12.3c3.1-3.1,2.9-9.6-1-13.5s-10.4-4.1-13.5-1L33.6,25.6L19.3,40.1l12.5,12.5l1.7,1.7
			l12.3,12.3c3.1,3.1,9.6,2.9,13.5-1s4.1-10.4,1-13.5L48,40.1z"/>
		<path class="st2" d="M15.2,11.1C9.8,11.1,5,15.7,5,20v40.1C5,64.4,9.8,69,15.2,69c4.6,0,9.5-5.4,9.5-5.4L48,40.1L24.7,16.5
			C24.7,16.5,19.9,11.1,15.2,11.1z"/>
		<polygon class="st3" points="48,40.1 33.7,25.6 19.3,40.1 31.8,52.6 33.7,54.3 46.3,41.8 		"/>
	</g>
</g>
</svg>
